<mxfile host="app.diagrams.net" modified="2023-11-25T23:39:28.638Z" agent="Mozilla/5.0 (Windows NT 10.0; Win64; x64) AppleWebKit/537.36 (KHTML, like Gecko) Chrome/119.0.0.0 Safari/537.36" etag="en9L26pBf7WO2GXd-fmz" version="22.1.4" type="device" pages="7">
  <diagram name="sketch" id="2SSqqHS6HuX43L2yZq85">
    <mxGraphModel dx="2074" dy="1118" grid="1" gridSize="10" guides="1" tooltips="1" connect="1" arrows="1" fold="1" page="1" pageScale="1" pageWidth="1169" pageHeight="827" math="0" shadow="0">
      <root>
        <mxCell id="0" />
        <mxCell id="1" parent="0" />
        <mxCell id="W98CiXohFAIM3c5sPNTf-1" value="" style="rounded=0;whiteSpace=wrap;html=1;movable=1;resizable=1;rotatable=1;deletable=1;editable=1;locked=0;connectable=1;" parent="1" vertex="1">
          <mxGeometry x="220" y="209" width="720" height="440" as="geometry" />
        </mxCell>
        <mxCell id="W98CiXohFAIM3c5sPNTf-2" value="" style="endArrow=none;html=1;rounded=0;movable=1;resizable=1;rotatable=1;deletable=1;editable=1;locked=0;connectable=1;" parent="1" edge="1">
          <mxGeometry width="50" height="50" relative="1" as="geometry">
            <mxPoint x="470" y="649" as="sourcePoint" />
            <mxPoint x="470" y="209" as="targetPoint" />
          </mxGeometry>
        </mxCell>
        <mxCell id="W98CiXohFAIM3c5sPNTf-3" value="" style="endArrow=none;html=1;rounded=0;movable=1;resizable=1;rotatable=1;deletable=1;editable=1;locked=0;connectable=1;" parent="1" edge="1">
          <mxGeometry width="50" height="50" relative="1" as="geometry">
            <mxPoint x="690" y="649" as="sourcePoint" />
            <mxPoint x="690" y="209" as="targetPoint" />
          </mxGeometry>
        </mxCell>
        <mxCell id="W98CiXohFAIM3c5sPNTf-8" value="" style="line;strokeWidth=1;html=1;direction=north;fontSize=12;" parent="1" vertex="1">
          <mxGeometry x="515" y="234" width="10" height="40" as="geometry" />
        </mxCell>
        <mxCell id="W98CiXohFAIM3c5sPNTf-9" value="" style="line;strokeWidth=1;html=1;direction=north;fontSize=12;" parent="1" vertex="1">
          <mxGeometry x="515" y="304" width="10" height="40" as="geometry" />
        </mxCell>
        <mxCell id="W98CiXohFAIM3c5sPNTf-10" value="" style="line;strokeWidth=1;html=1;direction=north;fontSize=12;" parent="1" vertex="1">
          <mxGeometry x="515" y="374" width="10" height="40" as="geometry" />
        </mxCell>
        <mxCell id="W98CiXohFAIM3c5sPNTf-11" value="" style="line;strokeWidth=1;html=1;direction=north;fontSize=12;" parent="1" vertex="1">
          <mxGeometry x="515" y="444" width="10" height="40" as="geometry" />
        </mxCell>
        <mxCell id="W98CiXohFAIM3c5sPNTf-12" value="" style="line;strokeWidth=1;html=1;direction=north;fontSize=12;" parent="1" vertex="1">
          <mxGeometry x="515" y="514" width="10" height="40" as="geometry" />
        </mxCell>
        <mxCell id="W98CiXohFAIM3c5sPNTf-13" value="" style="line;strokeWidth=1;html=1;direction=north;fontSize=12;" parent="1" vertex="1">
          <mxGeometry x="515" y="584" width="10" height="40" as="geometry" />
        </mxCell>
        <mxCell id="W98CiXohFAIM3c5sPNTf-32" value="" style="line;strokeWidth=1;html=1;direction=north;fontSize=12;" parent="1" vertex="1">
          <mxGeometry x="575" y="234" width="10" height="40" as="geometry" />
        </mxCell>
        <mxCell id="W98CiXohFAIM3c5sPNTf-33" value="" style="line;strokeWidth=1;html=1;direction=north;fontSize=12;" parent="1" vertex="1">
          <mxGeometry x="575" y="304" width="10" height="40" as="geometry" />
        </mxCell>
        <mxCell id="W98CiXohFAIM3c5sPNTf-34" value="" style="line;strokeWidth=1;html=1;direction=north;fontSize=12;" parent="1" vertex="1">
          <mxGeometry x="575" y="374" width="10" height="40" as="geometry" />
        </mxCell>
        <mxCell id="W98CiXohFAIM3c5sPNTf-35" value="" style="line;strokeWidth=1;html=1;direction=north;fontSize=12;" parent="1" vertex="1">
          <mxGeometry x="575" y="444" width="10" height="40" as="geometry" />
        </mxCell>
        <mxCell id="W98CiXohFAIM3c5sPNTf-36" value="" style="line;strokeWidth=1;html=1;direction=north;fontSize=12;" parent="1" vertex="1">
          <mxGeometry x="575" y="514" width="10" height="40" as="geometry" />
        </mxCell>
        <mxCell id="W98CiXohFAIM3c5sPNTf-37" value="" style="line;strokeWidth=1;html=1;direction=north;fontSize=12;" parent="1" vertex="1">
          <mxGeometry x="575" y="584" width="10" height="40" as="geometry" />
        </mxCell>
        <mxCell id="W98CiXohFAIM3c5sPNTf-38" value="" style="line;strokeWidth=1;html=1;direction=north;fontSize=12;" parent="1" vertex="1">
          <mxGeometry x="635" y="234" width="10" height="40" as="geometry" />
        </mxCell>
        <mxCell id="W98CiXohFAIM3c5sPNTf-39" value="" style="line;strokeWidth=1;html=1;direction=north;fontSize=12;" parent="1" vertex="1">
          <mxGeometry x="635" y="304" width="10" height="40" as="geometry" />
        </mxCell>
        <mxCell id="W98CiXohFAIM3c5sPNTf-40" value="" style="line;strokeWidth=1;html=1;direction=north;fontSize=12;" parent="1" vertex="1">
          <mxGeometry x="635" y="374" width="10" height="40" as="geometry" />
        </mxCell>
        <mxCell id="W98CiXohFAIM3c5sPNTf-41" value="" style="line;strokeWidth=1;html=1;direction=north;fontSize=12;" parent="1" vertex="1">
          <mxGeometry x="635" y="444" width="10" height="40" as="geometry" />
        </mxCell>
        <mxCell id="W98CiXohFAIM3c5sPNTf-42" value="" style="line;strokeWidth=1;html=1;direction=north;fontSize=12;" parent="1" vertex="1">
          <mxGeometry x="635" y="514" width="10" height="40" as="geometry" />
        </mxCell>
        <mxCell id="W98CiXohFAIM3c5sPNTf-43" value="" style="line;strokeWidth=1;html=1;direction=north;fontSize=12;" parent="1" vertex="1">
          <mxGeometry x="635" y="584" width="10" height="40" as="geometry" />
        </mxCell>
        <mxCell id="W98CiXohFAIM3c5sPNTf-45" value="" style="shape=image;aspect=fixed;image=data:image/png,iVBORw0KGgoAAAANSUhEUgAAAEAAAABACAYAAACqaXHeAAAIe0lEQVR4nO1aS2wWVRQ+8z9KC21pa8FUMEYwpSFqAEmEhgRRMEKkQQFDQQKGuHDHwoUsTFiY4E53LtDERJ6JQQlgQpWIERFMwCILqInEag2xUMqj2Pc/zndnzp0zr3+GR5km/Adu7sw/d+495zvPe6c5esgplzYDaVMJgLQZSJtKAKTNQNpUAiBtBtKmEgBpM5A2lQBIm4G0abwDYBqGQaZpGmO1wHgHgObMmUPt7e3mWIEw7gEYaxrXAMD8Le2P6RqxAFhMmEkmskz03rkJmTOTyVChUFC3RYbetXvEAWBOmTKFuru7lTb0as4190mFvxuQHOE1VVVVUTabVWv39vbqqX2vJQYkCgAl+PDwsLrBgtAEGhbmngHAODQ/s/eDstkckKbREZsXrJ3L5Sifz9O0adPUmqOjo6q/evWq5t/pY4GItAAn/ah+woQJakEJBI/BwujBxIstGxIJdezgLnrh1fXqvbwlDOYzwbNpW4n6VzDp3Onj1H35L/VO65attPezj9U74AP8AAgQ1kZraGigkZERdX3t2rVEQIQBYM6YMYNu3bqlTba8vFw1v+Z5cWh/5uy5SjC8s3TVxuCkEMxqBUuwsrIygbT1P2NZlZHRXB7e/6nqsd6md961BM3T4NAQLVmxhs7+9K39mgMEegABRaABALSpU6eqXgCRt9pILACNjY1KIGZYmhwW9Aslzf65RS/TmRNt9MORffRM83IqmAUChl0XTlsaHdXjJk6cSO0nvrE171gZgByyhBwcHKTGp+fR4082UVV1NY1agIHJnDX2kfpHPWDiHfAFYutED34hPOSor69X19evXx92IY8AwPIhs7m5WS+gleT4fVFyxi9e8QadOnaQ/jx/QlkNGJpYUa6esa+iseBgVrrSvOalNiAjA9ZvlS7AsDzLUvr6+rQFYQ4IxwQweF4GAw2g1tTUAIQA2wEL2Lt3L61evdoDAqcivwV4CG6hXMOgRa+spd9OHvVYDTPGwVLOh3FsvhrPgu0uNlgFNTXcRIKI93leEN5nF8U6AIrv0RwQTBJWEBoEWXi027dv06RJkyLl9qQ2dZ08JbIlSK39+vMxmrvwJXuMEwxtfN3YI90TbuOJKQ7B+tjC2FXQ+8kDAPwFMUAyycHmfhDHEyk0N6lJkDJ9zggaIBcAPP/j/f16fNOHb6oetcHkyZPVNc9dWVmp3kHf09OjpiDHCmItQDKfiIzwjOMvnljjMrP4M0zByRpgI6NdzOWPnpilx158b5e+/leAgnGcLqHI2tpaWUBF1wFSS37tRLzg9HHD3MzBkZvJD4BHEXhm/Vu+9i062XYgWFUKMJgkKAu2r6EuK0b4FZnIAv7ZdTE4qLNDX9ZsXRqpeTknBzr0HKXZAgJVpLO2JxtZLlCWdzOA4iFEcE3i2antX7q/b56vLyMBiKXIhYOM8z1XbCBOUcUsy68IzgT8bNYOt/Ls2LY7MRiSYl0AGmpY30iXdxyKntx+IRI4WbhI7ftN3nOvXM+xHE7HqBYz4YBJMCTFARO7HeYM0LBtZeSYfrJTluEw7Sepfc4qDIBbIhdCrUb9LlJh4mDsUBgwHeI6URBMQgZ5o7x/Hr/2QVzQcGP30OuyC5B0gft7MlY0BoAJBC0wXMwFdBBUzAVNwO/7XPvLxkLr/G/aYqtUOMrVoBHpAlEU6gJLqooDwMSMXt7ze/xK8NeQ8wC5X2fr8AvOPZs3VymmHQRchZAbI/yWFhsEIygWgEgX6OwI/GQ4ewEmFlr6t9wM8Tu8KwTZlkD6uiCrQRROgp87EjqEX1AsAFj4sQ2zQrfDrMU+knJ70yAHMs7zsu6Xgss1DQrGETHAVUyc8EJoLoT6+/up504BiKsLbFPVbwXm4GIHJLepcjvLYOiqL2B59v2enR+pcjaQDUI0zPsDlMK3rA1dtbO5k1T0SEwLl4QMcqJ18BwB1uMHAMRbY06NMhiCso6VqPwv8NAWIIT2b4bsgJnxKBHzy31AUQB4IemrRcmkgOkyo9CAdB/WPNcFOedckMtkJXzW2jnmc1bpm6d8Gbufd2v81AfrdFbBEV5FRQVVV1d71uEe8165ckWzFgoATlU7OzuppaXFI7SM4MUxCBYyYft4mQH4CEvWCrblZGmCtc+vqCinivIydXg6PDLqAUCOx/7fvy56nBegDQwMhJ5ax7oAzuFZW7ytLCY8ewynP05vUhteQd3NENrzi5dr88V6AAEbIIwbduKFrAjDCi8848Na8I4jMedcMB6A1tZWz8TQkDyqKkZ2niZ1KIqjdH5f5m65HeZ7PsmVJzY4/NAZRBVDEMgFQL6PhlMhHs+C8/cKXN+4ccNlMwqA+vp6VX9Mnz49cDrDjEbt4Owa0KTjR/bTwmWr7fytDzTs9nfHWfqvr9cRMEOz5y+myupadc8WcvzwHrXeslUbLY0PW9ob0nMP4FqkQbmf4PjBYEpQb968GSp8AICAUIb75YejNx88sgninsvWMz+2hX4TYKpbsET13x/aQ0tWbnA+ihi28zhFz7LXNqnrowc+V2NXrntbfRPAoK92f6IONhkwtkxZWbLQAENoPVT4KACMrq4uE7mWF0IAwaRhn8cYdYBTTHhJtqnbAqtPr47PZwWXK9ZuUcAf2rdT3b/8+mbVc2xBYJOxg4UO8fOi0TvKAgwrX5p1dXXqhv3If3bHwQ3PLp77hS60n04EAOi7r79IPBbU5lgE1gM/cucYFtwo4QfSYi5g4LOS1dwaL+b05kEQ8n0M3dF2MckfSLhV/gMSUlDcgs9a7fy9LDCu/0IE1NTURB0dHQD/4fsboZkzZ+qPn2NF4xoABLdLly6NmfZB4xqAnp6eMROcaVwD8CCoBEDaDKRNJQDSZiBtKgGQNgNpUwmAtBlIm0oApM1A2vQ/1UjaXVAAuskAAAAASUVORK5CYII=;direction=north;" parent="1" vertex="1">
          <mxGeometry x="532" y="584" width="38" height="38" as="geometry" />
        </mxCell>
        <mxCell id="W98CiXohFAIM3c5sPNTf-46" value="$" style="ellipse;whiteSpace=wrap;html=1;aspect=fixed;" parent="1" vertex="1">
          <mxGeometry x="532" y="309" width="30" height="30" as="geometry" />
        </mxCell>
        <mxCell id="W98CiXohFAIM3c5sPNTf-47" value="O" style="rounded=0;whiteSpace=wrap;html=1;" parent="1" vertex="1">
          <mxGeometry x="600" y="241.5" width="25" height="25" as="geometry" />
        </mxCell>
        <mxCell id="W98CiXohFAIM3c5sPNTf-50" value="" style="shape=image;aspect=fixed;image=data:image/png,iVBORw0KGgoAAAANSUhEUgAAAYAAAAGACAYAAACkx7W/AAAAAXNSR0IArs4c6QAAIABJREFUeF7svQmQXMd5JvjVfd99Ao2LbAkkQRE8QIIESPA+RIkiZYmUbHmk8Do82o1dz3jN8OyGPbvh2Nnd2HUsHTPWhNfyjEcbsyOvbFn2eCzKpERKIiWK4gFeIkCCAkgcDaDRR933ufFndTXyVXd25+t6r/pVV6ZsP7mRlS/zz3z55f/lf9igipKAkoCSgJLAUErANpSjVoNWElASUBJQEoACALUIlASUBJQEhlQCCgCGdOLVsJUElASUBBQAqDWgJKAkoCQwpBJQADCkE6+GrSSgJKAkoABArQElASUBJYEhlYACgCGdeDVsJQElASUBBQBqDSgJKAkoCQypBBQADOnEq2ErCSgJKAkoAFBrQElASUBJYEgloABgSCdeDVtJQElASUABgFoDSgJKAkoCQyoBBQBDOvFq2EoCSgJKAgoA1BpQElASUBIYUgkoABjSiVfDVhJQElASUACg1oCSgJKAksCQSkABwJBOvBq2koCSgJKAAgC1BpQElASUBIZUAgoAhnTi1bCVBJQElAQUAKg1oCSgJKAkMKQSUAAwpBOvhq0koCSgJKAAQK0BJQElASWBIZWAAoAhnXg1bCUBJQElAQUAag0oCSgJKAkMqQQUAAzpxKthKwkoCSgJKABQa0BJQElASWBIJaAAYEgnXg1bSUBJQElAAYBaA0oCSgJKAkMqAQUAQzrxathKAkoCSgIKANQaUBJQElASGFIJKAAY0olXw1YSUBJQElAAoNaAkoCSgJLAkEpAAcCQTrwatpKAkoCSgAIAtQaUBJQElASGVAIKAIZ04tWwlQSUBJQEFACoNaAkoCSgJDCkElAAMKQTr4atJKAkoCSgAECtASUBJQElgSGVgAKAIZ14NWwlASUBJQEFAGoNKAkoCSgJDKkEFABYZ+I9AKbcAD1VGSAJVIEKgBm0n1Yohq8lC47RCnIe+D4oALDOFF7pdjiegs02bZ0uqZ5ISaDVOlltNJ4EcEqqvvmVjF9L1huj+VIcgjcoALDIJLuBa+B0/rUN2GeRLqluSEqgBRxDvf5EFTgu+RNTq5mxlqw2RlMFOESNKwAwb7J1qeHhaHQ6EAg8Zbdh2ma3w+V2g56qWF8CzVbzZCaVeTK1sHDSCr2NjYxMR2KRp+w2u2HapNljVBTT5qwcBQDmyV2XGj45Pu75wmOfmYrHY16314PJPbtAT1WsL4FLs3Plf/3HfzJz+vQZS9wB7N69y/M7v/vPpsYnxrxGSc/0MSqKyaip0tWOAgBd4pKvrFcN3zYxjq/+xlewfXICHp8PO66ahtfvl3+hqrlpEvjw1If4g//xf8ZHH360aX3gX7znij343/6P/wVXXHmFYf0xe4yKYjJsqnQ1pABAl7jWrbxM+/hDoWm/z/uUzWabttlscDocoKeI3hkbSeCJzz6KsZERuH0eTOzeBY/PsAPcuh1XFTYugXPnZvAnf/w1zMyc33gjBv5yamo7/tnv/jZ27JgyrFWjxthsNlEtV0DPFv33agXNVhNotU6Wq/UnK8XiSUUHGTZt6zakAGBdEemqsEz7jMRjnnvvPjIVDoW8LqcTiVgMLqeL0Tqr0TtOpxPxaBROlxM2mx0ujxt2dQegS/ibVblarWLu0hzoaYXidrsxNj4GehpVjBpjuVjCR++fAj3L5RLOnTuFSrmEQqlcfuvdEzOZfLFCYGAxqyqjxGi5dhQAGDglPO0zkojjsUcexuhIAi6XCxOJEfZBKnrHQIGrpgZOAsVcAe+/fQylfBGlYgEnTx1DuVREJpvHS6+/g2yuAEUH9W9aFQD0LutVaZ94LIoH7r0b8XgMbpcLk+MTDAAUvdO7wFULgyuBUqGE0ydOolQsoVQs4uQHx1AqFZDO5PDjl15DOptTANDH6VUA0LuwV6V9vB4P9uzcCZ/Hw079U9NXwOP3Knqnd3mrFgZYAs1GE5VyhfH/xUIBJ945jlK+gEvz8/irv/07zC0sKADo4/wqAOhR2Ir26VGA6udDKwGeDpq9dAn/8VvfwqW5OQUAfVwRCgA2JuxVaZ9oJIw7b78N9PR6vdi9czd7KtpnY0JWv9raEuDpoEuX5vCXf9UGAGUR1L95VwCwMVmvSvu0mg3UygW0Wk3E4nHc/cmHEUskFO2zMRmrX21xCfB00ML8HP7Lt7+Nxfk5ZRHUx3lXALABYYton2qljLnZ86hVK4iPjuJTn3scibGxDbxB/URJYLgksDg3h6e/820k5+eVRVAfp14BgLywl2mfWDQ6HY6En7LZbdORcBiHDx1ENBJBo1FHqZBFo9lANBbHkQceRDQel3/DJtck55xapco0GFUGVwKD6EeSWlzEi88+g3QyiUwmh5+8chSZbE5DB/EzopzFjFmfCgDk5bhM++zavs3z1d/40tT4SMJbrdUxu5hCrV6HP+DH3k/sQyAQgMPpRDAcBjl4DUqplMqYPX0G1ZIlQtoMitgs189BvHOig0d6dg71ahWpVBLP/eD77KlxEOMlrZzFDFl3CgAkxcjTPrt2bMf/9ORvY/fOKeSLJbx74iQtVITCYRy4/TaEIxHJVq1VrVws4tz7J1EplazVMdUbXRIYRGfDZr2BeqGEVqOJ5OICvv/s00glFzV0kGb/t1gIbl0TZKHKCgAkJ4MHgB3bJ/F7v/1V7JzajmKphPd++SF70on/xoMHGRBoDyst1Ot1tFot7d/RQrPZIDVXshfmVquUy5j96Cyq5bK5LwLI1A/NRgv0H5ligw12B/1fbdHbjsy7zKgj6r8Z73J7vZjYsxMer4GxpGw22O0OrJwBg0ZA30C1DjRbSKWTeOGH30c6nUKuUMTbx04iVyjBYbfD5/OyZ7PVOpnP5p5MpdMqdlAPU6AAQFJ4PABQwLYvfP5RjI+OoFKp4OL5c6hUK/D7A/j43k/AFwhoWq1Va1hcXEStVtP8vdmoo1hMo9GsS/bC3GrknNO+A5DblHvpTb3RRDZfRaMh9y6Hw4Zw0A2nQ5sjQW87vfS5l9+K+t9Lm6LfUtBBiiVlZD4Jh90Jvz8Ku8McSpPiZcXjcRY2pVjI473jb6FYzKPZbOMCrZKA34/91+xFIODH/GKy/Bff/PbMuQsXVeygHhaRAgBJ4clY/nh9fkxfuQ8+vxYAqpUqZi/NgoCAL/V6DYXCArs8HrZSqzeRzpZRlwQAp8OGaNgLl1MLAHrb2Sw5i/q/Wf3R+16Hw4lAYAROp0vvT6Xqu9wuTFC4FI9bEyOILrSdbj/TPsLBAA7edD0ioSDOzJzHH33tz3H2/AXlOCYl4dUrKQBYW3irOnyR5c/tS5Y/dIovF7KMyvF4fNi580p4vD6mKjucdvZcjqTYrQE066hWcmiapAGw8NN0CW2z3jQ3OA2ANI5Wo02RsT47KCKqts8UGDXkdaBLAUCjCeTKDXZSlCky75JpR2+djgbgoAHQeJcoQak54urz76VTcaPR6AuDaF/SAAgISEFkclyDvms1W6hWy2g25TQ8l8uJkZERpgGUKyWcO3sSlQpRkbQe6DO0Ixjw47pr9rLn+YuX8Kff+E+4MHtJAYDexcjVt97O0MNgTPjpqg5fROUkF9OM0gkGArj+E9ewRUnhm11uD+x0anE6EI8G4XI6QJZCcwtUX3vSJzojGvaxumYU2vw9sTjsJp3aeulze/Nqsi2kVauhkkqyTbHTZ5tLe9Kkf2tkUgwo+EJg4YjE2kAnUWTeJdGM7ir0odHmT89mfeV415ojvj7/YrI8S6bzqNcbuvuj9wcEVHQKpw2ZNvVypbbm5n55E5c0KKCcGc428HfyBBDIEMWXK9TRaLbY9+X3etkzm8/hlaNvIpfPKwDQO5kKAOQkJqJ9isUSTlBEw1IZpA0cOdz2A+ALbfyjiQjcLicDgPnFDGpdHypfR65H+mrZXS54RsbgMDAuvL4eyNVuVKuoLMyhWatB1Ge+Dt+q3jHKvEuu1xuvpbcPorGL1tXGeyb3SwLuYrm6JgDwoZ7lWl29lojiKxSLOH7iBDO+UOGjNy5hpQGslN1lh6+RkelwOPSU3dZ2+Dp0680szk+5XMHMuQuoVKoIh0O47eABhLssf1wuB0ZiEdDlFjupZVae1JiWECEtQfL0yqyGiOuQU6ttTldbA+g6TW98uZjzS36DW9YAurSWFndqpl5QvTZ9cnmMjJboolbYiZL7O9+OXvAwavQEdG2Np8a0M29iFI415mhZA+jSIEXryqh+itrhNQCigVh2r641SUlezp09xegcYZGgtvhLfnKwpMMXyypGSXgW5pkWriyCNj7jCgBWyu6yw9fOHZ7/7qu/NTU2NuYla58LF2bYwiMztKA/wNI8+vx+XLHvKvgC2vy9ZDURCYXhcDgYZ7oaV0s0N/27LEXfbDRQKBWYp7FM6fDL3Xy6zG/7Waf7hNvZ3Pk+dDbxzuZPwEabPz9GfmPlgYH/O9/OZgEAD0jEqQdDEdBz3Y2ya5MVrSuz546x/832lt9Zk8ycmSuU5pHSPRKdIwSSLlDv1OOpLd7MN5cr4PW33kY+X0A4FMBtB/YjHAoqi6AeJlwBQJfweNpn966d+MN/+fvYs3sXcvkc3qbFV8hLZfhy2B0IBsJwGmg2V2/UkV8KNdHDnFvupyKKQ9RRGZqIr2MUfWSG4MxYJ2b0U9RmL2tSL7WVzmTw4kuvIJPNIhGL4pEH78JIPKYsgnqYcAUAawDAjqkp/A+/+zvYuWMK+UIB7x57F4VCAe1kLztYshe3z4dtLNmLj7VEF1TM6cduh9fjW7o462GG+FNVkzQAso2WNHkx5rUaCsUMrYI/oct0WURtiTQA0UbD001mjItfDx2qpHt8gw4AZMJMWmm3BiAzjzLUFmlLjVqVaRKpdAY/+snPkM5kmSnokYM3IBoOkQaAv3n6WcwvphQdJCN4ro4CgDUAYCQex2Of+hRGEgmUy2WcPneWPSnd48P3HWFPumANjE/A6fGwTT/gC7JNnz4I4j+N3KxFm4jOOdddXbSx6m5I8AOeEpFpU7RZi+4A1tIwVrtLkOmDTJ3u9bAaeA86AJDMV7sDkJHPsjnsGtRWvVJG8sJZ1KsVLCwm8Z+/9zwWkyninuCoFmFrNdj92y2HDiEUCSs6SErwlyspAFgDAGLRKB68627EYzGUKxXMXDiPSrWKkUQMn3/kQYyOtC9YO5Y2/Mfci2qscw5Nr67XasX0Dul8gQzFZMZ9gMx6GHQA0DkVuqtXy0UsnD6FWqWE+YUk/uYfnsXCYooBQmH+ItMOxsbH8Ktf+jWMT4wrOkinhBUAtAW2qsNXKBjEgf03gJ50iUu2x/RMxKN4+MG72ZO34qCTf8AXYBd6mwUAmlOw3Qany80S0giLzda2T19jJTTrdVSTSWa/TuN1x8m3QM5ySed61FRvX3I2245TyxZQ+lukTaKysMj6z4ZJNF3XePl57H5Xh9YTvVnUNxmNkF8z+kd2+Rf8SbxDQVr98l9mvLVKGSnSACoVLCST+O4//pBpAPT3hfNnUKtUEE8k8PCnH0ZiJKEcxGSEytVRANAWhtDha2EuyUzNKMTz/muvQTDoZ7F+9l53DXvyVhz8h7dZAMDTNU63F7FtO+D0iIOCkSlqOBJY2xmN1HxywKIdmRyC6GJb1nRJ54Lkq5ODUzZTYI5ORKlt9P6DAKyWK6BFfhgOO5x+74o4Ofw88u/iN3HRUNbq23p3QkZt1jwXbxSo9DB1hv2UuP863QG0mshnc3jzlVeRz2WRzebw2utvIJvLMQeySCTCnspBTJ/oFQAA0OvwxYfbFanwmwUAPN3h8vgwsvtKuL1aE1V+iRAAxBIhkCu+1Qp5TqcWcwwAepEnH2rYRgAQ8MHe5X0tomtkKBqZvsm004v8+T6Y/a5e+tnLbwu5HI6/cRTFfB68RRDfpnIQ0ydhBQCSAEAOYHffcQixaERj+cN/bLwa3suJVd8ULsVl6YSbJnvsUhEUHMfh9iAyvh2kCVBpUz3aKXc4HYhE19EA9HbIoPq08WfSBTSWACCXzzIKTm+hGPP1UpnFmmcA4POyJ1/4U7Pe07SMJYzZp3LZPtvslwM6U7TQFeG1yeqGaDcLFtr4f3nsXZQKBWSzWbz8yutME9A4iNWqmF9YQK1eI1+Fk9lMVoWMXmMuFQBIAkAiHsNjD9+LkURcY/nDAwD/EfbCWev99njah7STnR//OLx+Hwu1XCi2Y7bQ5h9eZaMnQFgNGPT2wYz6zASQ4gVRTJhaA6lUdmNxbyh4GWc6y8Ikd618norRy6fLWMIYRfWI5CzTZ9r8PV4X7HYyU7bB43Ezy7UVtBuBrgVBoFarIplaAEXRLRWK+PDY+ygVi+AdxCLhEI4cOsDMQy8tLJa//o1vzpw5f0GFjBYsHAUAkgBgZcsfnvbxBYP4+I03wB8KseBzHQrFylSPDHjwY5Gpr+qslABt+l6/mwE+++9eL/vvfLGynHmai89ex9NB/Hd6+uwM/tVTX8OZc+dVvCAFACskoEnyHlyK+RMKBXHLzTchHAq1443MLaBWrSMei+CT997RtvxxueEfm2CagBUsf3gNgC6mp/dfB38wyE7LHQrFylSPzGbNj6WjGcj8brPrdCgXFvVUMjSyWX2mTd8f9CxpfHZ4vSs1ACsDAK9hU9rSmQ9+iUqxpHEQi0XDuP+uw4hHIzh34SL+zde/gfMXZxUAKABYIYFly58d2yY9v/mlx6dGE3FvPl/E0V+8h1y+wEI9X3vNVSzUs9fjxq6pCfi8HmZVk9ixB86luP/M0sNm6+mispePnjf9pFPdrj27WOo8nkKxMtUjM3YNHUTWQRalKfix8JQL0XCVMuOlZYZrSh3KTxGNBZfCLpMhl23FnZCVAYCnuWqlEuZOn0S1XNI4iDGqMxRkMbayuTxeef0osipktHA9DS0FxFv+7Ny+Df/it/8pdk1tx0IyhX949sdYTKU1oZ750M0i6xoZaxBTvmyuUeJ1KXSF10sKztYsVt6keInzlAtx6uXi2iGUzZ4tGRpwUGQrchDjZagsgtZfUQoAgH1T2ybwO1/9r7Bj2ySS6Qye/dFPkUpnWejnjuUPmUkmElFmLkkawMj23XB5feyU3XGF76flj2hqtyoADKIGYDYAyFw+8+uE9/loR6JdSsDCLtspI1s7am0uW0bTgpfAmrsKOvmfPw0KFbGYTON7z/6IPZVF0PqbvkZL1Vd969TmNYDRkQS+8LlHMTY6gkK+iF+8+z7o9KCx/HG54B8ZZaEfyOEkHI6z/KibZfkzbAAwiHcAZgOAjPmpZp1wXt+0dimWFR1o6NSfTKWZdY3d5oDXbWwQQzN2DeprNptEvV5nZqEn3jnOnsoiSJ+0lQYA7CPTzsceeRgEBHy2Lytb/gwbAAwKNdFPCqgXypFy79J6d7vdzNhhfmGRebwPihOZsgjSt9GLag8bAGhi/gT9/qewlO3r9ttuQSQSZlm+Ll6cZU/SADoxx7WWP5dDPVuB9hFdAhuzRKzRCg8AGuqDs/FnF91OSrCzRuwjk4fD943Z2i/Z3beaQK26dgJ37biWspuhxcKLs5zHdGm7FGq8V6MD0mJJA6An064y5GNR11i1mSyqnprntR8yCT393glmEcSbhJIl0EP33cFyB5w7fxFP/em/x8yFi8oiiJP8sAHAsuXPWCLhefD+B6aikYi3Uq3g0uwsy2BEHPrk5AR7hgJ+3PiJqxEOBjSWP3yo5346fIm+GJEZaE9fmMV+zAOAhnbjvHwprWIkMQLnJqbA1NAytsuWNnabHT5vgJ2wRYX/LR8r3+ZytlN7OsmJy7iAg50k7ASYHlc72brZDmtGLSseLMlD+P233kKpK0QEfcO7d2xjBhGLqRT+8bkfM6pL5RC+PAtDBQBa3n8EX/jc5zE2Oop8Pr+c7IXMJ/funYbf70PA58W1e6cR9PvAW/70onob9QHw7Ygcwcx412a1KYoLxMf5oY0/Nj4Bl9u9Wd0UmgLLUCv8uhKF4JYJMa138DJ909tmP+uLYgTR/cZoIga328U0gx8vZRNTAKAAYN/oyAge/+yvtC9+WbavYygWiwgE/LjuE1cz23+fz4e903vg93k1lj9WAwBNKAi/H7uvuRpef4CFO3DYHCvCHpjycZIFSauxMl+9qA8667PIoEu2/0ZpADLhE/TKSnQxK5MhjqcTRUl4ZJLM6O2zTMRTmTY3S3so5nM48XZbA2jb/r/Jnu1wFy7YbTYUSyV8cOpD9lQxghQAsIvfz37m00sXv0W8//5JlEolxot++sG7GP/vdLsRHm97/PKWP1YDAP4OgD5mt6+tztPJzu8Lrkk7yHzYMnWY+V0pvyJhvagPeuvz3r9G3QHIBlCTGX+njsg0UyZDHE8nirKb0Xs6VI2R9ON6OQ9kZGB2wDtRHyqlImZPnWBOYXR3N3NxniVuouTxb/3iGEvnSs5hhw/egEhIxQji5Ti0FNBWsvwRfRj9VO1FoKg3XPZm9dns91rt0CCzoeutY7YMRf3hncKqtTrmFzOo1RuaC2EVI2h16Q0DAKya7SsSDuP2QwcRjURYnt+PPjqHSqXSle6Rj/mzuuXPWic1vR+Q0fWNUu1l+iWyhhL1QW99UR96oR160QD00kdW8xeRmVO9dfi57mVe9L6XzxpGJ//Z2QVUazVlESQhyGEAAGG2r+Rimtk+08dMqiM9+ZMCH/NHZPljdsJ0iTlcs4oRqr1MH9aiI1brg976oj70Qjvo3cT5PugFD6t5jMvM6UbqXLYkumyttJF29PyGzxpWzBfwwbvtnAG8SaiyCBpSDUAm2xcvGh4AZCx/Bj1hup4PzYp1N4t26CUDl6KDzFtJyiJIn2y3vAbQHfLh8489gtHRERQLRRw7foJ5/tKphcw+aTPhE77zMX9EH60CAH0Lzuja/aS5+L7rzRss+q3R8rBKe6J5MZsaEmUNUxZBSgPYNzk+ht/88pewbXwcmWwOP6OUcrkcgsEADly/H6FQQJPwXcbyRwHA5m85/aK5+JF2U1h6+mCk9c7mS1/cg9Vk0gtlJzNWUdYwZRGkAGDftolxfPU3voLtkxMafpAuhI8cbl8IixK+Kw1A5vNTdZQE1paA2ZSdihGkbwUOFQU0PjqKf/KFxzExPqqJGihK+C5yuuEtf1r1GiqpJFr1OovXQi77NqdLMwss8YazHXpXlfUloPfSWNSinlP5+r3SX2NYTvp6JCNDDRl1Oa9iBK0/M1t+R+LvAEKM6rkeoWBIEzdclPCdxLea0w1v+dMBg46oV9voCRBYLJdNjFGz/lKwRg29ZqNrbf4BX5DFztmsYoVAgZs19rXeux41pNfCSkPNcfk5VIyg9Wd/qADA7/Phmr17EfD7NZIRhX0WiY/n/dcXMdjG7xkZYx7FqmyMItBrOWM21SAzj3r7LNPmVq0jinHUyzwqi6D1V8tWBQCN81coEHjKZrdPe9xudgHs8WjTJWoB4LLzl8g1n6d91hcxhNQQ/1ueJpJxLuPriNrpPhkRTUW/01t6pbD0UDGiS0K9yU/MvmyUkaFMnxVN1JakiG7tBQD4GEGpdAY/+snPkM5kWRKcTpC4QqGI4x98gEJxOGMEbVUAWHb+Gh8Z8Xzm4YenYtGol2L9nDx1CqVyWagBdDt/FUp5lvJxLdpHZjNY7w6Ap4lknMv4OhoAENBNovpyfd84haXXTFNkJqg3/aHZ5oYycpPps6KJLktyNbq1FwDgYwQtLCbxn7/3PBaTKQ0AUKDHqz5+JQI+Hy4tLJa//o1vzpw5f6GCVutktdF4EsApmbke1DpbEgB43n98bAxf/uIXMTE+zkw+j77xBnL5vBAARM5femkfvQuCp4lkTEtF/RHRTb30vxcKq5cPWK8MB7G+ook2RgnKzLUocTyvAUTCIRy57WaW//v02Rn8q6e+hjPnzg9NzoAtDwAs7PNjj4GeFPb52HvvsbDPDoedRQh0OBwsAuiD9x1pZ0hyexHbtoOFfyYVPp/LtBNmc9Y+MotPbx3egkjGskjUH5ElUi/959sUUVWi8VLi8WAowhKQazQVLrOVjKxkTtMy7RhVpxcNY1jCQhgh617iC9UEieN5pzDaAw7etJ/tBcOYNWzLA0AwEMBN+/cjFAyi0WyywG9E6cSiYdx/12FQ2jiXx4ORXTvh8nhhs9vgdLlZWsFGrYby4jwoO1O3tY8Ri7u7jQ5NJGNZtFZ/VqObeu1/p00RVSWSB2Wx8iZGQdm6+KKXo5fh082YE+G4uMxcet87DIHh9MpkrfobjS8kShzPO4XRveDUNroXdA9l1rAtDwC9WP70QpsY+QFYqS0RVSXcKAUWUHqpIatRJXr7z8vHamOx0vpaqy96ZS7jFDbsWcO2EgCsGvbZ7XJj+/gY3G43szTweNrJUsj2/9FP3sOif5rBmw/KR6W3nyKqSi8A6L0c5i9LRRZQesciU19kAaV3Mxp2AFjPEkzGGkovHSSTOF4BgMxXMBh1Vg37XCoWcPK990FegV6fH1d+7Cr2jIQpQ9D1iEZCCgB0zq+IqlqtmbUukNfbFPj2+A2iF4smnUNlXt2rOfEpAJCXpAzYy1pD6aGDZBLHKwCQn0dL1xSFfc5lMnj95z9HPpuFPxDE1fv2IxAMgbyCDx7Yxy5/lAZg3tT2YkEk6lU/qTlR/xUAyK8ZGVnppcVk2uR7qJzCVp+vLUMBdQNAJ98vA4CXf4bcEgDsu+6GJQDw4+YbCAACGgAQxfmRX+6Xa5pxGbuRfmzmb0RWSaI+yTid9RMARBZQMqda0RhlT7ubOW963r1e7CaZzdpsAFCJ44cIAJjp52d/BWOjI8hm0nj5Jz9GLpNGMBTCDbccRCgcRtDvw3VXfwzBgF8DAL06fHXEbIY5pp6P0kp113OC4/sqEzepnwBAfVvNAor+rofCEtFZVpqnjfRFJnaTFQBAJY4fMgD4wuc+j7HRUWTSKbz84g8ZEATDYRy49VaEIhFg6vKgAAAgAElEQVQEfF5cu3eaAYFeyxaZD0XRSjJSWllHhjLqNwB0einTt42NenB/Jdrc9WZMM1sDUInjtyYAaCx/gn7/U7DZpimu/5FDh1h8/3wui7defwWFfA7hSASH7zyCSDQKn8+HvdN7QK7g/KnTqM1FaQAb29RkKKNenNo20qtlDcDhhCschq3LqU1vmzI0l942N6u+yDKH39BlQkDr9Y2Q0Sp4mcgkjud9g85duIh/8/Vv4PzF2S3tFTzodwDLlj9jiYTnwfsfmIpGIl6y/Pnog/dQLhXRbDRQLBaY89fY2Ci++MUnMDY+BqfbjfD4BIvQyX+QRgEATx1o1P9Wi+UOUEUsgfUoo16d2vTIXmP22qijls2i1eht/mRoLj193Oy6q1nmdJ/o1wsBrdc7Wi8AyCSO56MDZHN5vPL6UWTzeQUAm73ARO/X5vsdwWq0D//biYlxfOXLX8Lk5ISy/LHqpFqsX/2kBy02dN3dEYV0FjUkQx/p/a1Mp0UWQfxvC8Uijp84gWKpNPQAsEyzyAhXpk4VqACYQfu54SIDAHTy8PsDsDsc7FL4icc/yzQB/sM20vJnw4Ox4A/XO4mLutzPE3qvYltvjGvRg+v9VqT5iSyLeh3LZv9eFNJZ1C8Z+sgMABCFiebfVa1VMb+wgBqFgWm2TmYz2SdT6fRJo/auzZ6rzvtlKKBlmsWwThsUalUGAMjm//oDBxEMhREM+HD9vo8hFDTH8scw+VigIRkuXggAJgfOM0o8MmMU0YMyv9UAQJdMRJZFRo1ts9pZLaTzWn2RoY9W+71eCohvQxQmmq/DooQeOoBoOLSlw0SvCwD8JmvUomoBx1CvP1EFjvfSpgwAhCNR3HbkHkSiMfi8buzdsw1+n8cUy59exmK13/Zi8WLkPYqZctE7Rpkw3aL+6g3fbea4rdi2UfSRzNhEYaL53/JJorZymGgeAFalevyh0HTHukZGuFJ1Wq2T+WLxyWIud1KjdumkhroBYHXb/zBuPHiIhSQmDeC6q/awpxncrtTYB6RSLwnuBwUAZE7xIg1AL3joTeBj9WWyng+ETGwffoxr0UfrXSDrlZUoTDRZIuVyOTQaDYyNJPD4Yw9jbDRhZJ4Aw+l0mbGvRVvxALAq1cNb18i8TKZOOpMpP/uD78/MLS5q7wB0UkMy3r9Otwejk1Ms1HMiFsWnHjiCkbg2ANygbFgysjWyzkYT3A+SPNfj8UV3AHoBQG8KTyPn0ei2ZLygN+LtvBp9JGNCqnd8ojDR6VQaL77wY2TSaYyPj+HLv/5FkOGIgRqA8XS6zODX2FeXAUBE9ZBXbce6RuZdMnXm5ufxV9/5G3bJwhe91JBM/B+H04VgfJTF+Bclfx+kDUtGvmbWkdn4tpI89WZqM1P2Vmlbhn/X69glGpvMu/TKRRQmenFhAU9/9x+QXFxkG3/HYtAoADCDTpcZ+1r7qo11CoCI6onH43jovvuRiMdl3iVVZzGZxDPP/QDJZJKpW5lslj0lAWBV5y+6tLntlhsRCYVYxq9TJ06gVCzB7nDCF47C4XRiJBHHZx95EKMjcVOcv6QGP+CVZKghEd0xSNZBnWlSALBywcpqAOVKifnfaA95rRV/W+uTMEMDEIWJ5gEgkUjgsUc/jZGRBOYWFvH//e132bNJ9HU2p8ciaHm/cno80263+ykbMN3PbaAFnKxWq0/WK5UVVkw2t9P5LnVGRPVQysRIOAynU5vSr5cB1Ov15U2fwOBZAoNUShYAhM5fH544hlKpCI/bg8ntu+DxeEBcZL1ZZxm94iMJPPSZhxFPJExz/upFLoPy2/WoIRHd0W8PXiPkqQBgdSmudwdA/+71+ECZ3/jSCzXEt6M3o5wGhFptEKK9oZjP4/233kIpnwcPAE6nA9FIFE6XE6FQCLfccjNC4RDmF5Plv/jmt2fOXbgomzh+eb/y+3ye6d27pzyUlKSPpVKplE+ePj1TLJVW9NnmcTpb1BczqB6ZMfJ0kIwGIGP5w4d9pgVXrpbQajURS8TxwGc+zYCAL1uJspCRuRl1tio1pABgY6ulFycvmTcaRQ3xTmE8APB9IL+hX/viE+xe4MzMefzR1/4cZ89fkDqw8vuVKDuhzHh7qbOWU9tAAwAFe/vVxx/H+FLQt5/++Dl2gdMNANVaBc1WE/FEHPc98jADAOX81cuSWoUWEKR+HHSgFYWC2GrhHIxdDe1IqQFfcF0NYNVQ0q0m6rUqOWBpNHXqo56EMDJj0jiFpVJ4/rnnkEqlGCVdyOeZpjA6OoLHH28Hlzx3/gKe+r//PWYuXBwYACiVSjh1+jRK5TL1eZkOIvkMNABMjo/jt77y65icmGAXN89877tIJZMaAGAbfYuUnBai8Rju/OS9TBMwKuyzzCIbhjpbVQNgH4nT2d6IuGBwWymgm1nrc708ASKQqFfKSF04h3q1rLmr05sSUmZcvFNYsVTGByfPoliqIJvN4LWf/5TlEYnF4rjvoYdB96EXZy/hP3zzm5i9NDcwAEAgVqnQIbhFz8t00KADwLaJcXz1N76C7ZMTGv6O1wD4RRCJR3Hng/cgmohB0T4yn4d8na0MAB0pyIxRXmKqpojG4R21eJkbRfvwkuffVa5UcXpmAZVqjR0kf/z8M0inUojGYrjr3ocQi8cxe+kS/uO3voVLc4MDAPx4eTpIowEkYjE88tBDhlr7yCxxugT+h2eeweLal8DLN+nhaHQ6EAg8Zbdhmt1bfPZRFuNnkTSAf/wekotJ+PwBXHX1tUwT0ABALII77juCSCyKQbyQlJFnv+voCWnQD9Bdz66/F/ko2qcX6bV/y1OvTqcL0Wgc9ORLO3RzWwOwO11wx+LMcbOjARAQ8IXp9012lcna71zw8nVssLXpI5tNU4ecwhbPfIhapYRKtY4Ll5Ko1urMQvG5Z76HVCo5MABA95zNetvghcZpZ5qrXSMrIQD4PG5cNTUJv8fd+yzraKFYqeL9mYsoVaprqVTLN+mT4+OeLzz2mal4POZ1OZ2IRSNwuVxIpdP48YsvIZ3JwOvxYteOnfB6tZftlP7x4MHrWUL4QTRJ1CHWvlTVG9TMbACQ8eztRTCK9ulFeu3f8tSr2+fD9umPwe3zazf0VpNp6Iy6pY3M4WBPtqnZaUPTRrBpNluolFnQNvAmnnyjvNUQX4fopszMOdQrZCDTQrXWYE8yTvn2t/8G8/MLAwMAjVoVxeQ8mvUaA05/fBQOl3Y/FwKAx+nAzlgIXpdx5p4yy6Vcq+NsKodKXewHwN+k87QP3z5t/C++9AozL/W43Zjath1eDykOlwufCF6mb6rO2hLQS4mYDQB6+6Pmt/8S4NeAx+/HjquvgTcQ6KkjjUYT5WIVBAQiBzRRrCECgOzMeTSq2qAEly7N4S+/9deYm5sfGACoVysozF8EAQFt/IHRSVAkBL4IAcDtsGMiHAABgagQArscdtht68aQk57QXgCA3dQXydmkgVyugNffehv5fEEIAJT/96YbrgYBARuLx81OFFtZG+hQIkaOUQ/twy8EkYOYzGKR6b+UBtCiTaJtA84X2kSKxRIazYZMdzR1nA4HwqEgyGfGqGIFbUPkz8GPUaafIos7t9eLiSuuBGkC/ElfKEOidxoN4nk09VtNoFalkzs0GgAfj4i/QCYNIJ/LsLoESPnZWbZp8oUHAMohfvOttyMcjjCm4QcvvMCe4GKaieLt6DUDJfqqsUTj6F1LjXptSQOowu50tzWALnqtWC7hg1MfMosgKstWQLSl0+ZOEyoqbocDk5G1QUJvp3sBAMrac/Stt9nmTx8ufcAkQJEG4PN6MD29m6WBZItvz0723Kr3ARoTRoNCNOulffj1ILOhiNaP7BytdwdQqzeQTOdRr2s3+lw+j9ffbB8g9BaiIe+/6xDisYjen4oPW04XPEvct2GN6mxIBrBl7kVEFnftQ5gHNrtdw/WLukntVFPJZYpj+W7AZofPGwCd8tfKLNaxSmrUaigvtqkSOkRWiiVQxjARADDwCLYB3uvzY/f0VfD6A0Q3X45pJoi3oxcAatUqFhbnUKvVdM4WuwBZcQdAwMqXWq2OS4sp1JayEi4DgMzbzKCJegEAnvbh+y8CAK/Xgz27d8Dn88Lj82HHVdPw+v1b1iLIjIinm0WzGEUf0QXf/GIGBAR8Ea0lme+CjzElU1+mzmbJme+bjMxl+mlGOzLWQSI6iO8PHRirdP/ITMUvF14D4P/Oh5eXcWLVCwDVSgWzly6AgMCMQhv/YiaPOmlSvAYg8zIZmkimHb4Ocf+z2QKqTC1fPU+A6A5A9NHS5fBYPA5X130GA4btk/B43Ezt3P6xK9izVauhkkquyNVLdrOkVnUvDr1jNKo+nZhIpZOl4JweD2Lbt4OelIe4kU2TjtxTd3qhWWReLKJimrUqyvNzK1R1mTbbddonITr5J9O5lRpAoYA3f3Ec+UJR2CRvZcFXii9pALE1NAB2gelwralh820uy9mltZCRGS+dhP1+HyjHLVm/OB12RpnoLd1a12p0olEAILOuNP2xO2ALRZhvRueCl10Wc4XookKJ8oFr1zyd/Nvf+9K33XX6pyZ4AGCaissFm92GSCSKQ0fuZvlFyBT0/2UmofNSexfdSV65Zw98XcYpfJ9rtSoWF+ZBTzMK0Z9pxpi0NR5dGoAMTaS307S51tqbv5QQ+UtgEQDQBNdy6RUbOk2ge2ki6XIkMrGdXZIwaqLRNp/iS71Ww8LCBtUxvYKQqE+LcGRkDE7JTSEcCuHAgRtBT9oEokEvXGvc8Uh0ob1olhyjRPVFNItM+yIqpl6jC65ZNDdwMmrR5rdkSUKq/rKFCd8hog88AbahiApvZcHXIWqA7gDoLkBUaKP0x9qpSGVKx/FsLUpW1E4wGMCBG/YjFAyCYtrEo8ENzTt/7yKiE40CAJl1xfenUqvj4kIW1XqDgdxaTmfd9z1ElbTI6KTVgstpx0g0CLdLO3c8ALjdLkxsn4Db7UY0GsXdd96FWDSKszPn8X/+yZ8x72CZwyvNJcUnW+sAR32iWGlmHTpJFnTI6hRdACCzcHupIyNEGQDgb8NF/RHdkvP1zVbH9MrK5XZjYnwb3F3WTaJ2KIjfkcMHEY1E2AYwmojA3QcrLxHNIjNeEajLzKmo/Rad/gn4yCaabgzZpqEFe5n10EsfZNqXkY9MHTPmvZeYSDIUkMy4+Dq805be3/L1aeOfHInA49YCPw8AHq8HO3ZNwevzsm/p3rvaACATJnqzQkDLymQ5GihaLeZsZbPZ+hqpTqNVtHCyXq8/WW80NJnCRM5fejcLdkG0JBnRLTkvOFLDFhbmQQkkrFDIYWZkZBSuLtteUd9CoSBuuv460JNOp+udBGUoJibDxkpajKc4qrUa5hbSyxdNmoM22XOvIcy2BvAO6MkXugAspuZBF3i6C72QaQBiAOjYTdOTL3S69wXaF4Ds8jA9z2zZ9Ra7a3WrDJl2mLVbIc8uLFeUJa2Vd/wJBPy4/tprQJqAzLyL+sCvB56S4ilTEVXF01CXL2/rmlfRtLSds2SkoK3DO23p//XlX7CDUYw0AEkAiEZx7113IxaL4cLFS/iz/+ebuDB7iYWJzlKY6IUFzd5lczimW8BTNputryGgZWWynA9gszrK3ytUG83ybKYwU240NEa5IucvvQDQaLVQagINZkXW9pRba/WRYwldJDH7MisUG/G5TsZFyhSH3Q6/3w96so95HSsvGYqpsxF3b4I8xUEXWJcuzaLaRdfY7Tb4nMTZivvfbDRRKBVBT760gYfmQvt3GTksOw7RTiPQAKhO23NS27dAKIz9SylF6Z+ctvba0VsYTbHOehO1mctm8OrLL4GeXUJhdzqkzfCOP2TeWCrmmcmkzLyL3suvB56S4ilTEVXF01BE7pKHavd3ROsx5POwdam38E5ben/L12dz6nSsoGVEGgDFBbr/gXZcoLamuwiyrJmbmyv/26//u5kzZ891ZznclIO1rEzWzQgm29BG6/GWRbxFEN+ejPMXX1+kqhMA5BtY1gI22uet+jsZikkkW57iEFFnxH0G3E4GSJtWhACweo/C0RhuvfsBRGJxtpl63e2QBP0sfFwaLQBcprNk5K+3zzLrQdQmT0OJ6tDGHw142QZstSIEgHgCDzz4KcQTI5ouf3T6DP7wf/3fcfrMWasNZc3+rJsT2GxqqEsDwHy+xCyC6CPz+SihhB3jY6P49Sc+h4mxMc1gsrkcXnuD/ADadEH7ZGlDo15FKTnPLHg0wNBsIVOuokEu480myuWVGYsGavYM7qyQYrIBnS2PLtg77ub869sn0DF2yUk2zIurXJ7T9JAG0D7wLS29tU7Ty5oXaWAS9WXkQQDAnIlkKgPBcBj7bzmEYDjCTolEFXTHVyF6KBAMwLHGBbLc21avlc1k8CqLTKnVANhF4dLJumWzo+XxM5rLKOpStB7a1BBpcmIgZBrA9fsRCmm9fPlLTqfdjjABQJcGQPKkOF70FJ3Qe5EnWfeRNdhaij3FKPve954BPSkpTGIkBpfbhZgAAM6cPYc/euqPcfbcOeaLRJFFyTPZaqXVapEH2AxsNqap8ACwasZ6s6kh/g6AURY+L1MJA/4A9l1zLXsSp/mJfVcxTpMvpHotprKMa2b0godOZ0vBnlZROeni6Nz5i6BnoVDAsfeOoVjU7/hjtUk1rD8CionOZz67DQ5iUJacTVbsoMTtu73Mqaf9ka9iPttqwUEbcGc/7/DyogHwmzXP4/cyYA2orN8QmRjSZtQxMWSURxcDFApHcAt5ikaMcwTje8Zi1+QLK+4AyCy1Wq2xML/ZXBavvvYqexpGXQrWA6OGEmMgDUFUCByYKWpX4DbezNFhtyHgcYOefCGP25tvPczkKeLo1585cQ1G3aTyK3xBNIfFegOZTIYBRbVaxuzsGVSrFSEAzM/P4e//7jvszjBXKOKtYx8gXyj10k1TfttqtU7agCdbS/es65KZ/bzFpgurRIRM1pwIBUO46cYDCIfC4B24tB9GE8VyOwYIbfx+r3tNPrFUKuOj0+dQLlfYh3L0jdeRy+dMEfRWapTOeUEH4FjjtK6xtFlrQ1+ywDGl/iYJnQ8X3M8u0EmzXG0DLUWvfP75Z1kyE7NLL9QQTw+KKEFeniIrnV7GSBfIFxcyLPCbTCkVCzh56hjKpaIQAJKLC/j+s08jlVxEJpvHS6+/g2zOeofLbkvLdQEAwHIkThlh6a7DWR/xAEAb/2233oZImEy03Ng+NbEiuBtzGloCAJa7OBJYkbu4fWJtfySUFOH8zCwq1Y4G8C7TBPhCh1MWTrYP2hu7yFr6gEkX6ze33D1XdLqlOei+5KQDmt9uw9p3zza0lmzthWuAwtQyS5a2CqCnPs1HZclfhBx7KpTdaANxe6SoJAktgdcMmAZw22EWK8bI0tY2tJ8ou4Bd6h+d/Ok0S/8/3RP8cAkAHE4HQqHwithE1FTbXp7Eb4eDLF/YxXgLjdrKC3bRt0BWaAkd1mi8THgNQGQUsKoGwMx4bUxb2MglPIs1tBQemazULs2lmOw0ZcnRki10oomJQmb7RhkzM6dRqZYRiURw6PCdzBGML1YAgG56Z9W12BWyQgYAVqWGjFroPMXEA8BIIoFHH3kE9Ow4cHVvkDwAeP0+XHH1NHwBn6ZrZINcuHSJOf/QB0P8NGkMtMmXVrkDoDZzxcqyp5xR41ytnUqlipnzF0FPducR8MC+AYsIo/pImlciGmNej91lZRDeVd4qYx3DI6uO+gTaM+dnmazKxQI+PHEMpaLYa1coExkqSeKegL8bYHcAHE1kxHx07hu61zwLXVCrs7VMpQMGmVQSL/3w+8imk2xzuuPe+1gUS74QxRryt61uHC4XAuMTcLrdqLNvhAKiae/MRN8COyis4wwokkG3oxONs3sTIrqN5Nm+A6B3LVmx2W0I+VfeGcjIm+6mguPjcNB4K1WkL1xgT4183G4ExsfhdLlZSsrOvgGKVeTxsrsfuucJUlwgsujiikUAQEPvrCaX7qB1MgAgI98N1+EpJh4AKNnL45/7FZaHU1R4APAF/bhq/z74uy6dROFeRW0S55culDXechse3Do/5Ckp2vj9QS/o9LZZhTb+icQI83i0WuFlVchn8f5bR1Es6Kfv9FJPIjnw1kFmyEpkccTTPvx7CQB+/iMCgBTiIyN4+NHPItH17fBWNw63B+EpChPihegb6ee3ICPDXqyGZMYrqmN3OOGLJlZE1rQcAAhC6awl200HAJ5icjrsnlgoMOWw27208X/x8c9jvMvyh1E6dPpp/w9aNgdaZF3i92H33pUaADNbZBoA0UDtjDlr8TsUKyNXLDNLITNK2/+gHROmUq1gZomSopOeN+DZVBNJip3ENIAuZyhyQCouXUIyCw1m8dJfoOJlxTSA94mT1c+xMgCQoKo69vWiNRAIRZatg8xYJ8sWR0RH0Fpfit1CF7xEYdA3wBKhLCUy4UGRTv5H7rsf0Vhce8J1tE/QpAk43KQBjLNQKPw3wv+AfGAymQILHMavW55W5f9uhhw0J3Su/3rfJRovvyfwWgJRYqXkIpq1OjNscHspTIiDhZ1gzy7tNZNO4WcvvcAujpOpDL7/45eQSmdJQ9NY3ejtt676goikVgeAZYqJ6CCH0/mUDZienBjHb33517FtckLT/7b5ZvsD8Pp82LX3CvakSSKX7W4KhT6cdpq0dgyY/KVLa3py0uJmm79JlwCkgtKHR8/Ox8zS2XXuADYRklngMOfKxZ1LZ/H6S68il8kiFAnjwOFbEIqGda3NXivzsmJJrjdqwtsmwCW6s3TCENRsewibCYRtayOaE1rD9WIZrU7MrKW1SVrRqVMfMaMGMk+dnBiFx+2C0+1CdHwMTo+WymvHzFlq10YhmMmp0M7a73wjGgCoVJGdvYhGpcrWa2fd8rQq/3cJofZUhe+/3oaIvlltvJo9gbsnsLuc8MUT7J6EDo/FhQW2b5A24AlFV1BAFMM/nydv7TqLEfR//euv4dzMeQKAdWkZvWMR1RflJLA6ACz3TybzlwztIxqwXjrIqInRnGI41duM9s1oM72YwgvP/hCZZBqReBR3PngPogktv2zGe1WbbQk06w3UCyUGAHwpFIo4fvwEy4NBJpfXXLOXmUzbHHY4Az7Ye6QT+e9FRI/wfx/E+RLtCb3QQbxTmCi+mVVkJXMU6ltfZQCgfQnWjuTnC/hx5bVXwdflHyAEAI4OEtUR0kSCJMt6hcOronp/u1n1s0wDeIXTAA4i3GcNYLPGboX3UkiHRrGyImkJAcCJ9z5AsVCEP+DH3qs/3gYAonj8pA33RtPx1JD2RHxZk+ZpE6NkxZ/WjWpTpOWINAARZcSS17iJcehcUK90iFMAsMFZkwEAUmEDZO9vt8Pl9SC+axdca8TX5rsiWgR8HRFNZNRCN2Nxb1Dc0j9r1BvMEYk2ImahQXcAPZ4upV+uKrbDla9CS5aLJZw58UvQk6zgdu39GHuyBOobNZfk5K2hTzlOXHNIMuhgpNWSL99PGDX9onsO0R2AiDKqlqu4dHYGtXKFOcKNjI+vMJpQALDBWZMBAJElwwZfueJnMiqhUe9S7SgJ9CKBcrGIc++fRKVU0mS466VNofYsSJ5uxrvMoJVk6F+Z9/IyJ2u5iakpFuOfLwoA9K2K5UtgUdhn3vLH5XIgEScXcafGkkHfK8W1RSeFQaRujJKJaseaEqiUypg9fQbVUgVunwcTu3fB4zMnmrtwAxVoADIWdyKpGqVtCzV7QZ9lvnFe5uQLEYlGWYKmjm8EWfMpAND3vSx7GovCPvOWP2TueeU1H2MOX2bQKSKayIx36ROTqq0koJUA3YfVWD7bJvsWXB63ad7kIgAQbdYyFnfC+TSBVhJRPXwfZL5xXua1chULMxdQq2jpIAUAOr5UGdqnF8sfHV1RVZUElAQEEtBLjcpQLpslbBmqR6ZvIjpIAYCM9JbqKADQISxV1fIS4DVI0YlSxhhBZqAyJ1a+nV7eq9c4QrcGwJ369V4y67Xck6F6ZOSvAEBGSuvUUQBggBBVE5aRAH+HJNpoRPdMegehdyPr5b16N1m9dwAaL1zOYVPmPkAvOOkFTtG8KADQu2JXqa8AwAAhqiYsIwGR8xTfQaPoEb1UhlHvNUPYvTia6aWnjOq/AoCNS3LZ8sfpcEw7nc6nYGuHf/jNL/86Jie04R96cf7aeBfVL5UExBIQUT38ZmTKBSnXJZnTMT8C3bRMHxeAXg2AP8VrAICjkvRqSHqHWymWcP6XZIZbZr4AY5Pb4PZ4MHP+Av706/8O5y9c0CSL30ioBr190lt/szyBly1/vA6HZyISmHI77N6R0VF85lc+h9GuAHC9OH/pFYiqryQgIwER1SPajDRcvERQQpk+8DHuZerrpWVk2jSsjs47AI2nLuejwAOJUVSPaIy1chnpc+dQL5fb4bVjIyyUdLVaxdz8Ags9r0kWv4FgbYbJV9DQpgAAT/vwSeH1hrE1WziqfSUBkQRk4uQo6ZkngV4oI6N6pdH2BCGjrW4RtOkA4HO7MD05Br/bjVg8jnseegjxRILlPy0UKWl7A26XC9vG4izSoV7e06jJHrZ2zLBmMftE1s85ktIA+tmhIXuXiDLSuz/IrHPhIYCLLUYhUjyBMIsWyhcFAKtIj9cAouEw7rz1VkQjYfj9flx1VTugVTaXx9G33kYuV0AsGsK9tx9ELBpRANCnD90MaxazOdk+iYa9RuYOoJ/9Gbp3CSgjvQAgs85FsuXXAMVqapZX5hpRALAOAMSiUTx4192Ix2Ka5O/pTAYvvvQKMtksErEoHnnwLozEYwoA+vSlm2HNovfj7NNQDX2NlS1tDB2oRRvTu8Zk1rnMUEUhuxUArAMAtPE/fN/9SMRjLPn71PZJeDxu5PJ5vP7mOyzJAmkH99x+C2KRMPvuL4QAACAASURBVBweN8ITk3B69KctNIOCkAkdIeOAY0bfZBYuX0cU/VFoz64zQJjo45SRD99PK8hKKDeJpEN650V3fYlQCjJ2/VKXxhLv0sjKqAtwgVB0AwBP43BJYGRkTnl5KCsb/YeSyKNSoz+waKywtfMYz5w/j3/7p3+G8+fbFkH5bO7JVDp90ioWQZt+B0CpH3/t85/H+OjYcvJ3CmXLwj8Uiyw5O2U7Gk1EWLJyyhsciQTg7OLaZCbMDApCJnicjAOOGX2TkQlfRxT/XbTh6j3tij5OGfnw/bSCrERyk9o09U6Mzvoy5qEyzlMyZqMy7+K7L9OmzuFqqusFANGhR6YPtDex9LGNFktcHwsFljLq2eGgFJJ2B8qlIs59eBLlcgnzi8nyX3zz2zPnLlyswCIWQZsOAJTz98tf/CImxseFMiczUD/lAHDY2f9GA14maL1F7+KQaV/GCUVmozSjbzL912xk3Ilepj8y49Ju3JcTkYveK9Nnmb7JtGNUHb1yMOq9onZk5LNZ69ZsWcmMXSQ3vX2r1xtIFwgAmnA5HeyQSodV2B1weoOwOZxo1GsopRfRbNRxZuY8/uhrf46z5y+QznAM9foTVeC42ethrfb7CQDLzl8ev2fa63I9ZbNhemx0DL/6+BOgJ4VSdfu8KyIaEgB4PS72d6fdhqDfC6dDrutMk1hKZiKij/RSCjJ5hkVWCqLJ0HuSMmPR8Kczmf7oPc0Z5RglakfvPBolQ70ajOi9MrSMzG9lNsHN0lyNkpUY/NZPJiOTA5lvn6gcOnjSk9+j6o0W8sUy6s0WnA47IkE/YyhaAGotO1qUz7lRR62QRavZGHoAWHb+igS8ngNXT00FvB5vLJ7AfQ8+gng8Aa/fj11XXw1vILBiflkya/orTYad/pscAOSzWbz58mvIZXNC+kgvpcAvYpmPVooW0MmlGrV58e0YFoRL1DmjYsf3EM/dFLkJkqrrfZcMLSNqk/+tDABs1t2V3vsevTKUOQSIQKjeqCOTKaDeaGhe63I4EIsG2Smf7VHXXA2vn/aoFhpLmdrooFnIkzbQQKlQxIfvvw8KFUH7VtDjZAAy1BoAb/oZCXpx5PorEQ35EInGcdd9n0I0loAvGMTHb7wB/lBI77wL62eSKfz0uReQTaWF9JHMB9MLZWHYYFRDa0pA7zxaTZwytIwMfTHocjB7XkRy5ikdvg88vSPao2q1OlKLOVAbhVwOx984imI+r9lzFAA4nX9tA/bxABCNj+Dehx5DLD4Kb5CSvF8rneRdZqHkMpwGwNFHImpI6gSh0/pFpp+qzgYl0MfYLxvsofTPZGgZIQBw1ix6NVrpDg5wRT6RS7NWQ3lhHvQUUTrdABCLaDUAXxdLQRt/Jl0A5c8uFvL45S/eRbFQAJEVXgcYa3Fhdg7/4S//GhcvzVvGIkiORzFg4kUawMj4Njz2T/5rjExsY1Y+oxMJuDdg4ilUjRuN5TsAnj4SUUMyH4/eyyIDxKeaEEign7FfzJ4EGVpG1IdePFrNHpcV2tekcnTYECFDEoddSOlo+myzsbrLdwBeL8jzly+UtpYOlfSsVWuYm11kz1q5hIVzH4H2jGqthoVkisUIsopF0KYDwOjEdnzuN/85xianmGVPLBGCi27STS4iakhGfVYAYPLk6GheZr50NKeqblEJ8KGbZSidXsTA00GVYgHnPziOaqmoadIqdJDZALCq5U80FMCRm/chGg4iPjqBTz7xFSTGJvsKADw1ZGu14GjVQU+n14vojh1wecXJtRUA9PJ5GPtbHgB6OUFrTnPcpa4MJahO38bOqRmt1coVLJyn/L1Vdpm7HqXTSx94ACgX8jj3/jEQEHQYCNIkhgUAVrX8icYTuOfBR0EWQB6fH1PTH4fX5+8rANBtfcc8NJ/N4e1XjiKfy8Hj82L7x6bh8fuEa0ABQC+fh7G/1USF5Hhw/i0ytB5fX298GL31jZWAak1GAk6nEyPxKNxOJ9uI16N0ZNoU1em+ED7x9pvtC2G7DSFmwm4diyBTNQAR7x9NjOHeTz2B2Mg4nC4XYuMTcLndfQUAfvJ4Osjj82HHVdOMGxQVBQC9fB7G/lYUFlgLAKs7oMnMrwzFZFQ8GWMlo1rjJUDhZXbumGLxxswug2QRtPkA4HZjdNskXG4PHE4HItG2O3U/SyaVxsvPv4BsOgO314PJ3bvg9nlgVAiEfo5l2N4l43An49TGy60Xhzi979qs+eLXtlHU2WaNRfReupClKJ1otdjGv2vXDnh9YmrXqP4PkkXQpgMAUS67P34FvH4fu2XveNwZNRky7eTTGbz9s5dRyGRhs9vh8rjZ5m9UEDSZPqg6G5SAKJMU35xOJ7ueHOJ0vmuDo+75Z5qMWgZRZz13yuAGmo0GGsUKC91NG/8VV03Dtwa1a9TrB8kiaNMBgDb+K6+ehi8gplyMmhhRO/lMFsd+/nMUsjlNFWHwMuUHYPaUqPZNloAZ1JnJXdbdPB+iebP2GatbBG0OAMRHcc/DjyOWGIU34Mf0vr2bCgDFXB4n33kHpXwezUYT5VKJnRr0AgA5m1RqtbbaqYq0BCj6q8fVjvWkSn8kYMbleX96ruMtzRZsNUrSAni8Huy4cldfKCC+hwoAVvH+jcQSuOu+T4O8gP3BAD52/fXwh4I6ZtbYqqQq0qZPmz+BwMm330GpUNANAKVKBafPz6JcrRrbwS3emtftxu7tE/B5zL+g2+KilB6eGeaz0i/vU0VKJTs+NspSyRK1Sw6m/T5kKABYDQBMjv/Ty/ri6SC9GkCxVMaJM+dQKld66cLQ/dbn9WDvrh3w9+GCbuiEKxiwjHXToMuqn5Y/IlkNIwCs6/wVCkVw4OBhhMNRUwLA9bJweQAQhRkQmYEqANiY5CkT3J7tEyBNQKYoykhGSmvXEa1tq1kE6Y0eyls3KQBYf52YcQewrvOX3WaDx2lnjhFmRABdf9jiGpoLYUGgMQUAvUh45W/J+ovuAGhjlymKMpKR0jp1RGvbYhZBevMH8NZNCgDWXydyX9z67SzXkHH+oiQJ9XIeaDasDQDcuGWsJpQGoGOh9FBVUUY9CG+Vn8qs7c2ijPQ6XfL9VACw/jrpHwBwlj/NZgPVQg70DIRCuPrmmxAIh9fvbR9q8BZB5NCRzWTRqNfh9HgQn5qCy+uBKHGHAoA+TBAAGcpI0UTyc2GGM53829s1eeqGD91M31rh0iX2zfGxdPj2md39ksOXy+fD6BVXsMyCbrcbkxPjICDYrCJzB7CZYaL7BgC85U+9VsdiKot6vY5wLIqDd9+BSCy6WXOkeS9vEZRKJvHc976PZDLJLFSu2LUDPq8XogxfCgD6M4UylJGiiXTMhQnOdDrezqry1A0fupk292a9xsIs87F0+PbrjaXk7M0WQpEwDtxxCKFohDmWUmThflv+8H2TAYDNDBPdPwDgLH+qtTrmFzOo1RsMAG6/705E4jG9a8b0+vOX5vCdb/0NFubmIUM7KAAwfUqkXyAzX9KNqYqmS4CnbvjQzfyLKUpAlOL4d4WK4TN5WW0/kQEAfoz9jhLaNwBglj+3HkEoHAVpa+Vaiz3D0Qhuu/dOy2gA/GTQxv/d7/w9FhcWmIXKarbqvPMX2f9/dH4WFeUHYPqGsd4LeqGJRA59ilZaT+ob/3eehiIN4Pyp06h2mVOLAIASseQrdTRJA4hGcOtdh9nB0gpFAcBS7l+73QG/PwSH3YFAMIxrb7gFwWAIgUgY+w/dhmA0YoX50vQhl07j6Is/BcUKEn38vPMXeQAzT+CW8gTe7MnshSYSOfQpWsnEWeVoqFq9jlS6nV9XRgOw2R1wBcKwOZzwB/zYe93VzMHUCkUBwBIAsD2xSVNiQzgSw6E772UJ4QPhEPbdeiuCEWtcAvOLRhQjiK+jaB8rfGYb64OIJhLNqaKVNiZnvb8SJWcXaQB2hxO+aAIOp4sFldzs2GJ67wC2AgW0rvMXWdLQhkqXrJQQ5u4HH0EskWBmoNPXXbepoSBEC1RkEcRrA6LNQuYEqvfDGMT6vFYkkslmaU4imkhE5YnqK2rI2JXJX+ryLZObiNtpB/kR0VqiuwAbbHC6PYhPbmPPzYr5I5LAsGgA6zp/ZdNJvPyjZ5FLJzG+fQpf+e3fxfjUDtgpMbPPtyLJsrFLamOtiSyCeCpABAAyHPTGejVYv+I3U70brtkj1QtIovqKGjJ2pnizTr5lWktnZ+fYHZvL6UQiGoPL5WKWPzcdvpU9Nyvmz1ADgIzzV2phDs/9l79CenEekzt34Z/+i9/Htl27jV05JrYmsghSdMHaQuflo5dyMXE6DW1aUUOGilPYGL+WaOOfSIwwW3+rWf4MHQXEA0A8EsQn77gB8WgI4UgcB+98COQDMOgAQBZBf//tv8PC/AILW7BjvB1lkD/h8idEdSpsfwb8hapIJr1EUd0s+oj/yIdZ2zOb/hJZ2dHGPzUxyZwCrWb5w68NPjtYuVjAuffebSeIF5SBNAPlAWDH1Db83j//b7FzajscTicCwQh7DjoApBaTeOHZ55FZTKHeaCBXyKPRbLDY/x3LH34jMPvD6M+Zq/e38B+wSCa95FGwguntMN/3mH3QEVnZ+f1+XLvvWgQCActZ/vBfDZ8drJjN4b3XXkMxp008xdcfeADYvWsn/vBf/j727N6l2T0GHQD4xPHVahWziwuo1WqaMSoqoHfA0NuCssLSKzFj65u95kXzGwwEsf/6/QgFQ5az/BFJWMaqcEsBAFn+FPIZFkuHvwQexDsAPnE8AcCFuTmQC7eifYzdUPS2JqKPrEAN6R3LINY3m/7q1vCcTif75kLBIG686SYEQyHLWf4oAFjSADKpRbzywjPIZpIMBDpmoIMIAHzieNp0fnl2BuVKVROYTNE+/d/CRPSRFaih/kuj/280m/7igZw2/xGy/HE62cXvbRRDjGL+bFK2L73SHjoNILVwCc8//ddIL86BdwQbSADgEsfLWLboXRyqvrESUNSQsfK0QmuDYvkz1BoAfwmcTi3ihR98F6QJsJOC08mcONoA8AcDZQbKO4UVi2W8f+pD0CZj9iWYFT68QeyDhhpqAY1mk3KDCwsFxXJQUnobNBf7gzj2rdrnQbH8Ecm/QIfIV15FIZtlVVYLGdPv0NCGBIMTmYHmCyW8/d5HyBfL8HlcmJ6Ks+e2nbvwW7/3B9i2c3D8AHinsEIuh+OvH0UhmxPGCNqqH+GgjIunhurNJvLFCihomKhQmIGg3wOn3a4x7R2U8Q5DPwfF8kcIANkcPnjjKOgwSdQWGZF0g0C/Q0MbDgCRoBdHluL/FEpVvPvhHIrlGvxeF669YgwBnxuTOwYPAPhJleHyhuGDHJQximLL8P3n48wo+siaMzuIlj+8JMn884M33kQpnwcdUKqV6pqBI/thEdQLAKwa/yfgdePaK7ch6HOjWKnh5EwS5Up9OABAJrGGFb4trp8y3RElwKEMTXZmlWGXaaanOsI+dLVqc7Tjw9DJqk6JRJotLGsAzdZSDJm2JUm7Tn052UhHAyC/jnNzC6hW62jRfxoN9uSLsjLqaTpX/Fh4mczRd4No+bOVAWDV+D+VWh0XF/Ko1BrswyrTR9TCUACATGo9Yz+bjbXG91OmBVEKTL3tyLxLVEfUB74+bf7eYJSBUq1axfylS21fjU7KQABOlwuj4+Nwud3LdepL/hyUcYpAjaxNwrE4HC4nmvU6KvkMe/JFWRn1MpsrfysyJ+Xpu0G0/NmyACCK/8PTPvzgh4ECkkmubexns7HW9Cb4FiXm1tvOxnrb/pVMcnA+LHClUsHszAzIZ4MvdJE4MTUFj8cDmTqNeg2l9CKaDS0AKJqol9lc+VuRQ5mVs33plcCWooCGGQBEYaJdPi9Gdu+B2+dDvVpZSmat9RaWpTL0Li499fWe3K2gAdTKFSRnZlCvVDRD5cMC08nf06UB0Om+XadN+5AGEI3H2ZP+LZ1MsidPB/FaQlsDSLc1AJuN5aWldnqJX6RnrnqtOyhUlQgArJztS+/cKADYIpfAojDR5JV43S0HEAyH0Wo22aZBGz5fZKgMvQtLd32d3L0V7gBK5TI+PHOObbx84cMC04UWZYWip2hD5zd9Hgw6lFE3YBDz32rQXQCZidoQ8nvhdNjZJR6LAUV5TS1cBoWqEgGAlbN96Z12BQBbBAD4iefDRIfCYRy4/TaEI+L0ljJUht6FNQz1RZQL7xwkkoOI9pGhg/g2RRmprCz/QaGqRABg5Wxfeud9ywJAyO/BwX27EA54NZY/NhvgdbdV744fAN0FDLoZKD/xfJjoYDCI6w7cgGAoKFwbZmgAMqdRPkyFTH29i9vs+qKTrAgAyLonm82yyK0+nw9XTE/D5/drLn55qqdULOLDkydRKpXgdDgQDocZbcQXuiP2epxw0MIWFKuFA+knVdUL3SQCAIfLjcjYhCWzfeld81sWANxOB7aNxuB2OTWWP/SxkPOX3+NiIEBgYLfbthQA8GGiXS4nRkdIDi7h2jDjDkDmI+c9lmXq613cZtcXbS4iAEgmk3j2ueeQTKaQSMTxqU9+Eol4XEMN8XcDi8kknv7Hf8TiYhLxeAwP3ncf4vG4Zli1eg2pTAb1rgthvpLVPMP7Cfa90E0iAKCUsR+/4QaWMnZQYv6IvoUtCwB0YkpEgixIE194yx/+71tJA+DDRG8WRSCj5vMfmEx9szd0o9oXAcDc/Dy+/Z2/xfzCAkZHRvD4534FY6OjwtfK1BeFAecbNTs8slFyM6OdXtaVSG6BcAj7br0VwUjYjC73tU0FAEvi3lIAkErj5edfQDadAZ+0up8rS+bkxdtZy9TvZ/97eRcfIZJO9JR8iOJN8RoAf6LnT/38RbGofpN8CJacxWr1OhbSKeY8JipmhEe2Gq0kGrtezZLmwu5sswOUXW/nWILF1uJzAgciYew/dBuCUfG9Wi/rp5+/1QsA/YgLtGFPYN4MdJg1AD5MNJ+0up8LS4Z75T0tZer3s/+9vqtj4kkaKAsXTCae3B0Az+mLHMFE9cmRjDZ92vw7gLFWf80Ij2w1Wkk0fr10k8PtRmB8HPRs1WqopZJo1euoN5rIFctoNFsIRyO47d47EYlFe10mm/57vQDQj7hACgB6XBZ8XKBeVOAeu6F+DrCNv5MoXCQQvZY/MrSP2cLfqrSSyHFyKzl/8WtDLwDwvzUrLpBeAFiO/2NzOKZbwFM2m21arwYwtm0KX/pv/ntMbJ+C3eGAPxiAw+Ew+zsypX3eKaxQLOH4B6dQKJUZbZDJZtFoNEx5r6hRu92BQMA/sPLsRVg8HSRqh0JAjLBQEC7UqjUsULiILm9hCh1dLBRYCGk61ZaqFRAVtFnFDFpps8bCv5fXABqVKnIXL6JOc2GzoWGn+0QbQtEwDh45xDSBQS8UBvq9146CogmTNtkdXmSt8VkFAJbj/6DVYmBgs9m8egEgFInhpsMPIhSNIxQO4YbbbkZoQC95eKcwugf4+Ys/Qy6dQTKVWrZC6efCDYVCuOnATQiHQ/18rWXe1aGDRB0iioaoIgpgRxZZHWqHr5/L5nD09aPI5XLMpJflng1tnjzNoJWsMGH8HQAdlArpPOh7CtKecOgWhCIhZsJ75ZV74PP7rNDlnvpAaWVf+dFPkE2lWe4JioxMToUyxRIAwPP+fKf1AoA/GME11x9GIBRlqd1uv+9OROIxGTlYug5vEcRblfSz05FIBEfuvAPR6OBzpv2UG/+udDqNF1/4CTKZDJQ8+zMLjXoDxXwZzUYTkXgUdz54D6KJGDweN3bumILXS+fNwS69WAwOJACI/AD8gTCu2n8YBAR08r9pCe0HnQ7iJ3hxcRFPP/MsyL680WygWCgyOsHsQifWAzfdxDQrq5V+0lPsRMlkrp+CIw3g9aNHkc/lmQbQkeeg9N9q8y7THxvscDvdsNvsDACOEADEo6A7m8mJcQYEg1KYFVOj2aZ5KGRIqYxWs4FcJoejP3sVuUyWnfzJcZZpAFyMKdEYBxIARJ7AXn8Ie64+CF8gzNTxeCLCgnMNOh3EA0A7ds0ZlCtl8BuK2YvYbrfDT3cAduvdqfSTnspyNI5emfOAzctzUPqvd7xWqB+PxXD/PfcgFosxALj9vrsYK8AoOxc5kMpRJVYYC11iZ9IFkFZTKhZw6vhxkKc5xZlKLmYY7UgUkN/nBvkO8TGmthQA8IPhncIIAHbtvYUBAHkG+71tQQw6HcQDAG89wlMKVligm9WHftIpZsh80Pu/WfMu817eWW/Q94FarY7UYg4EBCx9LKWBzOeZVlAsV9FstjT7nowDqSU1AOo4ZV8iNSYaDMDpdLSdOEj9QTv7kstuX4oF1A4L4fO64A9EsHf/IUYBkdOO1+tiiMguf+hCeA36wso0EV3ydJzCCAAuzM2BbHllNiNebjIfjNXq0Dpg62GNODn9pKfM0Lqs3P9BWT/8nkCWf4FgEBTwbXQkgUc/8xmMjCQYLXzg9oMDZflDlGMxX2CX2LV6A+lUngFAuVDERyfeQ7lYZFZl5XKNWZTx+x4dgimTIu2B9PnQPkr/zhfLAQB1NhoKsM2f//iZDW++wJw53E47JsMBeJyOy7GAbDZEEwnc+8lHEIsnyNKLDZZZBJBaFAww01BRsTJNxDuFkVfkL8/OoFypSgEALzerbe4y/eEPAaL6/aSnzLh3sXL/B2X98HtCKBLFzYfvZNFzw9EobjtyOyLRKNweFya2jw0U70+8/psvv8boXjoAF4oVdqENOgi36sshypk5MVkUc/seyw+8lEHR5XRgNBZkcdUsDQAiyx/itxYzeRaFkTb+nbEQvF2DiY+M4OFHP4vEGrFZRJuIldVDkVOYjAbAy01mw7VaHdF6sFo/t2p/BmX98HtCNBbHnQ99mh0EKZT6TYdvZWBAJ+BYIsS4/0EpPP0ronpEY+Hru10OTI5E4HFbHAB4DYAfGBsMOUI1m3A7HJiMtDUAvhDK33HPfYjGYnA4HQiGVobeFQlLhibif9tPyoh3CssXSnjnvRMg5zD+QlJ0MuU/YGb37fGsUAP1fgx02qC0h0QPmF1E68Hs96r22xIgjTudazuvWbnQYXDXSAw+twuRWBx33f8Qy9DmDwZxzf5PsCdZ/GybGofHu3mWP0TlVMtlZsXDQoDQaX6N74hO/qQB5EkDEFA9QgDg6rsosGY0ANIEmBNiucSe5y9ewp9+4z/hwuwlUiCOoV5/ogoc73WudXkCd/sBdO4A+E64HXaMBn2gJ+P7HPYVGxlxf7Tp0+YfjcZwx733gk4DMkWGJuLb6SdlxDuFLS4s4Om/fxrJxSTzBu6YJIq4aR4AvB4PrtyzBz6vV0YkwjpkiXTqo49Q7sqi1VOja/x4tfVg1rtUu1oJ0J0bHb6sXmhNX3XlFfD7fIiSz8odh9mTkd/2dmC4SCyC2++9nZmBblYpFQo4c7zN3ROnn8rk2VNU6NtndwBLgLEa1SP6LTMXXaKG2vGm2neotGcce+84e2bzObxy9E3k8nnrAMBqAxLRPqLB90IHySyOzaKM+ExhfD9FdBAPAPRxXLN3LwJ+v8wQhXUKxSKOnziBYqnUUzvqx0oCRkmAX9uRcBhHDh9kAMDTILFEDPc/8gDiI3KHQqP6xrfDx+2p1uqYZ+ab+n1K9PaNl0M2l8PRN95gmz7/LVtGA+gMjtQIOukTeotoHyEAJBJ46DOfBQEBfzGiV3Ci+nopI1E7IipJ5PSxuLCI7/3906AnnW7opp/kQ1mqXnv19fZlEVP92iqeURoAXagz+shuZ9mtTp0+DdIETC/M+os+EDHdxA45LTrbiMugnGTNkCf7jpYMJsxoX2+bNFe06fVKIPKUJsWpuu6aaxDwBxAKBXDT9fsRDgU1AEAn/3sevg8EBLwjlVT/bW2rRHqnDHUjapPs9jsaAF2wJ9O5Ng1kchlIACC6Z4Kz9lmN9hHJLRpP4G66CEokNKZRRslZL2Ukeq+IShI5fZDn7/HjJ1Asltjm7w14mZkkBSBbnE+CbIULhQKOvXcMxWJBAwC93AGQin3l7t0shgr7eCr9CWTWqNdQzKRAT1EhNbdUq68ZWG1QuGyj1iffDmXWm4iF4e5KrGTGu2TarNbrmE1lUe3x5MtTmpFwCIcO3gx6Ms9qv48FLuQ3PjIDPXjHYWYGyjtSyfSZADTGklM5pKgbUZst5sFbAj3p4EJGLf0oAwkAemkfXpC8JQDvFNYPYet5h4hKEjl9lEplfHT6HMrlCuwOMm/1sjsPPuZJNpfF0TdeRy6f0wCAnn511zWKPtLbh3qtinxyfk0AII2nUF0bAAbFmkWvfGTqe1xO7BiJwesWpxSVaceoOuVqDecWUqjUxAlwZN4lon3432oAgLMI4h2pZN7FzCgTEWZG2U/qRqZvMnWGDgBC4Qhuvv1OkE0whYVIJNoJPcygg2QmQFRHRCUxDSBDbt9N0MXRqfeOs4sjung9PzOLSrXK6BhvwMOAgGyDy4UKO523NYB32ZNOGOl8kdEoLBxxsbRmKGmRhY9RF8h6ZcVrADReCmHc7b7fkNEASJ754tonLgm6SW//9dcnxzdH+/LSoEIn/4l4GB6ns629Vclr1HzaQdR9vRoAT2GRbPyBIJMRaaUfu4KMGnwa2oe//CTv2HKl7SRFzmHX3rgfwVBI803JiJnon3g0xExJ+0ndaMGswaz/KA4Vr+XI9F8DANksXn3tVUYb0z3e+6c+ZHSu5e4AetEAmICC7YUSikZx8Pa7mFMI7yknIziz6wippO7ATzRBS3HkyQuYsm/RHkEJrekDIT61o1byZl7tNHhtdTOXy+PoW28jly8IhyWy8OmFPupJhtymTB/8FURDrWLFtGwdIXhZ5w5gLd5Zhm7qaSwSP3Y4XfBHyIzZuNM6rRMyA6Q5ZLGk+nV/I5oLnXcAPIUVpoPdbYdBT/IRiYTbkQI0jWuewAAAIABJREFUtA9n/kgfRifnAvMDiLVNwxkQLn1TEtPCqtD7SJb9pG74vmU732+uoAE8mf7zAJBOJvHi888ik0qiVK3hzEIK5Vp9awEAL5RBoYNkJrKXOulMBi++9ApLKCMqVrbwMZuGkqGbepG/zG9p4w/GR+F0mWOrbuX5FcmHp7DIx+euex9CLB7XxL3RnpQvx8bh/25lKlhmbfDfL2/pJPNbHgBSyUW88Mx3kU4l2cZ/NpVDpX0pbw0/gM6ARJfAhOi1pbCoIp8ADQBwF8JMPWzQhaL4LEinclIrGdXAuVbLCNrKdfgThKif5CBCFj7lLguftobRtrRhGkapbWUkKmY4i5lNQ21VDYCfI7N9OGQ0xXYkzrZtvqjQv3WS8JAGMBkj/t3BTv4HD93BPHtF2jzvMKUBAC4+mJW/Uy2FddlpK5cr4PW33kY+X4BeAKA7xcVUlt0J0sn/pz/8ATLpFNv4Z7MFVFmcNYsBgMgMlDp9MUOdbkiZh8Y5k1CyfX3z7V+sSYOQSdm+q69GIBCwHGXUy8JljmNLHKJw4262UKFUhU0tQNJmz7jUZovZDh87fpw9xUBivLOYzObSi3xIt1/P5LSn9qV+bPwdAP9aM4CZb18GpN2UY3lsDO41tBwK404B3DpA0aGwKIwDu88jiybB4YzfQDUiH5DDHA9g7fu895jTFvP2Z99vUzcAkO3/a2+8zWjgfKGAd979BbsjZCa57c3fegDATx5/H8CrLTL3BLxTmAwNEgoGcdONNyIcIpOyy2Glpb7fLVpJZEUgGu4gUg1bdOr6OiwZmo4u8qe2bQeBhahQbuWJ8Qm4uxK2DMP3KPOt6dUA+H1P9G0OjAbAAwBPE/GLiaeGIsQbPtCODcKrUaLF5/dzGoDdBp/HxYBAVPTeyPf1izToZaJTiV4qia8vY5Uk032zT7UyfbByHaM0J2aBQ/b1ayRR8Xb8RbziXLtu2txHx1hWLiEAuFxIJBIgIOCL1Yw49M67rBZe6mjbSxpAsUvbNgUAWq2TNuDJVqNxsgpUAMyg/dRddNmwiXICi+4AeADgaSK+l7znsMvjxdiuK+H2+jRqlHhDt4MWcmehtzd/8ZB4z0PdkhqQH4h4SVH3iSpajUri68tYJcmIx2xeW6YPVq4jQ8vI9D8UbHvYhkLBNQ5DNnjc5DG+Nr/vcsrfAWheNiA0jkhAMvdwRMZ0KNj2wasdPI4vJgEAufbPwGajSI8nq43GkwBOyayN7jqGAICI3uEBQNQ5/rcOlxuB0Uk43eYkgNY7GRsR6Fb8jQwd9/+3d26/cRzZGT8zPTOcIWmR1MW6WJYskYKdTYK8LBAggeEE2ezDJosgeTCQ5CEPiW1kg7zEF3jXQZAAm2zWtjZZLPKQRXYf85D8KbkAQbCOJZGUdZdMybJokUPO9MwE1RTN0xQP5xS7qqe65+uXEajqqlO/qq5T9dVNk2/ITftT0sgyGs6o5xpK+4dxVedty0IjAXHLs8pBThyAJO/wmWsJN3/XNPxzJ54jMxLw8UxPT9FXk57RlI/oU2ucUxNcY9EbGo5UWrnE33QlN/E4NdKTK/lFouBKlhlOmazXnmviLEoYjXSjyQuXoJM9QImkFqmUCR4/b3MkCZrbzNPVdJiCcACSvMNnriXo/F1zfs2F+QUy2r6Phxekj/hTh1tZngnuwx5Xcbr6qPKUm3jeNdKTK/lFYu5KltGU6TjMdUkcdNLNcIp8JQ9vxDVzkzx23uZIEjS3madbGAcwHKcuhKshsC4196Gk423HYUWEK5quht7cHs2H5Lvu2UoBrniOWzw+6g8vuyzxS3VAilNTb4MYAbiqZL4/Qld2SvHwnoLp7W6vEDAOYNgKJVvbytrLc9WDS48A9t40x8NoVsXYlhEPX9YFCK5Gh1nY8ndte+hSurznbuSfn3vxQnJyaZb4NQ7ATCL34jhZ97++0abLT87/4UqJyz0BTuYAXBVe0R1AWmLaWSFg+AxboWTLEA2KnphGejLlM2xVjD7Fp0PCYWehp3+XSyj6t54OyTtzZlPm/126snVAI9vkZRu/xgF0Ox26/+BT6na7yZHx9x48THYF87lSl7uC4QBsSzGQ8JAUAimIMTcjiyQSMjpXsg/Po8YBdDY36e6922QcAT8aXdpgCwko5Frk0TbfK5pcmc57vpqt/2VaPWXLMDQ5RWN/FklEE7+PMNJiEFcTv5LN0je7uvoF/cd//jeZYyC63Q6t3F/ZGgHEMT149Dg5Gh0OwEdNKHCcvlc0uUIjrYzi8fNdo3wnc9F3k9oy9DH/YWuDbfgskohtWq7CSw2xq6Wfkp3SN9vd3KD7t65Rd3OT4v6Avuh0ydydAQfgqsQRz8gISCujUg6AnePEz1cZt9VTZZVTRlb5hIQ1UkyeNsedTVpbuUO9bidp+B/3iMx+4lAcgNmWe7pBZhQSLdRqtYtUoQXNGn9biEWfBLbN7ziEl1ZG7XYA26ukfK+eCpl5EeWUkHmm69jOZq70ZfQ7J++Oir8ZATy8e4uMIzA3D7d7g8QBJJ2h9kZyURQ/Msfl3QCaSeD5RhRdpEploRlFEydmpk43ompTs8vXtnLAAdgSCz/8fiujdjuBrXOc/K6eCplYEeWUkHly26QdudImrDzzZQ6Qu7K0mNzdYR5zwrs59tms/Dk23Up++aGZuToAfgCcNBHhChYcgCuSiAcEQIATCE324bZJG740Z6x5XwXEHUCzXqOzR+eo1ain7qh0VdXgAFyRRDwgAALSCID/fVSyz2DQp/72hi924Tu3LTgHYC75fmn+PJmGmt9S76qqwQG4Iol4QAAEpDkA/vdRyW5mwnf9sxXqx12xMx2cA+ANtOacCtsqCAdgSwzhQQAEikiAr/yRjs0P2gHwiQtXK4LgAIpYlWEzCICAhgCXfUzPf3sEUEgHwJcuuVoRBAegqUYIAwIgUEQCXPZJdrzHcbLqrZAOQDOEsS0kOABbYggPAiBQFAK8zeQ2F9IBaCYxbAuGX8phjgGYmDB3llZto0F4EAABEAiOAHcA5pa6bq+fHPvMFRR+7DPf/CU5jFyXgfIeumYZk20J8Gv5zIqj+RdeIHNLGB4QAAEQKDoB7gBMo3/n0Rp1er3ECSTO4MnmrxOHppLD3/jmr+AcADcIK4KKXjVhPwiAgG8CGtlcWvkTtAPwsSKI7zkwnrBaq1GlAjnIdyVF/CDgm0BUrVBl1yE0gwFRz5yBULLH1cqfoB2AjxVBfNdxtVanycPHKKo3SlY9kB0QGC8CpvE/NN2gKEp35szBZ6uPO6VzAq5W/gTtADRDG9tqzodCpuGfOnaSag1zMCkeEACBohKoRRWaPdSkei3tALpxnz5f3aC4V65RgKuVP4VxANLkhm2FhQOwJYbwIBA+AckBxHGfVtc6yRHIRZeDJNlHWvnDS43f/VuYSWDN8ibbqgkHYEsM4UEgfAKSAzArYcwcQNL4F1wOkmQfTee4MMtAeVWzHeZoqikcgIYSwoBAsQhIDoDnouhykKv2MOizgHw7AD4UMtr/3InnqD7RLFZth7UgAAIpAmV1AFlkH6mKcAfA5aNOr79x99HazY1eb5MGg8VOr/cmES0dpKoNvRGM3wcgHdXgyuPxDPChkNkMdmF+gSYnJw+SR7wDAiAQCIGyOoAsso/GAXD5iAa0GMfxm3Gvt9gh2iSim7T1a/0E6wB4TnBGkHW54gUQCJJAWR2Aj06wdANj1uMfdne0960o0giAD3nibodWV+6R+ZXursxSG7NsCuN28g1l/O+2toW8MU2Tr1HZL5WFLX8e3kecWewZh3c1dSzVyLCNnNI+AB4+jnv0+aN1Mr95Plm+i7FzAHzIs9mN6dZnj2gzjsXb67MUZJZNYdxOvqGM/93WtpA3pmnyNSr7pbKw5c/D+4gziz3j8K6mjnEOu+vbXjuBUw6g26XH9+9Rr9vNFWeW72LsHIC0+cvHxfFZVgRxO/mGMqnANDUu5I1pmnyNyn6pLDTMpTA+4sxizzi8q6ljnINtfbON3xVzWztTTquzSWsrd8g4R/5IRz1rbA5OAuJSDL/Rhk9Q8CNMs2SeA2rUIjo9+ww16xFF9Qk69Kx+VzDvrVSiGjUPzSXnCnH704Wxfe5QJTmlb/vSBqKdv2fpKdgOnzUVhYeR87UTatt+85vnw21zZYOPOH0wkeQF3/XBR140dWyvEYC2vtnG7yqP3AHYlgu3WbPhi9vMF7yk2r0oopMzWyeD8rZ0ZHMAXIrhjSPPsI85gHoU0dGZaarXatRoNOjY8VPUmNAdC5FenhXTxupDGvTiXY373o2j1Lhk0Qpth8+2lTvttKS3d5yZbfxZwksONbQ4s9gjvSt1GnzXBx950dWxdBO3dZjj0DUnyUv28bvJJXcAtuXCbdZs+Eo39FXaPgI6Ra1SoXpUJXM3ShAOQHNUqavhD4+nFkV05IkDqDcadMLCAfB4NENLSSbKMjy0tcFNdUYsIRGQ6o+mToaUjzLb4koitlU+NO3qWDuAqFql2WemqBZVqV5v0JGjx5Jf058wpwpWkn8Nf3pxlzYertAglieXuDShlRf6SbdlV/oVor0Or7Yd3vLR1fAckniJhG08mrR8hJHOP/GRVp5xSpKXbX3I0+ZxS0v69qVvx9RV0zaZgc3W+UVP3/ClYSg5AElKGpkEpPFUPkYAJs7tht5Arz0ZTpqRwcz0JNVqkYYzVQcDag7iPRvmnQiGzwHwxMzhhe3+gHYvWDMWtaoVip4695zPKww3O7UBZHjw1CosHtw2HkVSXoJI1+B5SSzXSPeW3UYld+Sa9cIktve3L307pkM6M206phHFvR49erxG8ZNrHrdv+NJkXWpXJSlpLB3AXiC5NKQBbXrk0xFRpNQiNXH2BgN63CNKRgHscZWWq+GkbTyavPsIY9vJ8GED4gQBTUeWtz/dOKYHjx4njsD20Zz5w+OEA3hCg0tDGuimUW5FFdKNF3bLKXv34Lr9Pn3e3qS4n3YBtmlJ9vMLozV55Gco7R4B3F01d5DudlWaWPMLI9mfxYKQZaVkBLCr47B7srQo8p1tGXEJxbxrvhntRDFPyzcf6Rvk7Y/p+X/+xVoiA9k+tt8sHAAjbDMHYNSYqm66IEmByxGShtve2KArVz8h88sf27SkSsMvjNZULGlJmW08mrR8hJHsz5JWyLKSGUG2+0RGSjRyYav69Ai1KPKdbRlxCUXKuyZO33z2+3a2258BDZJjrA/y2H6zcAAHoXyAdzQb0NbW1+mjS5dovd0+QAp4JQ8CIctKXEKUZMOiyHe2ZckllCySaVn5iJ1Cop9RHL/aIfrIlvnu8EP7w/wsINsPqYgFw73x5ESdXnzuOE1NNKg20aTZ0+eSX/6Yhv/y0iKttzeo0+nQp/c+pW7OW9izVoKyv+9DVnLFzCjG7d6WDCTJhrYyoCvbfMfDJRQzLzddj6hWMQs+ajQ9PZ1MrqZG1dUqTbQmqFqtUrfTpYcP7lPcjVNr5H3b7CN+zaiXj0IwAvBRCk/i5I3F0bkZ+uZv/CodmZuh1qFZOvfLL1NzZjaVumn079y9lzT+N2/coh/+w4/o1s1bHi1E1LYENB+YbZwuw/cHW6uIJdmwKPLdQZhsSyhGDjqcLPWOaHZ2hl55+ddoZjb9rTUnm3TuxQVqTrZo5c4d+ref/JRW7t4tvAPQdFB4JwAO4CA1TfkOH+U8e2SOXv3m1+j40cPUmpmjC6/8Jk3OHn7KAazcf5D0+peXlum9d/+Kri5fVaaGYCAAAoYAl4MOHz5Cv/2N36IjR46m4LSmJ+mlX/p5mnxmim5du04/fv99un39RuEdgEZZGdlGMCKab0TRRapUFppRNHFiZup0I6o2+coK30dB5PmJGLnnF86coOnmBB05Mke/842v0dEjh6n5zCE6+9VfoeahmZQ5puH/7OHnFMcx3bh+g37wwT/SjRs3IQflWWhIqzAEpNFYq9WkC/Pnyfyanv8rL79Cs0+NAFp07qWtEcCnd+7Qv//kp8nv4/U2/e/lZXrc3kiOkbBZgz8qcJq7f7lto3QA5tCd0w0yZxJFC7Va7SJVaIGvrPB9GFyehXTy6By9/rtfp1PHDtP07Bz94q9/nabn5qhajagxNU3VXbqkqXCm8Te/6+tt+vjjS7S+vg45KM9CQ1qFISDJHc+dOUPfeucteu7sGYqiiJ6Znk7mAvhjtP9G08wBVCg2Ha/7D5LfW9ev04++/2HyW5T5Es5Bs0x5lA7gyzKQJoS5cT6Og86zdj9//Ci9/Ue/R2dOHBNlH8keMw8AOSjP0kJaRSMgyR1n58/TX37wPr2wMG+dpU8Wl+i7b79D15aWCyMHaWSfUEYAVg6Ae7aieGM+HDtz6ji989ofkvmVZB+phnI5aGlxid59+zu0vHSw+YC99jdkWWts/VXhBRDwQMCHA7h57Rr90/c/oNvXr9MX6xv0P1eu0lo7vS/HQ1YyRSk7gL03nLY7Xbp2/2Hi4HKdBOa51IwAeGNaFD2OO62z516g977713T2/DlR9pFKnstBly9doT9948/pyuUr1hVF2uGcZbehtRF4AQQ8EPDhANbX1uiSkV7X1pP5t4sf/jD5DfmROEgbTs1y84+XlpMNp0E7gJChS7bxwsgyFOXxmwr52h9/iy5fumyNRDrjKMt5I9ZG4AUQ8EDAhwMoovQqcZCODecbToNwAEWUeoriADAC8NDyIMogCPhwAC6l17wgSZPAfATAL54KzgEUUeopigMwdmIOIK9PEenkScCHA3AlvebJQV4GuvfVs8E5gDxh+U4rNAnId34RPwiMioAPB+BKeg2NCZeDgnYAtqfZjQq0ZgRw5vw5+vbf/x2dOX8+OZp2+/IZjc2+eiIuThzU2I8wIOCDgGbTU5a5t2QO4O496nY6tLx8ld5772/o6tVPfGTFWZwaJoVxALbnWTuj6Cgi3is5deYM/dl736bnzp5NGv/Dc7NUr9dVKfnQIl2dOa7KAAKBgAcCmk1PWRyA2QD2zx/+gG7fuEFfrLXpvz5eTHYHh/xomBTGAdjeaBNawaQdwPP0+jvvJDsSTcN/7OgRajQaKpN9rEZwdeuQKgMIBAIeCGg2PWVxAGXdCBa0A9AMYYpyHDT3xsdPnaQ/eP1P6PjJU9SabNH8hQVqtVqiHOT7KAiMADy0SIgyVwKa3u6p50/TG2+9Saeef57qjQYdO3F8344X/+6uLy/T9979Dl1fvlqqncB8RVBw+wA0hVoUB8Cd2VSzSV+ZP0NTrSY9e/IU/f4br9HxU6dEOSiPw+AwB5Bre4XEHBPQdBaT0faJ40njb5zAG2/9BZnzgaSHf3e3zE7gv/1eshO4KG2OZlRkDgiv1mpJ5zPoncBSIRWlMLj9tnKQD9nH8feH6EAgGAKahk8jB/HvrohHQ2s48EIL+jA4qXbxU0I1x0JkubhDit92hZIkB9XrWxPCtdrWhLC5wclc4mF6ItsHwOFCmGDaGRgSKAGNcsDlICkbcbx1DHu3G9O9O7fpX3/8L3Tv9p3CnAY6Fg6A3xOgORhOczPOfs7m7uoadXZdzGy7QkmSg8xwrFaLkuGYucC73R+QucmpG/fowaPV5BdXQgba6sCsYAjYykGS4VtzAOZCzUFy8NtHS9dpzZyTU5D7AMbCAUhDGKlQbaFo4s+yQkl6l1/kjfN5gmlbYEjBCGT53jXffsg4bPMehASkuR0sy3xAGsrex6LuKzeZEUDSK9h5GrWITh6aMrfZpP6+2Y3p1mePaDOOxXrCL73hgYwDaPcpGQnEvR49erxG5qTOovQ+Qv4wYNv4ENDIQZwGVxT43yV1IYukLJVCcj6PuaimYmIXnsGA+r2tS6J4m6AZ/fCJX/NuP2mfBqnJ7ZEdBkdEQ28Hc+UApGNR92FO3V4v0eX5swXdSDfpv8fdDq2u3CPzu19h16MqVXe9nBTMk5cGA6Jef6vx18hc4/N5I6cgsD8BXYO4EwefU+QxSx2vLJKyZHm1XqfJuWNk1uhLT6/bofWHK9TvdlNtgsbh8XavH3dp/bMVMr+hjAC+zLN0N4ArByAdi+rqo4o7m7S2codMYbl6irjqyVXeEQ8IZCGgkURsvy9NnLY2a9ol3rZItyVK6fL4pXhGOQLw6gC4h+SeVurFp3r6ZmiWrJmtqso08dJPvKvqBUWgpIeyhwyleDUdhA0hzX+YyebdIxvrOIUXcMuYK5KIJ/U9JiPvarJoQvOk5da95V/b70uSfzX2iCOAWp0mD+8/AsjiAPgIgKsUXF0orQPgQ0KutWkKchvcfkOz9LCxn+hrZvjo6jFR7SVD2cbPh5BmRqPd25GcbOMaFh63jA0jhP8/CAFb+YVfjC7Jv7bfl6bjaJs3fka/9G4WB8DnAPg8JZe5SusAJKCaoZxmaGZb2KMKzysQX3Hkwx6sYvJBFXFqvlmJUtG/5WwOYIeKJHkF5wCa9RqdPTpHrUY96VFvz1zzArbV7/i7mt6EZnLm6SHq05PDWT5dTe9AEz+Xp7b3HKTXNmli0YUxa6kfPV5PVjN5eXbJWV7SQKQpAqqVKp6ZaUbtkgm2o/ksWRkM7JQAzShEmgTWXAQvrfzheQzOAbSaTXpp/jxNtlrJjPVe2noWB6BZzmVb6bNUUN8Vd3elTFYcuVOqUuZvzwF4ij6ZZN9eEZHlQ8W7egK2nSF9zPqQWeQXVx0pjbW2c4GqeQhhGajmInhp5U/QDsA0/F958UWampwkaXVNFgegKUjbMFmGqGUdutoy1IT3sdpKk+44hym6hJJn2dnWzyztmOYieEk+CtoByCOAndl8aePVqDZPaWQl24qYZ88rSw/LNl9Zwhs5cGP1IQ168oa7LPH7eDctY+69IkWSOmV77DY2ZskXl1BsJY4s6WZ5VyOtZIlfetd2hGq718f27t/u5gY9vHsr6UhLaQUnAUlzANKSJl4YtkBdVQKNrGSblq0MZRs/D+9Dwspij/RuJapR89BcskS3KA8fhksrUiSpU8qj7cbGLKy4hGIrcWRJN8u7KmklSwLSu5ZzVLYdVmnzF68PvLzW19fpytIitdtt8WSB4ByA7dCGl0WWIZWP+lCUOH1IWD7yXkQ5gg/DJfttpYNRcbC100cd0MRZ1nZA0zZyPvzyd9FnEf2M4vjVDtFHGrb7hdHt0tgjBr4TWJJTuCQiDbVGNQLICm7U7/uQsHzkKU9ZzJX9vK5KGxI1R4lwe0bFwVbicMXQNp6ytgOaiV8uf7U3Nmjp6lXa2NwUEQY3ApDklJQkIgy1bIdUthWrrOF9SFg+WOUpizmzn9VVaUOi5jBBbs/IOFhKHM4YWkZU1nZAs/STy1/mwLvNzc19N6gG5wAsyxrBQaCQBPjHXFbJopAFE7DRGqnWti7BAQRc4DCtvAS47FZWyaK8pTeanGmkWtu6BAcwmrJEqmNOgMtuZZUsxryInWdfI9Xa1iU4AOfFhAhBAARAoBgE4ACKUU57WoleZIELD6aDQAAE4AACKISDmgAd+aDk8B4IgIAhAAdQ4HqAlSQFLjyYDgIBEIADCKAQDmoCdwD8jlPbiaCDpo/3QAAEik0ADqDA5ccdgNn00e3hQvkCFydMB4HcCcAB5I7cXYLSxhDbzSDuLEJMIAACRSIAB1Ck0tplq7QxRLMZZDAYbBDRTapU5INC8mQzGEwQ0elKpdLMN9nAOOSZ+RDSGlG5h5D1EGyAAwihFA5og7QxRDMHMBgMFitEbw56vcUDJu/0tUoULQyILlYqlQWnEQ+JLDQOeeY9hLRGVe4h5D0EG+AAQiiFEdjgsuBdmM9PhHURnzaO0Dho7S5LuFGVe1n4Zc2Hy/rv5DjorBkap/czyTiDwWKn13uTiJYCYTbfiKKLlPMIgMLjEEhx5GbGaMrdR/YKKGfBAfioCDnFmUW+6BAZ7f8mbf2G8CRzAA0i85vbEyCH3PIeSEIjKXcfeS+inAUH4KMm5BSny8LLyWQkAwKlJVBEOctlGzJWElAm+cXVJwD5whVJxAMCmQkUxQGk2i6Hbci4OYCRr6KBfJH5m0UEIOCMQIEcwJdtl8s2ZLwcgMPLlJ3VQEQEAiAwMgKFcQCe2q7SOwBfQ6eR1VgkDAIg4IwAHMABURYGHNs85XLodEBseA0EQCAgAoVpxzACOFitcTljfjAL8BYIgECoBOAADl4yO5tBAttMAdnn4IWKN0FgzAgE247xcvDVkT3wHABtbf5JNgGFtpmCb7aC7DNmnzOyCwJ2BIJtx0J3AF/aF9owype3tKtXCA0CIFAkAqG1Y4VxAEQU1tkgDjdKFKkCw1YQAIFMBIa3Y57lbnGzqqc2LYsExEkHdTYIZJ9MHwFeBoFxJTC0HfMtd0tnhflq01w5gHGtMMg3CIDAGBHwLRPlLV/DAYxR5UVWQQAEMhMYLhNlScKT1COZBAeQpbDwLgiAwLgRGCoTZQHiS+qBA8hSKngXBEAABEpIACOAEhYqsgQCIAACGgJwABpKCAMCIAACJSQAB1DCQkWWQAAEQEBDAA5AQwlhQAAEQKCEBOAASlioyBIIgAAIaAjAAWgoIQwIgAAIlJAAHEAJCxVZAgEQAAENATgADSWEAQEQAIESEoADKGGhIksgAAIgoCEAB6ChhDAgAAIgUEICcAAlLFRkCQRAAAQ0BOAANJQQBgRAAARKSAAOoISFiiyBAAiAgIYAHICGEsKAAAiAQAkJwAGUsFCRJRAAARDQEIAD0FBCGBAAARAoIQE4gBIWKrIEAiAAAhoCcAAaSggDAiAAAiUkAAdQwkJFlkAABEBAQwAOQEMJYUAABECghATgAEpYqMgSCIAACGgIwAFoKCEMCIAACJSQABxACQsVWQIBEAABDQE4AA0lhAEBEACBEhKAAyhhoSJLIAACIKAhAAegoYQwIAACIFBCAnAAJSxUZAkEQAAENATgADSUEAYEQAAESkgADqCEhYosgQC88GcqAAAAl0lEQVQIgICGAByAhhLCgAAIgEAJCcABlLBQkSUQAAEQ0BCAA9BQQhgQAAEQKCEBOIASFiqyBAIgAAIaAnAAGkoIAwIgAAIlJAAHUMJCRZZAAARAQEMADkBDCWFAAARAoIQE4ABKWKjIEgiAAAhoCMABaCghDAiAAAiUkAAcQAkLFVkCARAAAQ0BOAANJYQBARAAgRIS+H+8orWvacJm3gAAAABJRU5ErkJggg==;" parent="1" vertex="1">
          <mxGeometry x="532" y="444" width="38" height="38" as="geometry" />
        </mxCell>
        <mxCell id="W98CiXohFAIM3c5sPNTf-51" value="" style="endArrow=classic;html=1;rounded=0;" parent="1" edge="1">
          <mxGeometry width="50" height="50" relative="1" as="geometry">
            <mxPoint x="550" y="579" as="sourcePoint" />
            <mxPoint x="600" y="559" as="targetPoint" />
          </mxGeometry>
        </mxCell>
        <mxCell id="W98CiXohFAIM3c5sPNTf-52" value="" style="shape=image;aspect=fixed;image=data:image/png,iVBORw0KGgoAAAANSUhEUgAAAEAAAABACAYAAACqaXHeAAAIe0lEQVR4nO1aS2wWVRQ+8z9KC21pa8FUMEYwpSFqAEmEhgRRMEKkQQFDQQKGuHDHwoUsTFiY4E53LtDERJ6JQQlgQpWIERFMwCILqInEag2xUMqj2Pc/zndnzp0zr3+GR5km/Adu7sw/d+495zvPe6c5esgplzYDaVMJgLQZSJtKAKTNQNpUAiBtBtKmEgBpM5A2lQBIm4G0abwDYBqGQaZpGmO1wHgHgObMmUPt7e3mWIEw7gEYaxrXAMD8Le2P6RqxAFhMmEkmskz03rkJmTOTyVChUFC3RYbetXvEAWBOmTKFuru7lTb0as4190mFvxuQHOE1VVVVUTabVWv39vbqqX2vJQYkCgAl+PDwsLrBgtAEGhbmngHAODQ/s/eDstkckKbREZsXrJ3L5Sifz9O0adPUmqOjo6q/evWq5t/pY4GItAAn/ah+woQJakEJBI/BwujBxIstGxIJdezgLnrh1fXqvbwlDOYzwbNpW4n6VzDp3Onj1H35L/VO65attPezj9U74AP8AAgQ1kZraGigkZERdX3t2rVEQIQBYM6YMYNu3bqlTba8vFw1v+Z5cWh/5uy5SjC8s3TVxuCkEMxqBUuwsrIygbT1P2NZlZHRXB7e/6nqsd6md961BM3T4NAQLVmxhs7+9K39mgMEegABRaABALSpU6eqXgCRt9pILACNjY1KIGZYmhwW9Aslzf65RS/TmRNt9MORffRM83IqmAUChl0XTlsaHdXjJk6cSO0nvrE171gZgByyhBwcHKTGp+fR4082UVV1NY1agIHJnDX2kfpHPWDiHfAFYutED34hPOSor69X19evXx92IY8AwPIhs7m5WS+gleT4fVFyxi9e8QadOnaQ/jx/QlkNGJpYUa6esa+iseBgVrrSvOalNiAjA9ZvlS7AsDzLUvr6+rQFYQ4IxwQweF4GAw2g1tTUAIQA2wEL2Lt3L61evdoDAqcivwV4CG6hXMOgRa+spd9OHvVYDTPGwVLOh3FsvhrPgu0uNlgFNTXcRIKI93leEN5nF8U6AIrv0RwQTBJWEBoEWXi027dv06RJkyLl9qQ2dZ08JbIlSK39+vMxmrvwJXuMEwxtfN3YI90TbuOJKQ7B+tjC2FXQ+8kDAPwFMUAyycHmfhDHEyk0N6lJkDJ9zggaIBcAPP/j/f16fNOHb6oetcHkyZPVNc9dWVmp3kHf09OjpiDHCmItQDKfiIzwjOMvnljjMrP4M0zByRpgI6NdzOWPnpilx158b5e+/leAgnGcLqHI2tpaWUBF1wFSS37tRLzg9HHD3MzBkZvJD4BHEXhm/Vu+9i062XYgWFUKMJgkKAu2r6EuK0b4FZnIAv7ZdTE4qLNDX9ZsXRqpeTknBzr0HKXZAgJVpLO2JxtZLlCWdzOA4iFEcE3i2antX7q/b56vLyMBiKXIhYOM8z1XbCBOUcUsy68IzgT8bNYOt/Ls2LY7MRiSYl0AGmpY30iXdxyKntx+IRI4WbhI7ftN3nOvXM+xHE7HqBYz4YBJMCTFARO7HeYM0LBtZeSYfrJTluEw7Sepfc4qDIBbIhdCrUb9LlJh4mDsUBgwHeI6URBMQgZ5o7x/Hr/2QVzQcGP30OuyC5B0gft7MlY0BoAJBC0wXMwFdBBUzAVNwO/7XPvLxkLr/G/aYqtUOMrVoBHpAlEU6gJLqooDwMSMXt7ze/xK8NeQ8wC5X2fr8AvOPZs3VymmHQRchZAbI/yWFhsEIygWgEgX6OwI/GQ4ewEmFlr6t9wM8Tu8KwTZlkD6uiCrQRROgp87EjqEX1AsAFj4sQ2zQrfDrMU+knJ70yAHMs7zsu6Xgss1DQrGETHAVUyc8EJoLoT6+/up504BiKsLbFPVbwXm4GIHJLepcjvLYOiqL2B59v2enR+pcjaQDUI0zPsDlMK3rA1dtbO5k1T0SEwLl4QMcqJ18BwB1uMHAMRbY06NMhiCso6VqPwv8NAWIIT2b4bsgJnxKBHzy31AUQB4IemrRcmkgOkyo9CAdB/WPNcFOedckMtkJXzW2jnmc1bpm6d8Gbufd2v81AfrdFbBEV5FRQVVV1d71uEe8165ckWzFgoATlU7OzuppaXFI7SM4MUxCBYyYft4mQH4CEvWCrblZGmCtc+vqCinivIydXg6PDLqAUCOx/7fvy56nBegDQwMhJ5ax7oAzuFZW7ytLCY8ewynP05vUhteQd3NENrzi5dr88V6AAEbIIwbduKFrAjDCi8848Na8I4jMedcMB6A1tZWz8TQkDyqKkZ2niZ1KIqjdH5f5m65HeZ7PsmVJzY4/NAZRBVDEMgFQL6PhlMhHs+C8/cKXN+4ccNlMwqA+vp6VX9Mnz49cDrDjEbt4Owa0KTjR/bTwmWr7fytDzTs9nfHWfqvr9cRMEOz5y+myupadc8WcvzwHrXeslUbLY0PW9ob0nMP4FqkQbmf4PjBYEpQb968GSp8AICAUIb75YejNx88sgninsvWMz+2hX4TYKpbsET13x/aQ0tWbnA+ihi28zhFz7LXNqnrowc+V2NXrntbfRPAoK92f6IONhkwtkxZWbLQAENoPVT4KACMrq4uE7mWF0IAwaRhn8cYdYBTTHhJtqnbAqtPr47PZwWXK9ZuUcAf2rdT3b/8+mbVc2xBYJOxg4UO8fOi0TvKAgwrX5p1dXXqhv3If3bHwQ3PLp77hS60n04EAOi7r79IPBbU5lgE1gM/cucYFtwo4QfSYi5g4LOS1dwaL+b05kEQ8n0M3dF2MckfSLhV/gMSUlDcgs9a7fy9LDCu/0IE1NTURB0dHQD/4fsboZkzZ+qPn2NF4xoABLdLly6NmfZB4xqAnp6eMROcaVwD8CCoBEDaDKRNJQDSZiBtKgGQNgNpUwmAtBlIm0oApM1A2vQ/1UjaXVAAuskAAAAASUVORK5CYII=;direction=north;" parent="1" vertex="1">
          <mxGeometry x="593.5" y="514" width="38" height="38" as="geometry" />
        </mxCell>
        <mxCell id="W98CiXohFAIM3c5sPNTf-53" value="" style="endArrow=classic;html=1;rounded=0;exitX=1;exitY=0.5;exitDx=0;exitDy=0;" parent="1" source="W98CiXohFAIM3c5sPNTf-52" edge="1">
          <mxGeometry width="50" height="50" relative="1" as="geometry">
            <mxPoint x="610" y="499" as="sourcePoint" />
            <mxPoint x="560" y="419" as="targetPoint" />
            <Array as="points">
              <mxPoint x="613" y="439" />
            </Array>
          </mxGeometry>
        </mxCell>
        <mxCell id="W98CiXohFAIM3c5sPNTf-54" value="" style="shape=image;aspect=fixed;image=data:image/png,iVBORw0KGgoAAAANSUhEUgAAAEAAAABACAYAAACqaXHeAAAIe0lEQVR4nO1aS2wWVRQ+8z9KC21pa8FUMEYwpSFqAEmEhgRRMEKkQQFDQQKGuHDHwoUsTFiY4E53LtDERJ6JQQlgQpWIERFMwCILqInEag2xUMqj2Pc/zndnzp0zr3+GR5km/Adu7sw/d+495zvPe6c5esgplzYDaVMJgLQZSJtKAKTNQNpUAiBtBtKmEgBpM5A2lQBIm4G0abwDYBqGQaZpGmO1wHgHgObMmUPt7e3mWIEw7gEYaxrXAMD8Le2P6RqxAFhMmEkmskz03rkJmTOTyVChUFC3RYbetXvEAWBOmTKFuru7lTb0as4190mFvxuQHOE1VVVVUTabVWv39vbqqX2vJQYkCgAl+PDwsLrBgtAEGhbmngHAODQ/s/eDstkckKbREZsXrJ3L5Sifz9O0adPUmqOjo6q/evWq5t/pY4GItAAn/ah+woQJakEJBI/BwujBxIstGxIJdezgLnrh1fXqvbwlDOYzwbNpW4n6VzDp3Onj1H35L/VO65attPezj9U74AP8AAgQ1kZraGigkZERdX3t2rVEQIQBYM6YMYNu3bqlTba8vFw1v+Z5cWh/5uy5SjC8s3TVxuCkEMxqBUuwsrIygbT1P2NZlZHRXB7e/6nqsd6md961BM3T4NAQLVmxhs7+9K39mgMEegABRaABALSpU6eqXgCRt9pILACNjY1KIGZYmhwW9Aslzf65RS/TmRNt9MORffRM83IqmAUChl0XTlsaHdXjJk6cSO0nvrE171gZgByyhBwcHKTGp+fR4082UVV1NY1agIHJnDX2kfpHPWDiHfAFYutED34hPOSor69X19evXx92IY8AwPIhs7m5WS+gleT4fVFyxi9e8QadOnaQ/jx/QlkNGJpYUa6esa+iseBgVrrSvOalNiAjA9ZvlS7AsDzLUvr6+rQFYQ4IxwQweF4GAw2g1tTUAIQA2wEL2Lt3L61evdoDAqcivwV4CG6hXMOgRa+spd9OHvVYDTPGwVLOh3FsvhrPgu0uNlgFNTXcRIKI93leEN5nF8U6AIrv0RwQTBJWEBoEWXi027dv06RJkyLl9qQ2dZ08JbIlSK39+vMxmrvwJXuMEwxtfN3YI90TbuOJKQ7B+tjC2FXQ+8kDAPwFMUAyycHmfhDHEyk0N6lJkDJ9zggaIBcAPP/j/f16fNOHb6oetcHkyZPVNc9dWVmp3kHf09OjpiDHCmItQDKfiIzwjOMvnljjMrP4M0zByRpgI6NdzOWPnpilx158b5e+/leAgnGcLqHI2tpaWUBF1wFSS37tRLzg9HHD3MzBkZvJD4BHEXhm/Vu+9i062XYgWFUKMJgkKAu2r6EuK0b4FZnIAv7ZdTE4qLNDX9ZsXRqpeTknBzr0HKXZAgJVpLO2JxtZLlCWdzOA4iFEcE3i2antX7q/b56vLyMBiKXIhYOM8z1XbCBOUcUsy68IzgT8bNYOt/Ls2LY7MRiSYl0AGmpY30iXdxyKntx+IRI4WbhI7ftN3nOvXM+xHE7HqBYz4YBJMCTFARO7HeYM0LBtZeSYfrJTluEw7Sepfc4qDIBbIhdCrUb9LlJh4mDsUBgwHeI6URBMQgZ5o7x/Hr/2QVzQcGP30OuyC5B0gft7MlY0BoAJBC0wXMwFdBBUzAVNwO/7XPvLxkLr/G/aYqtUOMrVoBHpAlEU6gJLqooDwMSMXt7ze/xK8NeQ8wC5X2fr8AvOPZs3VymmHQRchZAbI/yWFhsEIygWgEgX6OwI/GQ4ewEmFlr6t9wM8Tu8KwTZlkD6uiCrQRROgp87EjqEX1AsAFj4sQ2zQrfDrMU+knJ70yAHMs7zsu6Xgss1DQrGETHAVUyc8EJoLoT6+/up504BiKsLbFPVbwXm4GIHJLepcjvLYOiqL2B59v2enR+pcjaQDUI0zPsDlMK3rA1dtbO5k1T0SEwLl4QMcqJ18BwB1uMHAMRbY06NMhiCso6VqPwv8NAWIIT2b4bsgJnxKBHzy31AUQB4IemrRcmkgOkyo9CAdB/WPNcFOedckMtkJXzW2jnmc1bpm6d8Gbufd2v81AfrdFbBEV5FRQVVV1d71uEe8165ckWzFgoATlU7OzuppaXFI7SM4MUxCBYyYft4mQH4CEvWCrblZGmCtc+vqCinivIydXg6PDLqAUCOx/7fvy56nBegDQwMhJ5ax7oAzuFZW7ytLCY8ewynP05vUhteQd3NENrzi5dr88V6AAEbIIwbduKFrAjDCi8848Na8I4jMedcMB6A1tZWz8TQkDyqKkZ2niZ1KIqjdH5f5m65HeZ7PsmVJzY4/NAZRBVDEMgFQL6PhlMhHs+C8/cKXN+4ccNlMwqA+vp6VX9Mnz49cDrDjEbt4Owa0KTjR/bTwmWr7fytDzTs9nfHWfqvr9cRMEOz5y+myupadc8WcvzwHrXeslUbLY0PW9ob0nMP4FqkQbmf4PjBYEpQb968GSp8AICAUIb75YejNx88sgninsvWMz+2hX4TYKpbsET13x/aQ0tWbnA+ihi28zhFz7LXNqnrowc+V2NXrntbfRPAoK92f6IONhkwtkxZWbLQAENoPVT4KACMrq4uE7mWF0IAwaRhn8cYdYBTTHhJtqnbAqtPr47PZwWXK9ZuUcAf2rdT3b/8+mbVc2xBYJOxg4UO8fOi0TvKAgwrX5p1dXXqhv3If3bHwQ3PLp77hS60n04EAOi7r79IPBbU5lgE1gM/cucYFtwo4QfSYi5g4LOS1dwaL+b05kEQ8n0M3dF2MckfSLhV/gMSUlDcgs9a7fy9LDCu/0IE1NTURB0dHQD/4fsboZkzZ+qPn2NF4xoABLdLly6NmfZB4xqAnp6eMROcaVwD8CCoBEDaDKRNJQDSZiBtKgGQNgNpUwmAtBlIm0oApM1A2vQ/1UjaXVAAuskAAAAASUVORK5CYII=;direction=north;" parent="1" vertex="1">
          <mxGeometry x="532" y="376" width="38" height="38" as="geometry" />
        </mxCell>
        <mxCell id="W98CiXohFAIM3c5sPNTf-56" value="Background" style="text;html=1;strokeColor=none;fillColor=none;align=center;verticalAlign=middle;whiteSpace=wrap;rounded=0;direction=east;rotation=270;fontSize=60;" parent="1" vertex="1">
          <mxGeometry x="175" y="369" width="350" height="120" as="geometry" />
        </mxCell>
        <mxCell id="W98CiXohFAIM3c5sPNTf-57" value="Background" style="text;html=1;strokeColor=none;fillColor=none;align=center;verticalAlign=middle;whiteSpace=wrap;rounded=0;direction=east;rotation=90;fontSize=60;" parent="1" vertex="1">
          <mxGeometry x="645" y="369" width="350" height="120" as="geometry" />
        </mxCell>
        <mxCell id="W98CiXohFAIM3c5sPNTf-122" value="Note:" style="text;html=1;align=center;verticalAlign=middle;resizable=0;points=[];autosize=1;strokeColor=none;fillColor=none;" parent="1" vertex="1">
          <mxGeometry x="745" y="659" width="50" height="30" as="geometry" />
        </mxCell>
        <mxCell id="W98CiXohFAIM3c5sPNTf-123" value="O" style="rounded=0;whiteSpace=wrap;html=1;" parent="1" vertex="1">
          <mxGeometry x="797.5" y="661.5" width="25" height="25" as="geometry" />
        </mxCell>
        <mxCell id="W98CiXohFAIM3c5sPNTf-125" value="is an" style="text;html=1;align=center;verticalAlign=middle;resizable=0;points=[];autosize=1;strokeColor=none;fillColor=none;" parent="1" vertex="1">
          <mxGeometry x="825" y="659" width="50" height="30" as="geometry" />
        </mxCell>
        <mxCell id="W98CiXohFAIM3c5sPNTf-126" value="Obstacle" style="rounded=0;whiteSpace=wrap;html=1;" parent="1" vertex="1">
          <mxGeometry x="880" y="661.5" width="60" height="25" as="geometry" />
        </mxCell>
        <mxCell id="xKcqxF1kkp_vLDsg5dkL-1" value="Traffic Evader" style="text;html=1;align=center;verticalAlign=middle;resizable=0;points=[];autosize=1;strokeColor=none;fillColor=none;fontStyle=1;fontSize=36;" parent="1" vertex="1">
          <mxGeometry x="455" y="138" width="260" height="60" as="geometry" />
        </mxCell>
      </root>
    </mxGraphModel>
  </diagram>
  <diagram id="7RE1Ifv9QiQU5kwrWXtg" name="viewmanager">
    <mxGraphModel dx="2074" dy="1118" grid="1" gridSize="10" guides="1" tooltips="1" connect="1" arrows="1" fold="1" page="1" pageScale="1" pageWidth="1169" pageHeight="827" math="0" shadow="0">
      <root>
        <mxCell id="0" />
        <mxCell id="1" parent="0" />
        <mxCell id="PFWxInklB34-DdwJSnIA-1" value="ViewManager" style="swimlane;fontStyle=1;align=center;verticalAlign=top;childLayout=stackLayout;horizontal=1;startSize=26;horizontalStack=0;resizeParent=1;resizeParentMax=0;resizeLast=0;collapsible=1;marginBottom=0;whiteSpace=wrap;html=1;" parent="1" vertex="1">
          <mxGeometry x="385" y="358" width="160" height="112" as="geometry" />
        </mxCell>
        <mxCell id="PFWxInklB34-DdwJSnIA-2" value="+ state: dict" style="text;strokeColor=none;fillColor=none;align=left;verticalAlign=top;spacingLeft=4;spacingRight=4;overflow=hidden;rotatable=0;points=[[0,0.5],[1,0.5]];portConstraint=eastwest;whiteSpace=wrap;html=1;" parent="PFWxInklB34-DdwJSnIA-1" vertex="1">
          <mxGeometry y="26" width="160" height="26" as="geometry" />
        </mxCell>
        <mxCell id="PFWxInklB34-DdwJSnIA-3" value="+ views: dict" style="text;strokeColor=none;fillColor=none;align=left;verticalAlign=top;spacingLeft=4;spacingRight=4;overflow=hidden;rotatable=0;points=[[0,0.5],[1,0.5]];portConstraint=eastwest;whiteSpace=wrap;html=1;" parent="PFWxInklB34-DdwJSnIA-1" vertex="1">
          <mxGeometry y="52" width="160" height="26" as="geometry" />
        </mxCell>
        <mxCell id="PFWxInklB34-DdwJSnIA-4" value="" style="line;strokeWidth=1;fillColor=none;align=left;verticalAlign=middle;spacingTop=-1;spacingLeft=3;spacingRight=3;rotatable=0;labelPosition=right;points=[];portConstraint=eastwest;strokeColor=inherit;" parent="PFWxInklB34-DdwJSnIA-1" vertex="1">
          <mxGeometry y="78" width="160" height="8" as="geometry" />
        </mxCell>
        <mxCell id="PFWxInklB34-DdwJSnIA-5" value="+ show_view(view): None" style="text;strokeColor=none;fillColor=none;align=left;verticalAlign=top;spacingLeft=4;spacingRight=4;overflow=hidden;rotatable=0;points=[[0,0.5],[1,0.5]];portConstraint=eastwest;whiteSpace=wrap;html=1;" parent="PFWxInklB34-DdwJSnIA-1" vertex="1">
          <mxGeometry y="86" width="160" height="26" as="geometry" />
        </mxCell>
        <mxCell id="PFWxInklB34-DdwJSnIA-6" value="&lt;font style=&quot;font-size: 12px;&quot;&gt;Stores initial state and all possible views. show_view is recursive until there&#39;s no new view to show.&lt;/font&gt;" style="shape=note;whiteSpace=wrap;html=1;backgroundOutline=1;darkOpacity=0.05;align=center;verticalAlign=middle;size=16;" parent="1" vertex="1">
          <mxGeometry x="595" y="371" width="190" height="86" as="geometry" />
        </mxCell>
        <mxCell id="PFWxInklB34-DdwJSnIA-22" value="viewmanager" style="shape=folder;fontStyle=1;spacingTop=10;tabWidth=40;tabHeight=14;tabPosition=left;html=1;whiteSpace=wrap;" parent="1" vertex="1">
          <mxGeometry x="540" y="220" width="90" height="58" as="geometry" />
        </mxCell>
        <mxCell id="PFWxInklB34-DdwJSnIA-25" style="edgeStyle=orthogonalEdgeStyle;rounded=0;orthogonalLoop=1;jettySize=auto;html=1;exitX=0;exitY=0.5;exitDx=0;exitDy=0;exitPerimeter=0;entryX=1.001;entryY=0.164;entryDx=0;entryDy=0;entryPerimeter=0;endArrow=none;endFill=0;" parent="1" source="PFWxInklB34-DdwJSnIA-6" target="PFWxInklB34-DdwJSnIA-3" edge="1">
          <mxGeometry relative="1" as="geometry" />
        </mxCell>
        <mxCell id="ZLhDFFrEBOacGdW5On8A-1" value="views" style="shape=folder;fontStyle=1;spacingTop=10;tabWidth=40;tabHeight=14;tabPosition=left;html=1;whiteSpace=wrap;" parent="1" vertex="1">
          <mxGeometry x="550" y="100" width="70" height="50" as="geometry" />
        </mxCell>
        <mxCell id="ZLhDFFrEBOacGdW5On8A-2" value="" style="endArrow=open;endSize=12;dashed=1;html=1;rounded=0;exitX=0.5;exitY=0.241;exitDx=0;exitDy=0;exitPerimeter=0;entryX=0.5;entryY=1;entryDx=0;entryDy=0;entryPerimeter=0;" parent="1" source="PFWxInklB34-DdwJSnIA-22" target="ZLhDFFrEBOacGdW5On8A-1" edge="1">
          <mxGeometry width="160" relative="1" as="geometry">
            <mxPoint x="320" y="210" as="sourcePoint" />
            <mxPoint x="480" y="210" as="targetPoint" />
          </mxGeometry>
        </mxCell>
      </root>
    </mxGraphModel>
  </diagram>
  <diagram id="JnMMyP2pREWsWZx4z_Fo" name="storage">
    <mxGraphModel dx="905" dy="-1363" grid="1" gridSize="10" guides="1" tooltips="1" connect="1" arrows="1" fold="1" page="1" pageScale="1" pageWidth="1169" pageHeight="827" math="0" shadow="0">
      <root>
        <mxCell id="0" />
        <mxCell id="1" parent="0" />
        <mxCell id="T4ZwaOSgcQxW9HqCYSxv-1" value="Fonts" style="swimlane;fontStyle=1;align=center;verticalAlign=top;childLayout=stackLayout;horizontal=1;startSize=26;horizontalStack=0;resizeParent=1;resizeParentMax=0;resizeLast=0;collapsible=1;marginBottom=0;whiteSpace=wrap;html=1;" parent="1" vertex="1">
          <mxGeometry x="1564" y="2877" width="160" height="104" as="geometry" />
        </mxCell>
        <mxCell id="T4ZwaOSgcQxW9HqCYSxv-2" value="+ title: pygame.Font" style="text;strokeColor=none;fillColor=none;align=left;verticalAlign=top;spacingLeft=4;spacingRight=4;overflow=hidden;rotatable=0;points=[[0,0.5],[1,0.5]];portConstraint=eastwest;whiteSpace=wrap;html=1;" parent="T4ZwaOSgcQxW9HqCYSxv-1" vertex="1">
          <mxGeometry y="26" width="160" height="26" as="geometry" />
        </mxCell>
        <mxCell id="T4ZwaOSgcQxW9HqCYSxv-3" value="+ score: pygame.Font" style="text;strokeColor=none;fillColor=none;align=left;verticalAlign=top;spacingLeft=4;spacingRight=4;overflow=hidden;rotatable=0;points=[[0,0.5],[1,0.5]];portConstraint=eastwest;whiteSpace=wrap;html=1;" parent="T4ZwaOSgcQxW9HqCYSxv-1" vertex="1">
          <mxGeometry y="52" width="160" height="26" as="geometry" />
        </mxCell>
        <mxCell id="T4ZwaOSgcQxW9HqCYSxv-4" value="+ button: pygame.Font" style="text;strokeColor=none;fillColor=none;align=left;verticalAlign=top;spacingLeft=4;spacingRight=4;overflow=hidden;rotatable=0;points=[[0,0.5],[1,0.5]];portConstraint=eastwest;whiteSpace=wrap;html=1;" parent="T4ZwaOSgcQxW9HqCYSxv-1" vertex="1">
          <mxGeometry y="78" width="160" height="26" as="geometry" />
        </mxCell>
        <mxCell id="T4ZwaOSgcQxW9HqCYSxv-5" value="Sounds" style="swimlane;fontStyle=1;align=center;verticalAlign=top;childLayout=stackLayout;horizontal=1;startSize=26;horizontalStack=0;resizeParent=1;resizeParentMax=0;resizeLast=0;collapsible=1;marginBottom=0;whiteSpace=wrap;html=1;" parent="1" vertex="1">
          <mxGeometry x="1784" y="2877" width="160" height="202" as="geometry" />
        </mxCell>
        <mxCell id="T4ZwaOSgcQxW9HqCYSxv-6" value="+ coin: pygame.mixer.Sound" style="text;strokeColor=none;fillColor=none;align=left;verticalAlign=top;spacingLeft=4;spacingRight=4;overflow=hidden;rotatable=0;points=[[0,0.5],[1,0.5]];portConstraint=eastwest;whiteSpace=wrap;html=1;" parent="T4ZwaOSgcQxW9HqCYSxv-5" vertex="1">
          <mxGeometry y="26" width="160" height="44" as="geometry" />
        </mxCell>
        <mxCell id="T4ZwaOSgcQxW9HqCYSxv-7" value="+ explosion: pygame.mixer.Sound" style="text;strokeColor=none;fillColor=none;align=left;verticalAlign=top;spacingLeft=4;spacingRight=4;overflow=hidden;rotatable=0;points=[[0,0.5],[1,0.5]];portConstraint=eastwest;whiteSpace=wrap;html=1;" parent="T4ZwaOSgcQxW9HqCYSxv-5" vertex="1">
          <mxGeometry y="70" width="160" height="44" as="geometry" />
        </mxCell>
        <mxCell id="T4ZwaOSgcQxW9HqCYSxv-8" value="+ click: pygame.mixer.Sound" style="text;strokeColor=none;fillColor=none;align=left;verticalAlign=top;spacingLeft=4;spacingRight=4;overflow=hidden;rotatable=0;points=[[0,0.5],[1,0.5]];portConstraint=eastwest;whiteSpace=wrap;html=1;" parent="T4ZwaOSgcQxW9HqCYSxv-5" vertex="1">
          <mxGeometry y="114" width="160" height="44" as="geometry" />
        </mxCell>
        <mxCell id="T4ZwaOSgcQxW9HqCYSxv-9" value="+ click_deny: pygame.mixer.Sound" style="text;strokeColor=none;fillColor=none;align=left;verticalAlign=top;spacingLeft=4;spacingRight=4;overflow=hidden;rotatable=0;points=[[0,0.5],[1,0.5]];portConstraint=eastwest;whiteSpace=wrap;html=1;" parent="T4ZwaOSgcQxW9HqCYSxv-5" vertex="1">
          <mxGeometry y="158" width="160" height="44" as="geometry" />
        </mxCell>
        <mxCell id="T4ZwaOSgcQxW9HqCYSxv-10" value="storage" style="shape=folder;fontStyle=1;spacingTop=10;tabWidth=40;tabHeight=14;tabPosition=left;html=1;whiteSpace=wrap;" parent="1" vertex="1">
          <mxGeometry x="1719" y="2711" width="70" height="50" as="geometry" />
        </mxCell>
      </root>
    </mxGraphModel>
  </diagram>
  <diagram id="kOp13dz7ZCaJZR4VjBuX" name="sprites">
    <mxGraphModel dx="988" dy="-295" grid="1" gridSize="10" guides="1" tooltips="1" connect="1" arrows="1" fold="1" page="1" pageScale="1" pageWidth="1169" pageHeight="827" math="0" shadow="0">
      <root>
        <mxCell id="0" />
        <mxCell id="1" parent="0" />
        <mxCell id="iLyT113uXB0ng02zrQI2-1" value="GameObject" style="swimlane;fontStyle=1;align=center;verticalAlign=top;childLayout=stackLayout;horizontal=1;startSize=26;horizontalStack=0;resizeParent=1;resizeParentMax=0;resizeLast=0;collapsible=1;marginBottom=0;whiteSpace=wrap;html=1;" parent="1" vertex="1">
          <mxGeometry x="507" y="1040" width="170" height="176" as="geometry" />
        </mxCell>
        <mxCell id="iLyT113uXB0ng02zrQI2-2" value="+ image: pygame.Surface" style="text;strokeColor=none;fillColor=none;align=left;verticalAlign=top;spacingLeft=4;spacingRight=4;overflow=hidden;rotatable=0;points=[[0,0.5],[1,0.5]];portConstraint=eastwest;whiteSpace=wrap;html=1;" parent="iLyT113uXB0ng02zrQI2-1" vertex="1">
          <mxGeometry y="26" width="170" height="26" as="geometry" />
        </mxCell>
        <mxCell id="iLyT113uXB0ng02zrQI2-3" value="+ rect: pygame.Rect" style="text;strokeColor=none;fillColor=none;align=left;verticalAlign=top;spacingLeft=4;spacingRight=4;overflow=hidden;rotatable=0;points=[[0,0.5],[1,0.5]];portConstraint=eastwest;whiteSpace=wrap;html=1;" parent="iLyT113uXB0ng02zrQI2-1" vertex="1">
          <mxGeometry y="52" width="170" height="26" as="geometry" />
        </mxCell>
        <mxCell id="iLyT113uXB0ng02zrQI2-4" value="+ mask: pygame.Mask" style="text;strokeColor=none;fillColor=none;align=left;verticalAlign=top;spacingLeft=4;spacingRight=4;overflow=hidden;rotatable=0;points=[[0,0.5],[1,0.5]];portConstraint=eastwest;whiteSpace=wrap;html=1;" parent="iLyT113uXB0ng02zrQI2-1" vertex="1">
          <mxGeometry y="78" width="170" height="26" as="geometry" />
        </mxCell>
        <mxCell id="iLyT113uXB0ng02zrQI2-5" value="" style="line;strokeWidth=1;fillColor=none;align=left;verticalAlign=middle;spacingTop=-1;spacingLeft=3;spacingRight=3;rotatable=0;labelPosition=right;points=[];portConstraint=eastwest;strokeColor=inherit;" parent="iLyT113uXB0ng02zrQI2-1" vertex="1">
          <mxGeometry y="104" width="170" height="8" as="geometry" />
        </mxCell>
        <mxCell id="iLyT113uXB0ng02zrQI2-6" value="+ GameObject(img_path: str, scale: float | tuple[int, int])" style="text;strokeColor=none;fillColor=none;align=left;verticalAlign=top;spacingLeft=4;spacingRight=4;overflow=hidden;rotatable=0;points=[[0,0.5],[1,0.5]];portConstraint=eastwest;whiteSpace=wrap;html=1;" parent="iLyT113uXB0ng02zrQI2-1" vertex="1">
          <mxGeometry y="112" width="170" height="38" as="geometry" />
        </mxCell>
        <mxCell id="iLyT113uXB0ng02zrQI2-7" value="+ draw(): void" style="text;strokeColor=none;fillColor=none;align=left;verticalAlign=top;spacingLeft=4;spacingRight=4;overflow=hidden;rotatable=0;points=[[0,0.5],[1,0.5]];portConstraint=eastwest;whiteSpace=wrap;html=1;" parent="iLyT113uXB0ng02zrQI2-1" vertex="1">
          <mxGeometry y="150" width="170" height="26" as="geometry" />
        </mxCell>
        <mxCell id="RQQhYP2QHnRl19Grzfmf-20" style="edgeStyle=orthogonalEdgeStyle;rounded=0;orthogonalLoop=1;jettySize=auto;html=1;exitX=0.5;exitY=0;exitDx=0;exitDy=0;entryX=0.5;entryY=1;entryDx=0;entryDy=0;endArrow=block;endFill=0;" parent="1" source="iLyT113uXB0ng02zrQI2-8" target="iLyT113uXB0ng02zrQI2-1" edge="1">
          <mxGeometry relative="1" as="geometry">
            <mxPoint x="587" y="1280" as="targetPoint" />
            <Array as="points">
              <mxPoint x="172" y="1280" />
              <mxPoint x="592" y="1280" />
            </Array>
          </mxGeometry>
        </mxCell>
        <mxCell id="iLyT113uXB0ng02zrQI2-8" value="Player" style="swimlane;fontStyle=1;align=center;verticalAlign=top;childLayout=stackLayout;horizontal=1;startSize=26;horizontalStack=0;resizeParent=1;resizeParentMax=0;resizeLast=0;collapsible=1;marginBottom=0;whiteSpace=wrap;html=1;" parent="1" vertex="1">
          <mxGeometry x="92" y="1340" width="160" height="242" as="geometry" />
        </mxCell>
        <mxCell id="iLyT113uXB0ng02zrQI2-9" value="+ lane: int" style="text;strokeColor=none;fillColor=none;align=left;verticalAlign=top;spacingLeft=4;spacingRight=4;overflow=hidden;rotatable=0;points=[[0,0.5],[1,0.5]];portConstraint=eastwest;whiteSpace=wrap;html=1;" parent="iLyT113uXB0ng02zrQI2-8" vertex="1">
          <mxGeometry y="26" width="160" height="26" as="geometry" />
        </mxCell>
        <mxCell id="iLyT113uXB0ng02zrQI2-10" value="+ switching_lane: str | false" style="text;strokeColor=none;fillColor=none;align=left;verticalAlign=top;spacingLeft=4;spacingRight=4;overflow=hidden;rotatable=0;points=[[0,0.5],[1,0.5]];portConstraint=eastwest;whiteSpace=wrap;html=1;" parent="iLyT113uXB0ng02zrQI2-8" vertex="1">
          <mxGeometry y="52" width="160" height="26" as="geometry" />
        </mxCell>
        <mxCell id="iLyT113uXB0ng02zrQI2-11" value="- _switch_frames: int" style="text;strokeColor=none;fillColor=none;align=left;verticalAlign=top;spacingLeft=4;spacingRight=4;overflow=hidden;rotatable=0;points=[[0,0.5],[1,0.5]];portConstraint=eastwest;whiteSpace=wrap;html=1;" parent="iLyT113uXB0ng02zrQI2-8" vertex="1">
          <mxGeometry y="78" width="160" height="26" as="geometry" />
        </mxCell>
        <mxCell id="iLyT113uXB0ng02zrQI2-12" value="- _lane_delta_x: int" style="text;strokeColor=none;fillColor=none;align=left;verticalAlign=top;spacingLeft=4;spacingRight=4;overflow=hidden;rotatable=0;points=[[0,0.5],[1,0.5]];portConstraint=eastwest;whiteSpace=wrap;html=1;" parent="iLyT113uXB0ng02zrQI2-8" vertex="1">
          <mxGeometry y="104" width="160" height="26" as="geometry" />
        </mxCell>
        <mxCell id="iLyT113uXB0ng02zrQI2-13" value="- _moving_to: int" style="text;strokeColor=none;fillColor=none;align=left;verticalAlign=top;spacingLeft=4;spacingRight=4;overflow=hidden;rotatable=0;points=[[0,0.5],[1,0.5]];portConstraint=eastwest;whiteSpace=wrap;html=1;" parent="iLyT113uXB0ng02zrQI2-8" vertex="1">
          <mxGeometry y="130" width="160" height="26" as="geometry" />
        </mxCell>
        <mxCell id="iLyT113uXB0ng02zrQI2-14" value="" style="line;strokeWidth=1;fillColor=none;align=left;verticalAlign=middle;spacingTop=-1;spacingLeft=3;spacingRight=3;rotatable=0;labelPosition=right;points=[];portConstraint=eastwest;strokeColor=inherit;" parent="iLyT113uXB0ng02zrQI2-8" vertex="1">
          <mxGeometry y="156" width="160" height="8" as="geometry" />
        </mxCell>
        <mxCell id="iLyT113uXB0ng02zrQI2-15" value="+ move_left(): void" style="text;strokeColor=none;fillColor=none;align=left;verticalAlign=top;spacingLeft=4;spacingRight=4;overflow=hidden;rotatable=0;points=[[0,0.5],[1,0.5]];portConstraint=eastwest;whiteSpace=wrap;html=1;" parent="iLyT113uXB0ng02zrQI2-8" vertex="1">
          <mxGeometry y="164" width="160" height="26" as="geometry" />
        </mxCell>
        <mxCell id="iLyT113uXB0ng02zrQI2-16" value="+ move_right(): void" style="text;strokeColor=none;fillColor=none;align=left;verticalAlign=top;spacingLeft=4;spacingRight=4;overflow=hidden;rotatable=0;points=[[0,0.5],[1,0.5]];portConstraint=eastwest;whiteSpace=wrap;html=1;" parent="iLyT113uXB0ng02zrQI2-8" vertex="1">
          <mxGeometry y="190" width="160" height="26" as="geometry" />
        </mxCell>
        <mxCell id="iLyT113uXB0ng02zrQI2-17" value="+ update(): void" style="text;strokeColor=none;fillColor=none;align=left;verticalAlign=top;spacingLeft=4;spacingRight=4;overflow=hidden;rotatable=0;points=[[0,0.5],[1,0.5]];portConstraint=eastwest;whiteSpace=wrap;html=1;" parent="iLyT113uXB0ng02zrQI2-8" vertex="1">
          <mxGeometry y="216" width="160" height="26" as="geometry" />
        </mxCell>
        <mxCell id="RQQhYP2QHnRl19Grzfmf-21" style="edgeStyle=orthogonalEdgeStyle;rounded=0;orthogonalLoop=1;jettySize=auto;html=1;exitX=0.5;exitY=0;exitDx=0;exitDy=0;entryX=0.495;entryY=1.002;entryDx=0;entryDy=0;entryPerimeter=0;endArrow=block;endFill=0;" parent="1" source="iLyT113uXB0ng02zrQI2-18" target="iLyT113uXB0ng02zrQI2-7" edge="1">
          <mxGeometry relative="1" as="geometry">
            <mxPoint x="617" y="1250" as="targetPoint" />
            <Array as="points">
              <mxPoint x="792" y="1280" />
              <mxPoint x="591" y="1280" />
            </Array>
          </mxGeometry>
        </mxCell>
        <mxCell id="iLyT113uXB0ng02zrQI2-18" value="Obstacle" style="swimlane;fontStyle=1;align=center;verticalAlign=top;childLayout=stackLayout;horizontal=1;startSize=26;horizontalStack=0;resizeParent=1;resizeParentMax=0;resizeLast=0;collapsible=1;marginBottom=0;whiteSpace=wrap;html=1;" parent="1" vertex="1">
          <mxGeometry x="712" y="1340" width="160" height="112" as="geometry" />
        </mxCell>
        <mxCell id="iLyT113uXB0ng02zrQI2-19" value="+ lane: int" style="text;strokeColor=none;fillColor=none;align=left;verticalAlign=top;spacingLeft=4;spacingRight=4;overflow=hidden;rotatable=0;points=[[0,0.5],[1,0.5]];portConstraint=eastwest;whiteSpace=wrap;html=1;" parent="iLyT113uXB0ng02zrQI2-18" vertex="1">
          <mxGeometry y="26" width="160" height="26" as="geometry" />
        </mxCell>
        <mxCell id="iLyT113uXB0ng02zrQI2-20" value="" style="line;strokeWidth=1;fillColor=none;align=left;verticalAlign=middle;spacingTop=-1;spacingLeft=3;spacingRight=3;rotatable=0;labelPosition=right;points=[];portConstraint=eastwest;strokeColor=inherit;" parent="iLyT113uXB0ng02zrQI2-18" vertex="1">
          <mxGeometry y="52" width="160" height="8" as="geometry" />
        </mxCell>
        <mxCell id="iLyT113uXB0ng02zrQI2-21" value="+ update(): void" style="text;strokeColor=none;fillColor=none;align=left;verticalAlign=top;spacingLeft=4;spacingRight=4;overflow=hidden;rotatable=0;points=[[0,0.5],[1,0.5]];portConstraint=eastwest;whiteSpace=wrap;html=1;" parent="iLyT113uXB0ng02zrQI2-18" vertex="1">
          <mxGeometry y="60" width="160" height="26" as="geometry" />
        </mxCell>
        <mxCell id="iLyT113uXB0ng02zrQI2-22" value="- _select_random_car(): str" style="text;strokeColor=none;fillColor=none;align=left;verticalAlign=top;spacingLeft=4;spacingRight=4;overflow=hidden;rotatable=0;points=[[0,0.5],[1,0.5]];portConstraint=eastwest;whiteSpace=wrap;html=1;" parent="iLyT113uXB0ng02zrQI2-18" vertex="1">
          <mxGeometry y="86" width="160" height="26" as="geometry" />
        </mxCell>
        <mxCell id="iLyT113uXB0ng02zrQI2-23" value="Coin" style="swimlane;fontStyle=1;align=center;verticalAlign=top;childLayout=stackLayout;horizontal=1;startSize=26;horizontalStack=0;resizeParent=1;resizeParentMax=0;resizeLast=0;collapsible=1;marginBottom=0;whiteSpace=wrap;html=1;" parent="1" vertex="1">
          <mxGeometry x="512" y="1340" width="160" height="230" as="geometry" />
        </mxCell>
        <mxCell id="iLyT113uXB0ng02zrQI2-24" value="+ lane: int" style="text;strokeColor=none;fillColor=none;align=left;verticalAlign=top;spacingLeft=4;spacingRight=4;overflow=hidden;rotatable=0;points=[[0,0.5],[1,0.5]];portConstraint=eastwest;whiteSpace=wrap;html=1;" parent="iLyT113uXB0ng02zrQI2-23" vertex="1">
          <mxGeometry y="26" width="160" height="26" as="geometry" />
        </mxCell>
        <mxCell id="iLyT113uXB0ng02zrQI2-25" value="- _sheet_img: pygame.Surface" style="text;strokeColor=none;fillColor=none;align=left;verticalAlign=top;spacingLeft=4;spacingRight=4;overflow=hidden;rotatable=0;points=[[0,0.5],[1,0.5]];portConstraint=eastwest;whiteSpace=wrap;html=1;" parent="iLyT113uXB0ng02zrQI2-23" vertex="1">
          <mxGeometry y="52" width="160" height="40" as="geometry" />
        </mxCell>
        <mxCell id="iLyT113uXB0ng02zrQI2-26" value="- _sheet_rect: pygame.Rect" style="text;strokeColor=none;fillColor=none;align=left;verticalAlign=top;spacingLeft=4;spacingRight=4;overflow=hidden;rotatable=0;points=[[0,0.5],[1,0.5]];portConstraint=eastwest;whiteSpace=wrap;html=1;" parent="iLyT113uXB0ng02zrQI2-23" vertex="1">
          <mxGeometry y="92" width="160" height="26" as="geometry" />
        </mxCell>
        <mxCell id="iLyT113uXB0ng02zrQI2-27" value="- _frame_counter: int" style="text;strokeColor=none;fillColor=none;align=left;verticalAlign=top;spacingLeft=4;spacingRight=4;overflow=hidden;rotatable=0;points=[[0,0.5],[1,0.5]];portConstraint=eastwest;whiteSpace=wrap;html=1;" parent="iLyT113uXB0ng02zrQI2-23" vertex="1">
          <mxGeometry y="118" width="160" height="26" as="geometry" />
        </mxCell>
        <mxCell id="iLyT113uXB0ng02zrQI2-28" value="- _current_sprite: int" style="text;strokeColor=none;fillColor=none;align=left;verticalAlign=top;spacingLeft=4;spacingRight=4;overflow=hidden;rotatable=0;points=[[0,0.5],[1,0.5]];portConstraint=eastwest;whiteSpace=wrap;html=1;" parent="iLyT113uXB0ng02zrQI2-23" vertex="1">
          <mxGeometry y="144" width="160" height="26" as="geometry" />
        </mxCell>
        <mxCell id="iLyT113uXB0ng02zrQI2-29" value="- _sprites: int" style="text;strokeColor=none;fillColor=none;align=left;verticalAlign=top;spacingLeft=4;spacingRight=4;overflow=hidden;rotatable=0;points=[[0,0.5],[1,0.5]];portConstraint=eastwest;whiteSpace=wrap;html=1;" parent="iLyT113uXB0ng02zrQI2-23" vertex="1">
          <mxGeometry y="170" width="160" height="26" as="geometry" />
        </mxCell>
        <mxCell id="iLyT113uXB0ng02zrQI2-30" value="" style="line;strokeWidth=1;fillColor=none;align=left;verticalAlign=middle;spacingTop=-1;spacingLeft=3;spacingRight=3;rotatable=0;labelPosition=right;points=[];portConstraint=eastwest;strokeColor=inherit;" parent="iLyT113uXB0ng02zrQI2-23" vertex="1">
          <mxGeometry y="196" width="160" height="8" as="geometry" />
        </mxCell>
        <mxCell id="iLyT113uXB0ng02zrQI2-31" value="+ update(): void" style="text;strokeColor=none;fillColor=none;align=left;verticalAlign=top;spacingLeft=4;spacingRight=4;overflow=hidden;rotatable=0;points=[[0,0.5],[1,0.5]];portConstraint=eastwest;whiteSpace=wrap;html=1;" parent="iLyT113uXB0ng02zrQI2-23" vertex="1">
          <mxGeometry y="204" width="160" height="26" as="geometry" />
        </mxCell>
        <mxCell id="RQQhYP2QHnRl19Grzfmf-15" style="edgeStyle=orthogonalEdgeStyle;rounded=0;orthogonalLoop=1;jettySize=auto;html=1;exitX=0.5;exitY=0;exitDx=0;exitDy=0;endArrow=none;endFill=0;" parent="1" source="iLyT113uXB0ng02zrQI2-32" edge="1">
          <mxGeometry relative="1" as="geometry">
            <mxPoint x="382" y="1280" as="targetPoint" />
            <Array as="points">
              <mxPoint x="382" y="1280" />
            </Array>
          </mxGeometry>
        </mxCell>
        <mxCell id="iLyT113uXB0ng02zrQI2-32" value="Background" style="swimlane;fontStyle=1;align=center;verticalAlign=top;childLayout=stackLayout;horizontal=1;startSize=26;horizontalStack=0;resizeParent=1;resizeParentMax=0;resizeLast=0;collapsible=1;marginBottom=0;whiteSpace=wrap;html=1;" parent="1" vertex="1">
          <mxGeometry x="302" y="1340" width="168" height="164" as="geometry" />
        </mxCell>
        <mxCell id="iLyT113uXB0ng02zrQI2-33" value="+ bg_left: pygame.Surface" style="text;strokeColor=none;fillColor=none;align=left;verticalAlign=top;spacingLeft=4;spacingRight=4;overflow=hidden;rotatable=0;points=[[0,0.5],[1,0.5]];portConstraint=eastwest;whiteSpace=wrap;html=1;" parent="iLyT113uXB0ng02zrQI2-32" vertex="1">
          <mxGeometry y="26" width="168" height="26" as="geometry" />
        </mxCell>
        <mxCell id="9dRlu0ZYJi32RMEEO07h-3" value="+ bg_left_rect: pygame.Rect" style="text;strokeColor=none;fillColor=none;align=left;verticalAlign=top;spacingLeft=4;spacingRight=4;overflow=hidden;rotatable=0;points=[[0,0.5],[1,0.5]];portConstraint=eastwest;whiteSpace=wrap;html=1;" parent="iLyT113uXB0ng02zrQI2-32" vertex="1">
          <mxGeometry y="52" width="168" height="26" as="geometry" />
        </mxCell>
        <mxCell id="9dRlu0ZYJi32RMEEO07h-2" value="+ bg_right: pygame.Surface" style="text;strokeColor=none;fillColor=none;align=left;verticalAlign=top;spacingLeft=4;spacingRight=4;overflow=hidden;rotatable=0;points=[[0,0.5],[1,0.5]];portConstraint=eastwest;whiteSpace=wrap;html=1;" parent="iLyT113uXB0ng02zrQI2-32" vertex="1">
          <mxGeometry y="78" width="168" height="26" as="geometry" />
        </mxCell>
        <mxCell id="9dRlu0ZYJi32RMEEO07h-1" value="+ bg_right_rect: pygame.Rect" style="text;strokeColor=none;fillColor=none;align=left;verticalAlign=top;spacingLeft=4;spacingRight=4;overflow=hidden;rotatable=0;points=[[0,0.5],[1,0.5]];portConstraint=eastwest;whiteSpace=wrap;html=1;" parent="iLyT113uXB0ng02zrQI2-32" vertex="1">
          <mxGeometry y="104" width="168" height="26" as="geometry" />
        </mxCell>
        <mxCell id="iLyT113uXB0ng02zrQI2-34" value="" style="line;strokeWidth=1;fillColor=none;align=left;verticalAlign=middle;spacingTop=-1;spacingLeft=3;spacingRight=3;rotatable=0;labelPosition=right;points=[];portConstraint=eastwest;strokeColor=inherit;" parent="iLyT113uXB0ng02zrQI2-32" vertex="1">
          <mxGeometry y="130" width="168" height="8" as="geometry" />
        </mxCell>
        <mxCell id="iLyT113uXB0ng02zrQI2-35" value="+ update(speed: int): void" style="text;strokeColor=none;fillColor=none;align=left;verticalAlign=top;spacingLeft=4;spacingRight=4;overflow=hidden;rotatable=0;points=[[0,0.5],[1,0.5]];portConstraint=eastwest;whiteSpace=wrap;html=1;" parent="iLyT113uXB0ng02zrQI2-32" vertex="1">
          <mxGeometry y="138" width="168" height="26" as="geometry" />
        </mxCell>
        <mxCell id="RQQhYP2QHnRl19Grzfmf-22" style="edgeStyle=orthogonalEdgeStyle;rounded=0;orthogonalLoop=1;jettySize=auto;html=1;exitX=0.5;exitY=0;exitDx=0;exitDy=0;entryX=0.498;entryY=1.002;entryDx=0;entryDy=0;entryPerimeter=0;endArrow=block;endFill=0;" parent="1" source="iLyT113uXB0ng02zrQI2-36" target="iLyT113uXB0ng02zrQI2-7" edge="1">
          <mxGeometry relative="1" as="geometry">
            <mxPoint x="597" y="1220" as="targetPoint" />
            <Array as="points">
              <mxPoint x="997" y="1280" />
              <mxPoint x="592" y="1280" />
            </Array>
          </mxGeometry>
        </mxCell>
        <mxCell id="iLyT113uXB0ng02zrQI2-36" value="Explosion" style="swimlane;fontStyle=1;align=center;verticalAlign=top;childLayout=stackLayout;horizontal=1;startSize=26;horizontalStack=0;resizeParent=1;resizeParentMax=0;resizeLast=0;collapsible=1;marginBottom=0;whiteSpace=wrap;html=1;" parent="1" vertex="1">
          <mxGeometry x="917" y="1340" width="160" height="228" as="geometry" />
        </mxCell>
        <mxCell id="iLyT113uXB0ng02zrQI2-37" value="+ animation_finished: bool" style="text;strokeColor=none;fillColor=none;align=left;verticalAlign=top;spacingLeft=4;spacingRight=4;overflow=hidden;rotatable=0;points=[[0,0.5],[1,0.5]];portConstraint=eastwest;whiteSpace=wrap;html=1;" parent="iLyT113uXB0ng02zrQI2-36" vertex="1">
          <mxGeometry y="26" width="160" height="26" as="geometry" />
        </mxCell>
        <mxCell id="iLyT113uXB0ng02zrQI2-38" value="- _sheet_img: pygame.Surface" style="text;strokeColor=none;fillColor=none;align=left;verticalAlign=top;spacingLeft=4;spacingRight=4;overflow=hidden;rotatable=0;points=[[0,0.5],[1,0.5]];portConstraint=eastwest;whiteSpace=wrap;html=1;" parent="iLyT113uXB0ng02zrQI2-36" vertex="1">
          <mxGeometry y="52" width="160" height="38" as="geometry" />
        </mxCell>
        <mxCell id="iLyT113uXB0ng02zrQI2-39" value="- _sheet_rect: pygame.Rect" style="text;strokeColor=none;fillColor=none;align=left;verticalAlign=top;spacingLeft=4;spacingRight=4;overflow=hidden;rotatable=0;points=[[0,0.5],[1,0.5]];portConstraint=eastwest;whiteSpace=wrap;html=1;" parent="iLyT113uXB0ng02zrQI2-36" vertex="1">
          <mxGeometry y="90" width="160" height="26" as="geometry" />
        </mxCell>
        <mxCell id="iLyT113uXB0ng02zrQI2-40" value="- _frame_counter: int" style="text;strokeColor=none;fillColor=none;align=left;verticalAlign=top;spacingLeft=4;spacingRight=4;overflow=hidden;rotatable=0;points=[[0,0.5],[1,0.5]];portConstraint=eastwest;whiteSpace=wrap;html=1;" parent="iLyT113uXB0ng02zrQI2-36" vertex="1">
          <mxGeometry y="116" width="160" height="26" as="geometry" />
        </mxCell>
        <mxCell id="iLyT113uXB0ng02zrQI2-41" value="- _sprite_frames: int" style="text;strokeColor=none;fillColor=none;align=left;verticalAlign=top;spacingLeft=4;spacingRight=4;overflow=hidden;rotatable=0;points=[[0,0.5],[1,0.5]];portConstraint=eastwest;whiteSpace=wrap;html=1;" parent="iLyT113uXB0ng02zrQI2-36" vertex="1">
          <mxGeometry y="142" width="160" height="26" as="geometry" />
        </mxCell>
        <mxCell id="iLyT113uXB0ng02zrQI2-42" value="- _current_sprite: int" style="text;strokeColor=none;fillColor=none;align=left;verticalAlign=top;spacingLeft=4;spacingRight=4;overflow=hidden;rotatable=0;points=[[0,0.5],[1,0.5]];portConstraint=eastwest;whiteSpace=wrap;html=1;" parent="iLyT113uXB0ng02zrQI2-36" vertex="1">
          <mxGeometry y="168" width="160" height="26" as="geometry" />
        </mxCell>
        <mxCell id="iLyT113uXB0ng02zrQI2-43" value="" style="line;strokeWidth=1;fillColor=none;align=left;verticalAlign=middle;spacingTop=-1;spacingLeft=3;spacingRight=3;rotatable=0;labelPosition=right;points=[];portConstraint=eastwest;strokeColor=inherit;" parent="iLyT113uXB0ng02zrQI2-36" vertex="1">
          <mxGeometry y="194" width="160" height="8" as="geometry" />
        </mxCell>
        <mxCell id="iLyT113uXB0ng02zrQI2-44" value="+ update(): void" style="text;strokeColor=none;fillColor=none;align=left;verticalAlign=top;spacingLeft=4;spacingRight=4;overflow=hidden;rotatable=0;points=[[0,0.5],[1,0.5]];portConstraint=eastwest;whiteSpace=wrap;html=1;" parent="iLyT113uXB0ng02zrQI2-36" vertex="1">
          <mxGeometry y="202" width="160" height="26" as="geometry" />
        </mxCell>
        <mxCell id="iLyT113uXB0ng02zrQI2-45" value="sprites" style="shape=folder;fontStyle=1;spacingTop=10;tabWidth=40;tabHeight=14;tabPosition=left;html=1;whiteSpace=wrap;" parent="1" vertex="1">
          <mxGeometry x="557" y="880" width="70" height="50" as="geometry" />
        </mxCell>
        <mxCell id="RQQhYP2QHnRl19Grzfmf-19" style="edgeStyle=orthogonalEdgeStyle;rounded=0;orthogonalLoop=1;jettySize=auto;html=1;exitX=0.5;exitY=0;exitDx=0;exitDy=0;entryX=0.498;entryY=0.999;entryDx=0;entryDy=0;entryPerimeter=0;endArrow=block;endFill=0;" parent="1" source="iLyT113uXB0ng02zrQI2-23" target="iLyT113uXB0ng02zrQI2-7" edge="1">
          <mxGeometry relative="1" as="geometry" />
        </mxCell>
      </root>
    </mxGraphModel>
  </diagram>
  <diagram id="22I69g0WmUZWKxuHojy6" name="ui">
    <mxGraphModel dx="905" dy="-536" grid="1" gridSize="10" guides="1" tooltips="1" connect="1" arrows="1" fold="1" page="1" pageScale="1" pageWidth="1169" pageHeight="827" math="0" shadow="0">
      <root>
        <mxCell id="0" />
        <mxCell id="1" parent="0" />
        <mxCell id="jBd4gaiv-Fd_Mm05p8Ps-1" value="Button" style="swimlane;fontStyle=1;align=center;verticalAlign=top;childLayout=stackLayout;horizontal=1;startSize=26;horizontalStack=0;resizeParent=1;resizeParentMax=0;resizeLast=0;collapsible=1;marginBottom=0;whiteSpace=wrap;html=1;" parent="1" vertex="1">
          <mxGeometry x="1449.5" y="1970" width="190" height="250" as="geometry" />
        </mxCell>
        <mxCell id="jBd4gaiv-Fd_Mm05p8Ps-2" value="+ rect: pygame.Rect" style="text;strokeColor=none;fillColor=none;align=left;verticalAlign=top;spacingLeft=4;spacingRight=4;overflow=hidden;rotatable=0;points=[[0,0.5],[1,0.5]];portConstraint=eastwest;whiteSpace=wrap;html=1;" parent="jBd4gaiv-Fd_Mm05p8Ps-1" vertex="1">
          <mxGeometry y="26" width="190" height="26" as="geometry" />
        </mxCell>
        <mxCell id="jBd4gaiv-Fd_Mm05p8Ps-3" value="+ color: tuple[int, int, int] | str" style="text;strokeColor=none;fillColor=none;align=left;verticalAlign=top;spacingLeft=4;spacingRight=4;overflow=hidden;rotatable=0;points=[[0,0.5],[1,0.5]];portConstraint=eastwest;whiteSpace=wrap;html=1;" parent="jBd4gaiv-Fd_Mm05p8Ps-1" vertex="1">
          <mxGeometry y="52" width="190" height="26" as="geometry" />
        </mxCell>
        <mxCell id="jBd4gaiv-Fd_Mm05p8Ps-4" value="+ text: str | None" style="text;strokeColor=none;fillColor=none;align=left;verticalAlign=top;spacingLeft=4;spacingRight=4;overflow=hidden;rotatable=0;points=[[0,0.5],[1,0.5]];portConstraint=eastwest;whiteSpace=wrap;html=1;" parent="jBd4gaiv-Fd_Mm05p8Ps-1" vertex="1">
          <mxGeometry y="78" width="190" height="26" as="geometry" />
        </mxCell>
        <mxCell id="jBd4gaiv-Fd_Mm05p8Ps-5" value="+ clicked: bool" style="text;strokeColor=none;fillColor=none;align=left;verticalAlign=top;spacingLeft=4;spacingRight=4;overflow=hidden;rotatable=0;points=[[0,0.5],[1,0.5]];portConstraint=eastwest;whiteSpace=wrap;html=1;" parent="jBd4gaiv-Fd_Mm05p8Ps-1" vertex="1">
          <mxGeometry y="104" width="190" height="26" as="geometry" />
        </mxCell>
        <mxCell id="jBd4gaiv-Fd_Mm05p8Ps-6" value="" style="line;strokeWidth=1;fillColor=none;align=left;verticalAlign=middle;spacingTop=-1;spacingLeft=3;spacingRight=3;rotatable=0;labelPosition=right;points=[];portConstraint=eastwest;strokeColor=inherit;" parent="jBd4gaiv-Fd_Mm05p8Ps-1" vertex="1">
          <mxGeometry y="130" width="190" height="8" as="geometry" />
        </mxCell>
        <mxCell id="jBd4gaiv-Fd_Mm05p8Ps-7" value="+ Button(rect_value: tuple[int, int, int, int], color, text): type" style="text;strokeColor=none;fillColor=none;align=left;verticalAlign=top;spacingLeft=4;spacingRight=4;overflow=hidden;rotatable=0;points=[[0,0.5],[1,0.5]];portConstraint=eastwest;whiteSpace=wrap;html=1;" parent="jBd4gaiv-Fd_Mm05p8Ps-1" vertex="1">
          <mxGeometry y="138" width="190" height="42" as="geometry" />
        </mxCell>
        <mxCell id="jBd4gaiv-Fd_Mm05p8Ps-8" value="+ click_event(): void" style="text;strokeColor=none;fillColor=none;align=left;verticalAlign=top;spacingLeft=4;spacingRight=4;overflow=hidden;rotatable=0;points=[[0,0.5],[1,0.5]];portConstraint=eastwest;whiteSpace=wrap;html=1;" parent="jBd4gaiv-Fd_Mm05p8Ps-1" vertex="1">
          <mxGeometry y="180" width="190" height="30" as="geometry" />
        </mxCell>
        <mxCell id="jBd4gaiv-Fd_Mm05p8Ps-9" value="+ draw(dest_surface: pygame.Surface)" style="text;strokeColor=none;fillColor=none;align=left;verticalAlign=top;spacingLeft=4;spacingRight=4;overflow=hidden;rotatable=0;points=[[0,0.5],[1,0.5]];portConstraint=eastwest;whiteSpace=wrap;html=1;" parent="jBd4gaiv-Fd_Mm05p8Ps-1" vertex="1">
          <mxGeometry y="210" width="190" height="40" as="geometry" />
        </mxCell>
        <mxCell id="jBd4gaiv-Fd_Mm05p8Ps-10" value="ItemSelector" style="swimlane;fontStyle=1;align=center;verticalAlign=top;childLayout=stackLayout;horizontal=1;startSize=26;horizontalStack=0;resizeParent=1;resizeParentMax=0;resizeLast=0;collapsible=1;marginBottom=0;whiteSpace=wrap;html=1;" parent="1" vertex="1">
          <mxGeometry x="1910.5" y="1970" width="180" height="300" as="geometry" />
        </mxCell>
        <mxCell id="jBd4gaiv-Fd_Mm05p8Ps-11" value="+ rows: list[list[SelectableItem]]" style="text;strokeColor=none;fillColor=none;align=left;verticalAlign=top;spacingLeft=4;spacingRight=4;overflow=hidden;rotatable=0;points=[[0,0.5],[1,0.5]];portConstraint=eastwest;whiteSpace=wrap;html=1;" parent="jBd4gaiv-Fd_Mm05p8Ps-10" vertex="1">
          <mxGeometry y="26" width="180" height="26" as="geometry" />
        </mxCell>
        <mxCell id="jBd4gaiv-Fd_Mm05p8Ps-12" value="+ items_width: int" style="text;strokeColor=none;fillColor=none;align=left;verticalAlign=top;spacingLeft=4;spacingRight=4;overflow=hidden;rotatable=0;points=[[0,0.5],[1,0.5]];portConstraint=eastwest;whiteSpace=wrap;html=1;" parent="jBd4gaiv-Fd_Mm05p8Ps-10" vertex="1">
          <mxGeometry y="52" width="180" height="26" as="geometry" />
        </mxCell>
        <mxCell id="jBd4gaiv-Fd_Mm05p8Ps-13" value="+ items_height: int" style="text;strokeColor=none;fillColor=none;align=left;verticalAlign=top;spacingLeft=4;spacingRight=4;overflow=hidden;rotatable=0;points=[[0,0.5],[1,0.5]];portConstraint=eastwest;whiteSpace=wrap;html=1;" parent="jBd4gaiv-Fd_Mm05p8Ps-10" vertex="1">
          <mxGeometry y="78" width="180" height="26" as="geometry" />
        </mxCell>
        <mxCell id="jBd4gaiv-Fd_Mm05p8Ps-14" value="+ image: pygame.Surface" style="text;strokeColor=none;fillColor=none;align=left;verticalAlign=top;spacingLeft=4;spacingRight=4;overflow=hidden;rotatable=0;points=[[0,0.5],[1,0.5]];portConstraint=eastwest;whiteSpace=wrap;html=1;" parent="jBd4gaiv-Fd_Mm05p8Ps-10" vertex="1">
          <mxGeometry y="104" width="180" height="26" as="geometry" />
        </mxCell>
        <mxCell id="jBd4gaiv-Fd_Mm05p8Ps-15" value="+ rect: pygame.Rect" style="text;strokeColor=none;fillColor=none;align=left;verticalAlign=top;spacingLeft=4;spacingRight=4;overflow=hidden;rotatable=0;points=[[0,0.5],[1,0.5]];portConstraint=eastwest;whiteSpace=wrap;html=1;" parent="jBd4gaiv-Fd_Mm05p8Ps-10" vertex="1">
          <mxGeometry y="130" width="180" height="26" as="geometry" />
        </mxCell>
        <mxCell id="jBd4gaiv-Fd_Mm05p8Ps-16" value="+ active_item: SelectableItem" style="text;strokeColor=none;fillColor=none;align=left;verticalAlign=top;spacingLeft=4;spacingRight=4;overflow=hidden;rotatable=0;points=[[0,0.5],[1,0.5]];portConstraint=eastwest;whiteSpace=wrap;html=1;" parent="jBd4gaiv-Fd_Mm05p8Ps-10" vertex="1">
          <mxGeometry y="156" width="180" height="26" as="geometry" />
        </mxCell>
        <mxCell id="jBd4gaiv-Fd_Mm05p8Ps-17" value="" style="line;strokeWidth=1;fillColor=none;align=left;verticalAlign=middle;spacingTop=-1;spacingLeft=3;spacingRight=3;rotatable=0;labelPosition=right;points=[];portConstraint=eastwest;strokeColor=inherit;" parent="jBd4gaiv-Fd_Mm05p8Ps-10" vertex="1">
          <mxGeometry y="182" width="180" height="8" as="geometry" />
        </mxCell>
        <mxCell id="jBd4gaiv-Fd_Mm05p8Ps-18" value="+ get_active_item_index(): tuple[int, int]" style="text;strokeColor=none;fillColor=none;align=left;verticalAlign=top;spacingLeft=4;spacingRight=4;overflow=hidden;rotatable=0;points=[[0,0.5],[1,0.5]];portConstraint=eastwest;whiteSpace=wrap;html=1;" parent="jBd4gaiv-Fd_Mm05p8Ps-10" vertex="1">
          <mxGeometry y="190" width="180" height="40" as="geometry" />
        </mxCell>
        <mxCell id="jBd4gaiv-Fd_Mm05p8Ps-19" value="+ process_input(): void" style="text;strokeColor=none;fillColor=none;align=left;verticalAlign=top;spacingLeft=4;spacingRight=4;overflow=hidden;rotatable=0;points=[[0,0.5],[1,0.5]];portConstraint=eastwest;whiteSpace=wrap;html=1;" parent="jBd4gaiv-Fd_Mm05p8Ps-10" vertex="1">
          <mxGeometry y="230" width="180" height="30" as="geometry" />
        </mxCell>
        <mxCell id="jBd4gaiv-Fd_Mm05p8Ps-20" value="+ draw(dest_surface: pygame.Surface)" style="text;strokeColor=none;fillColor=none;align=left;verticalAlign=top;spacingLeft=4;spacingRight=4;overflow=hidden;rotatable=0;points=[[0,0.5],[1,0.5]];portConstraint=eastwest;whiteSpace=wrap;html=1;" parent="jBd4gaiv-Fd_Mm05p8Ps-10" vertex="1">
          <mxGeometry y="260" width="180" height="40" as="geometry" />
        </mxCell>
        <mxCell id="jBd4gaiv-Fd_Mm05p8Ps-21" value="SelectableItem" style="swimlane;fontStyle=1;align=center;verticalAlign=top;childLayout=stackLayout;horizontal=1;startSize=26;horizontalStack=0;resizeParent=1;resizeParentMax=0;resizeLast=0;collapsible=1;marginBottom=0;whiteSpace=wrap;html=1;" parent="1" vertex="1">
          <mxGeometry x="1680.5" y="1970" width="180" height="220" as="geometry" />
        </mxCell>
        <mxCell id="jBd4gaiv-Fd_Mm05p8Ps-22" value="+ image: pygame.Surface" style="text;strokeColor=none;fillColor=none;align=left;verticalAlign=top;spacingLeft=4;spacingRight=4;overflow=hidden;rotatable=0;points=[[0,0.5],[1,0.5]];portConstraint=eastwest;whiteSpace=wrap;html=1;" parent="jBd4gaiv-Fd_Mm05p8Ps-21" vertex="1">
          <mxGeometry y="26" width="180" height="26" as="geometry" />
        </mxCell>
        <mxCell id="jBd4gaiv-Fd_Mm05p8Ps-23" value="+ rect: pygame.Rect" style="text;strokeColor=none;fillColor=none;align=left;verticalAlign=top;spacingLeft=4;spacingRight=4;overflow=hidden;rotatable=0;points=[[0,0.5],[1,0.5]];portConstraint=eastwest;whiteSpace=wrap;html=1;" parent="jBd4gaiv-Fd_Mm05p8Ps-21" vertex="1">
          <mxGeometry y="52" width="180" height="26" as="geometry" />
        </mxCell>
        <mxCell id="jBd4gaiv-Fd_Mm05p8Ps-24" value="+ item_id: str" style="text;strokeColor=none;fillColor=none;align=left;verticalAlign=top;spacingLeft=4;spacingRight=4;overflow=hidden;rotatable=0;points=[[0,0.5],[1,0.5]];portConstraint=eastwest;whiteSpace=wrap;html=1;" parent="jBd4gaiv-Fd_Mm05p8Ps-21" vertex="1">
          <mxGeometry y="78" width="180" height="26" as="geometry" />
        </mxCell>
        <mxCell id="jBd4gaiv-Fd_Mm05p8Ps-25" value="+ item_img: pygame.Surface" style="text;strokeColor=none;fillColor=none;align=left;verticalAlign=top;spacingLeft=4;spacingRight=4;overflow=hidden;rotatable=0;points=[[0,0.5],[1,0.5]];portConstraint=eastwest;whiteSpace=wrap;html=1;" parent="jBd4gaiv-Fd_Mm05p8Ps-21" vertex="1">
          <mxGeometry y="104" width="180" height="26" as="geometry" />
        </mxCell>
        <mxCell id="jBd4gaiv-Fd_Mm05p8Ps-26" value="+ item_rect: pygame.Rect" style="text;strokeColor=none;fillColor=none;align=left;verticalAlign=top;spacingLeft=4;spacingRight=4;overflow=hidden;rotatable=0;points=[[0,0.5],[1,0.5]];portConstraint=eastwest;whiteSpace=wrap;html=1;" parent="jBd4gaiv-Fd_Mm05p8Ps-21" vertex="1">
          <mxGeometry y="130" width="180" height="26" as="geometry" />
        </mxCell>
        <mxCell id="jBd4gaiv-Fd_Mm05p8Ps-27" value="" style="line;strokeWidth=1;fillColor=none;align=left;verticalAlign=middle;spacingTop=-1;spacingLeft=3;spacingRight=3;rotatable=0;labelPosition=right;points=[];portConstraint=eastwest;strokeColor=inherit;" parent="jBd4gaiv-Fd_Mm05p8Ps-21" vertex="1">
          <mxGeometry y="156" width="180" height="8" as="geometry" />
        </mxCell>
        <mxCell id="jBd4gaiv-Fd_Mm05p8Ps-28" value="+ draw(dest_surface: pygame.Surface, is_active: bool): void" style="text;strokeColor=none;fillColor=none;align=left;verticalAlign=top;spacingLeft=4;spacingRight=4;overflow=hidden;rotatable=0;points=[[0,0.5],[1,0.5]];portConstraint=eastwest;whiteSpace=wrap;html=1;" parent="jBd4gaiv-Fd_Mm05p8Ps-21" vertex="1">
          <mxGeometry y="164" width="180" height="56" as="geometry" />
        </mxCell>
        <mxCell id="jBd4gaiv-Fd_Mm05p8Ps-29" value="ui" style="shape=folder;fontStyle=1;spacingTop=10;tabWidth=40;tabHeight=14;tabPosition=left;html=1;whiteSpace=wrap;" parent="1" vertex="1">
          <mxGeometry x="1735" y="1815" width="70" height="50" as="geometry" />
        </mxCell>
        <mxCell id="jMSzHL_scluKfDsy_WeQ-2" value="storage" style="shape=folder;fontStyle=1;spacingTop=10;tabWidth=40;tabHeight=14;tabPosition=left;html=1;whiteSpace=wrap;" parent="1" vertex="1">
          <mxGeometry x="1735" y="1700" width="70" height="50" as="geometry" />
        </mxCell>
        <mxCell id="NNpFvh3-NPrijz55abyV-1" value="" style="endArrow=open;endSize=12;dashed=1;html=1;rounded=0;entryX=0.5;entryY=1;entryDx=0;entryDy=0;entryPerimeter=0;exitX=0.499;exitY=0.282;exitDx=0;exitDy=0;exitPerimeter=0;" parent="1" source="jBd4gaiv-Fd_Mm05p8Ps-29" target="jMSzHL_scluKfDsy_WeQ-2" edge="1">
          <mxGeometry width="160" relative="1" as="geometry">
            <mxPoint x="1780" y="1780" as="sourcePoint" />
            <mxPoint x="1500" y="1900" as="targetPoint" />
          </mxGeometry>
        </mxCell>
      </root>
    </mxGraphModel>
  </diagram>
  <diagram id="sWn-FjI8Y_wJtzsj4Q2b" name="views">
    <mxGraphModel dx="2074" dy="1118" grid="1" gridSize="10" guides="1" tooltips="1" connect="1" arrows="1" fold="1" page="1" pageScale="1" pageWidth="1654" pageHeight="1169" math="0" shadow="0">
      <root>
        <mxCell id="0" />
        <mxCell id="1" parent="0" />
        <mxCell id="CD9zDC2wxaUdiKgSzieT-1" value="View" style="swimlane;fontStyle=1;align=center;verticalAlign=top;childLayout=stackLayout;horizontal=1;startSize=26;horizontalStack=0;resizeParent=1;resizeParentMax=0;resizeLast=0;collapsible=1;marginBottom=0;whiteSpace=wrap;html=1;" parent="1" vertex="1">
          <mxGeometry x="747" y="356" width="160" height="346" as="geometry">
            <mxRectangle x="505" y="160" width="70" height="30" as="alternateBounds" />
          </mxGeometry>
        </mxCell>
        <mxCell id="CD9zDC2wxaUdiKgSzieT-2" value="+ screen: pygame.Surface" style="text;strokeColor=none;fillColor=none;align=left;verticalAlign=top;spacingLeft=4;spacingRight=4;overflow=hidden;rotatable=0;points=[[0,0.5],[1,0.5]];portConstraint=eastwest;whiteSpace=wrap;html=1;" parent="CD9zDC2wxaUdiKgSzieT-1" vertex="1">
          <mxGeometry y="26" width="160" height="26" as="geometry" />
        </mxCell>
        <mxCell id="CD9zDC2wxaUdiKgSzieT-3" value="+ clock: pygame.Clock" style="text;strokeColor=none;fillColor=none;align=left;verticalAlign=top;spacingLeft=4;spacingRight=4;overflow=hidden;rotatable=0;points=[[0,0.5],[1,0.5]];portConstraint=eastwest;whiteSpace=wrap;html=1;" parent="CD9zDC2wxaUdiKgSzieT-1" vertex="1">
          <mxGeometry y="52" width="160" height="26" as="geometry" />
        </mxCell>
        <mxCell id="CD9zDC2wxaUdiKgSzieT-4" value="+ active: bool" style="text;strokeColor=none;fillColor=none;align=left;verticalAlign=top;spacingLeft=4;spacingRight=4;overflow=hidden;rotatable=0;points=[[0,0.5],[1,0.5]];portConstraint=eastwest;whiteSpace=wrap;html=1;" parent="CD9zDC2wxaUdiKgSzieT-1" vertex="1">
          <mxGeometry y="78" width="160" height="26" as="geometry" />
        </mxCell>
        <mxCell id="CD9zDC2wxaUdiKgSzieT-5" value="+ transition_to: str | None" style="text;strokeColor=none;fillColor=none;align=left;verticalAlign=top;spacingLeft=4;spacingRight=4;overflow=hidden;rotatable=0;points=[[0,0.5],[1,0.5]];portConstraint=eastwest;whiteSpace=wrap;html=1;" parent="CD9zDC2wxaUdiKgSzieT-1" vertex="1">
          <mxGeometry y="104" width="160" height="26" as="geometry" />
        </mxCell>
        <mxCell id="CD9zDC2wxaUdiKgSzieT-6" value="+ state: dict" style="text;strokeColor=none;fillColor=none;align=left;verticalAlign=top;spacingLeft=4;spacingRight=4;overflow=hidden;rotatable=0;points=[[0,0.5],[1,0.5]];portConstraint=eastwest;whiteSpace=wrap;html=1;" parent="CD9zDC2wxaUdiKgSzieT-1" vertex="1">
          <mxGeometry y="130" width="160" height="26" as="geometry" />
        </mxCell>
        <mxCell id="CD9zDC2wxaUdiKgSzieT-7" value="+ fonts: Fonts" style="text;strokeColor=none;fillColor=none;align=left;verticalAlign=top;spacingLeft=4;spacingRight=4;overflow=hidden;rotatable=0;points=[[0,0.5],[1,0.5]];portConstraint=eastwest;whiteSpace=wrap;html=1;" parent="CD9zDC2wxaUdiKgSzieT-1" vertex="1">
          <mxGeometry y="156" width="160" height="26" as="geometry" />
        </mxCell>
        <mxCell id="CD9zDC2wxaUdiKgSzieT-8" value="+ sounds: Sounds" style="text;strokeColor=none;fillColor=none;align=left;verticalAlign=top;spacingLeft=4;spacingRight=4;overflow=hidden;rotatable=0;points=[[0,0.5],[1,0.5]];portConstraint=eastwest;whiteSpace=wrap;html=1;" parent="CD9zDC2wxaUdiKgSzieT-1" vertex="1">
          <mxGeometry y="182" width="160" height="26" as="geometry" />
        </mxCell>
        <mxCell id="CD9zDC2wxaUdiKgSzieT-9" value="" style="line;strokeWidth=1;fillColor=none;align=left;verticalAlign=middle;spacingTop=-1;spacingLeft=3;spacingRight=3;rotatable=0;labelPosition=right;points=[];portConstraint=eastwest;strokeColor=inherit;" parent="CD9zDC2wxaUdiKgSzieT-1" vertex="1">
          <mxGeometry y="208" width="160" height="8" as="geometry" />
        </mxCell>
        <mxCell id="CD9zDC2wxaUdiKgSzieT-10" value="+ process_input(): void" style="text;strokeColor=none;fillColor=none;align=left;verticalAlign=top;spacingLeft=4;spacingRight=4;overflow=hidden;rotatable=0;points=[[0,0.5],[1,0.5]];portConstraint=eastwest;whiteSpace=wrap;html=1;" parent="CD9zDC2wxaUdiKgSzieT-1" vertex="1">
          <mxGeometry y="216" width="160" height="26" as="geometry" />
        </mxCell>
        <mxCell id="CD9zDC2wxaUdiKgSzieT-11" value="+ update(): void" style="text;strokeColor=none;fillColor=none;align=left;verticalAlign=top;spacingLeft=4;spacingRight=4;overflow=hidden;rotatable=0;points=[[0,0.5],[1,0.5]];portConstraint=eastwest;whiteSpace=wrap;html=1;" parent="CD9zDC2wxaUdiKgSzieT-1" vertex="1">
          <mxGeometry y="242" width="160" height="26" as="geometry" />
        </mxCell>
        <mxCell id="CD9zDC2wxaUdiKgSzieT-12" value="+ render(): void" style="text;strokeColor=none;fillColor=none;align=left;verticalAlign=top;spacingLeft=4;spacingRight=4;overflow=hidden;rotatable=0;points=[[0,0.5],[1,0.5]];portConstraint=eastwest;whiteSpace=wrap;html=1;" parent="CD9zDC2wxaUdiKgSzieT-1" vertex="1">
          <mxGeometry y="268" width="160" height="26" as="geometry" />
        </mxCell>
        <mxCell id="CD9zDC2wxaUdiKgSzieT-13" value="+ run(): void (game loop)" style="text;strokeColor=none;fillColor=none;align=left;verticalAlign=top;spacingLeft=4;spacingRight=4;overflow=hidden;rotatable=0;points=[[0,0.5],[1,0.5]];portConstraint=eastwest;whiteSpace=wrap;html=1;" parent="CD9zDC2wxaUdiKgSzieT-1" vertex="1">
          <mxGeometry y="294" width="160" height="26" as="geometry" />
        </mxCell>
        <mxCell id="CD9zDC2wxaUdiKgSzieT-14" value="+ exit(): void" style="text;strokeColor=none;fillColor=none;align=left;verticalAlign=top;spacingLeft=4;spacingRight=4;overflow=hidden;rotatable=0;points=[[0,0.5],[1,0.5]];portConstraint=eastwest;whiteSpace=wrap;html=1;" parent="CD9zDC2wxaUdiKgSzieT-1" vertex="1">
          <mxGeometry y="320" width="160" height="26" as="geometry" />
        </mxCell>
        <mxCell id="0wmjZ4spmWebPCIN1N32-12" style="edgeStyle=orthogonalEdgeStyle;rounded=0;orthogonalLoop=1;jettySize=auto;html=1;exitX=0.5;exitY=0;exitDx=0;exitDy=0;endArrow=none;endFill=0;" parent="1" source="CD9zDC2wxaUdiKgSzieT-15" edge="1">
          <mxGeometry relative="1" as="geometry">
            <mxPoint x="830" y="750" as="targetPoint" />
            <Array as="points">
              <mxPoint x="602" y="750" />
              <mxPoint x="790" y="750" />
            </Array>
          </mxGeometry>
        </mxCell>
        <mxCell id="CD9zDC2wxaUdiKgSzieT-15" value="Game" style="swimlane;fontStyle=1;align=center;verticalAlign=top;childLayout=stackLayout;horizontal=1;startSize=26;horizontalStack=0;resizeParent=1;resizeParentMax=0;resizeLast=0;collapsible=1;marginBottom=0;whiteSpace=wrap;html=1;" parent="1" vertex="1">
          <mxGeometry x="512" y="790" width="180" height="182" as="geometry" />
        </mxCell>
        <mxCell id="CD9zDC2wxaUdiKgSzieT-16" value="+ sprites: GameSpriteManager" style="text;strokeColor=none;fillColor=none;align=left;verticalAlign=top;spacingLeft=4;spacingRight=4;overflow=hidden;rotatable=0;points=[[0,0.5],[1,0.5]];portConstraint=eastwest;whiteSpace=wrap;html=1;" parent="CD9zDC2wxaUdiKgSzieT-15" vertex="1">
          <mxGeometry y="26" width="180" height="26" as="geometry" />
        </mxCell>
        <mxCell id="CD9zDC2wxaUdiKgSzieT-17" value="+ score_text: pygame.Surface" style="text;strokeColor=none;fillColor=none;align=left;verticalAlign=top;spacingLeft=4;spacingRight=4;overflow=hidden;rotatable=0;points=[[0,0.5],[1,0.5]];portConstraint=eastwest;whiteSpace=wrap;html=1;" parent="CD9zDC2wxaUdiKgSzieT-15" vertex="1">
          <mxGeometry y="52" width="180" height="26" as="geometry" />
        </mxCell>
        <mxCell id="CD9zDC2wxaUdiKgSzieT-18" value="+ frame_count: int" style="text;strokeColor=none;fillColor=none;align=left;verticalAlign=top;spacingLeft=4;spacingRight=4;overflow=hidden;rotatable=0;points=[[0,0.5],[1,0.5]];portConstraint=eastwest;whiteSpace=wrap;html=1;" parent="CD9zDC2wxaUdiKgSzieT-15" vertex="1">
          <mxGeometry y="78" width="180" height="26" as="geometry" />
        </mxCell>
        <mxCell id="CD9zDC2wxaUdiKgSzieT-19" value="+ speed: int" style="text;strokeColor=none;fillColor=none;align=left;verticalAlign=top;spacingLeft=4;spacingRight=4;overflow=hidden;rotatable=0;points=[[0,0.5],[1,0.5]];portConstraint=eastwest;whiteSpace=wrap;html=1;" parent="CD9zDC2wxaUdiKgSzieT-15" vertex="1">
          <mxGeometry y="104" width="180" height="26" as="geometry" />
        </mxCell>
        <mxCell id="CD9zDC2wxaUdiKgSzieT-20" value="+ score: int" style="text;strokeColor=none;fillColor=none;align=left;verticalAlign=top;spacingLeft=4;spacingRight=4;overflow=hidden;rotatable=0;points=[[0,0.5],[1,0.5]];portConstraint=eastwest;whiteSpace=wrap;html=1;" parent="CD9zDC2wxaUdiKgSzieT-15" vertex="1">
          <mxGeometry y="130" width="180" height="26" as="geometry" />
        </mxCell>
        <mxCell id="CD9zDC2wxaUdiKgSzieT-21" value="+ exploding: bool" style="text;strokeColor=none;fillColor=none;align=left;verticalAlign=top;spacingLeft=4;spacingRight=4;overflow=hidden;rotatable=0;points=[[0,0.5],[1,0.5]];portConstraint=eastwest;whiteSpace=wrap;html=1;" parent="CD9zDC2wxaUdiKgSzieT-15" vertex="1">
          <mxGeometry y="156" width="180" height="26" as="geometry" />
        </mxCell>
        <mxCell id="0wmjZ4spmWebPCIN1N32-13" style="edgeStyle=orthogonalEdgeStyle;rounded=0;orthogonalLoop=1;jettySize=auto;html=1;exitX=0.5;exitY=0;exitDx=0;exitDy=0;endArrow=none;endFill=0;" parent="1" source="CD9zDC2wxaUdiKgSzieT-24" edge="1">
          <mxGeometry relative="1" as="geometry">
            <mxPoint x="820" y="750" as="targetPoint" />
            <Array as="points">
              <mxPoint x="1047" y="750" />
            </Array>
          </mxGeometry>
        </mxCell>
        <mxCell id="CD9zDC2wxaUdiKgSzieT-24" value="Menu" style="swimlane;fontStyle=1;align=center;verticalAlign=top;childLayout=stackLayout;horizontal=1;startSize=26;horizontalStack=0;resizeParent=1;resizeParentMax=0;resizeLast=0;collapsible=1;marginBottom=0;whiteSpace=wrap;html=1;" parent="1" vertex="1">
          <mxGeometry x="967" y="790" width="160" height="130" as="geometry">
            <mxRectangle x="370" y="834" width="70" height="30" as="alternateBounds" />
          </mxGeometry>
        </mxCell>
        <mxCell id="CD9zDC2wxaUdiKgSzieT-25" value="+ title: pygame.Surface" style="text;strokeColor=none;fillColor=none;align=left;verticalAlign=top;spacingLeft=4;spacingRight=4;overflow=hidden;rotatable=0;points=[[0,0.5],[1,0.5]];portConstraint=eastwest;whiteSpace=wrap;html=1;" parent="CD9zDC2wxaUdiKgSzieT-24" vertex="1">
          <mxGeometry y="26" width="160" height="26" as="geometry" />
        </mxCell>
        <mxCell id="CD9zDC2wxaUdiKgSzieT-26" value="+ play: ui.Button" style="text;strokeColor=none;fillColor=none;align=left;verticalAlign=top;spacingLeft=4;spacingRight=4;overflow=hidden;rotatable=0;points=[[0,0.5],[1,0.5]];portConstraint=eastwest;whiteSpace=wrap;html=1;" parent="CD9zDC2wxaUdiKgSzieT-24" vertex="1">
          <mxGeometry y="52" width="160" height="26" as="geometry" />
        </mxCell>
        <mxCell id="CD9zDC2wxaUdiKgSzieT-27" value="+ settings: ui.Button" style="text;strokeColor=none;fillColor=none;align=left;verticalAlign=top;spacingLeft=4;spacingRight=4;overflow=hidden;rotatable=0;points=[[0,0.5],[1,0.5]];portConstraint=eastwest;whiteSpace=wrap;html=1;" parent="CD9zDC2wxaUdiKgSzieT-24" vertex="1">
          <mxGeometry y="78" width="160" height="26" as="geometry" />
        </mxCell>
        <mxCell id="CD9zDC2wxaUdiKgSzieT-28" value="+ exit_btn: ui.Button" style="text;strokeColor=none;fillColor=none;align=left;verticalAlign=top;spacingLeft=4;spacingRight=4;overflow=hidden;rotatable=0;points=[[0,0.5],[1,0.5]];portConstraint=eastwest;whiteSpace=wrap;html=1;" parent="CD9zDC2wxaUdiKgSzieT-24" vertex="1">
          <mxGeometry y="104" width="160" height="26" as="geometry" />
        </mxCell>
        <mxCell id="0wmjZ4spmWebPCIN1N32-9" style="edgeStyle=orthogonalEdgeStyle;rounded=0;orthogonalLoop=1;jettySize=auto;html=1;exitX=0.5;exitY=0;exitDx=0;exitDy=0;entryX=0.503;entryY=1.003;entryDx=0;entryDy=0;entryPerimeter=0;endArrow=block;endFill=0;" parent="1" source="CD9zDC2wxaUdiKgSzieT-31" target="CD9zDC2wxaUdiKgSzieT-14" edge="1">
          <mxGeometry relative="1" as="geometry">
            <mxPoint x="827.2" y="710" as="targetPoint" />
          </mxGeometry>
        </mxCell>
        <mxCell id="CD9zDC2wxaUdiKgSzieT-31" value="GameOver" style="swimlane;fontStyle=1;align=center;verticalAlign=top;childLayout=stackLayout;horizontal=1;startSize=26;horizontalStack=0;resizeParent=1;resizeParentMax=0;resizeLast=0;collapsible=1;marginBottom=0;whiteSpace=wrap;html=1;" parent="1" vertex="1">
          <mxGeometry x="747" y="790" width="160" height="182" as="geometry" />
        </mxCell>
        <mxCell id="CD9zDC2wxaUdiKgSzieT-32" value="+ title: pygame.Surface" style="text;strokeColor=none;fillColor=none;align=left;verticalAlign=top;spacingLeft=4;spacingRight=4;overflow=hidden;rotatable=0;points=[[0,0.5],[1,0.5]];portConstraint=eastwest;whiteSpace=wrap;html=1;" parent="CD9zDC2wxaUdiKgSzieT-31" vertex="1">
          <mxGeometry y="26" width="160" height="26" as="geometry" />
        </mxCell>
        <mxCell id="CD9zDC2wxaUdiKgSzieT-33" value="+ retry: ui.Button" style="text;strokeColor=none;fillColor=none;align=left;verticalAlign=top;spacingLeft=4;spacingRight=4;overflow=hidden;rotatable=0;points=[[0,0.5],[1,0.5]];portConstraint=eastwest;whiteSpace=wrap;html=1;" parent="CD9zDC2wxaUdiKgSzieT-31" vertex="1">
          <mxGeometry y="52" width="160" height="26" as="geometry" />
        </mxCell>
        <mxCell id="CD9zDC2wxaUdiKgSzieT-34" value="+ back: ui.Button" style="text;strokeColor=none;fillColor=none;align=left;verticalAlign=top;spacingLeft=4;spacingRight=4;overflow=hidden;rotatable=0;points=[[0,0.5],[1,0.5]];portConstraint=eastwest;whiteSpace=wrap;html=1;" parent="CD9zDC2wxaUdiKgSzieT-31" vertex="1">
          <mxGeometry y="78" width="160" height="26" as="geometry" />
        </mxCell>
        <mxCell id="CD9zDC2wxaUdiKgSzieT-35" value="+ exit_btn: ui.Button" style="text;strokeColor=none;fillColor=none;align=left;verticalAlign=top;spacingLeft=4;spacingRight=4;overflow=hidden;rotatable=0;points=[[0,0.5],[1,0.5]];portConstraint=eastwest;whiteSpace=wrap;html=1;" parent="CD9zDC2wxaUdiKgSzieT-31" vertex="1">
          <mxGeometry y="104" width="160" height="26" as="geometry" />
        </mxCell>
        <mxCell id="CD9zDC2wxaUdiKgSzieT-36" value="+ overlay: pygame.Surface" style="text;strokeColor=none;fillColor=none;align=left;verticalAlign=top;spacingLeft=4;spacingRight=4;overflow=hidden;rotatable=0;points=[[0,0.5],[1,0.5]];portConstraint=eastwest;whiteSpace=wrap;html=1;" parent="CD9zDC2wxaUdiKgSzieT-31" vertex="1">
          <mxGeometry y="130" width="160" height="26" as="geometry" />
        </mxCell>
        <mxCell id="CD9zDC2wxaUdiKgSzieT-37" value="+ overlay_blitted: bool" style="text;strokeColor=none;fillColor=none;align=left;verticalAlign=top;spacingLeft=4;spacingRight=4;overflow=hidden;rotatable=0;points=[[0,0.5],[1,0.5]];portConstraint=eastwest;whiteSpace=wrap;html=1;" parent="CD9zDC2wxaUdiKgSzieT-31" vertex="1">
          <mxGeometry y="156" width="160" height="26" as="geometry" />
        </mxCell>
        <mxCell id="0wmjZ4spmWebPCIN1N32-14" style="edgeStyle=orthogonalEdgeStyle;rounded=0;orthogonalLoop=1;jettySize=auto;html=1;exitX=0.5;exitY=0;exitDx=0;exitDy=0;endArrow=none;endFill=0;" parent="1" source="CD9zDC2wxaUdiKgSzieT-40" edge="1">
          <mxGeometry relative="1" as="geometry">
            <mxPoint x="1040" y="750" as="targetPoint" />
            <Array as="points">
              <mxPoint x="1275" y="750" />
            </Array>
          </mxGeometry>
        </mxCell>
        <mxCell id="CD9zDC2wxaUdiKgSzieT-40" value="Settings" style="swimlane;fontStyle=1;align=center;verticalAlign=top;childLayout=stackLayout;horizontal=1;startSize=26;horizontalStack=0;resizeParent=1;resizeParentMax=0;resizeLast=0;collapsible=1;marginBottom=0;whiteSpace=wrap;html=1;" parent="1" vertex="1">
          <mxGeometry x="1180" y="790" width="190" height="208" as="geometry" />
        </mxCell>
        <mxCell id="CD9zDC2wxaUdiKgSzieT-41" value="+ cars: list[list[ui.SelectableItem]]" style="text;strokeColor=none;fillColor=none;align=left;verticalAlign=top;spacingLeft=4;spacingRight=4;overflow=hidden;rotatable=0;points=[[0,0.5],[1,0.5]];portConstraint=eastwest;whiteSpace=wrap;html=1;" parent="CD9zDC2wxaUdiKgSzieT-40" vertex="1">
          <mxGeometry y="26" width="190" height="30" as="geometry" />
        </mxCell>
        <mxCell id="CD9zDC2wxaUdiKgSzieT-42" value="+ car_selector: ui.ItemSelector" style="text;strokeColor=none;fillColor=none;align=left;verticalAlign=top;spacingLeft=4;spacingRight=4;overflow=hidden;rotatable=0;points=[[0,0.5],[1,0.5]];portConstraint=eastwest;whiteSpace=wrap;html=1;" parent="CD9zDC2wxaUdiKgSzieT-40" vertex="1">
          <mxGeometry y="56" width="190" height="26" as="geometry" />
        </mxCell>
        <mxCell id="CD9zDC2wxaUdiKgSzieT-43" value="+ difficulties: list[list[ui.SelectableItem]]" style="text;strokeColor=none;fillColor=none;align=left;verticalAlign=top;spacingLeft=4;spacingRight=4;overflow=hidden;rotatable=0;points=[[0,0.5],[1,0.5]];portConstraint=eastwest;whiteSpace=wrap;html=1;" parent="CD9zDC2wxaUdiKgSzieT-40" vertex="1">
          <mxGeometry y="82" width="190" height="40" as="geometry" />
        </mxCell>
        <mxCell id="CD9zDC2wxaUdiKgSzieT-44" value="+ diff_selector: ui.ItemSelector" style="text;strokeColor=none;fillColor=none;align=left;verticalAlign=top;spacingLeft=4;spacingRight=4;overflow=hidden;rotatable=0;points=[[0,0.5],[1,0.5]];portConstraint=eastwest;whiteSpace=wrap;html=1;" parent="CD9zDC2wxaUdiKgSzieT-40" vertex="1">
          <mxGeometry y="122" width="190" height="26" as="geometry" />
        </mxCell>
        <mxCell id="CD9zDC2wxaUdiKgSzieT-45" value="+ back: ui.Button" style="text;strokeColor=none;fillColor=none;align=left;verticalAlign=top;spacingLeft=4;spacingRight=4;overflow=hidden;rotatable=0;points=[[0,0.5],[1,0.5]];portConstraint=eastwest;whiteSpace=wrap;html=1;" parent="CD9zDC2wxaUdiKgSzieT-40" vertex="1">
          <mxGeometry y="148" width="190" height="26" as="geometry" />
        </mxCell>
        <mxCell id="CD9zDC2wxaUdiKgSzieT-46" value="" style="line;strokeWidth=1;fillColor=none;align=left;verticalAlign=middle;spacingTop=-1;spacingLeft=3;spacingRight=3;rotatable=0;labelPosition=right;points=[];portConstraint=eastwest;strokeColor=inherit;" parent="CD9zDC2wxaUdiKgSzieT-40" vertex="1">
          <mxGeometry y="174" width="190" height="8" as="geometry" />
        </mxCell>
        <mxCell id="CD9zDC2wxaUdiKgSzieT-47" value="- _set_state(): void" style="text;strokeColor=none;fillColor=none;align=left;verticalAlign=top;spacingLeft=4;spacingRight=4;overflow=hidden;rotatable=0;points=[[0,0.5],[1,0.5]];portConstraint=eastwest;whiteSpace=wrap;html=1;" parent="CD9zDC2wxaUdiKgSzieT-40" vertex="1">
          <mxGeometry y="182" width="190" height="26" as="geometry" />
        </mxCell>
        <mxCell id="9bdZHOLoAdMoJSg-Ho75-1" value="views" style="shape=folder;fontStyle=1;spacingTop=10;tabWidth=40;tabHeight=14;tabPosition=left;html=1;whiteSpace=wrap;" parent="1" vertex="1">
          <mxGeometry x="790" y="220" width="70" height="50" as="geometry" />
        </mxCell>
        <mxCell id="xYMLWAQgVMqvDXvuhwCk-1" value="sprites" style="shape=folder;fontStyle=1;spacingTop=10;tabWidth=40;tabHeight=14;tabPosition=left;html=1;whiteSpace=wrap;" parent="1" vertex="1">
          <mxGeometry x="690" y="120" width="70" height="50" as="geometry" />
        </mxCell>
        <mxCell id="xYMLWAQgVMqvDXvuhwCk-2" value="ui" style="shape=folder;fontStyle=1;spacingTop=10;tabWidth=40;tabHeight=14;tabPosition=left;html=1;whiteSpace=wrap;" parent="1" vertex="1">
          <mxGeometry x="890" y="120" width="70" height="50" as="geometry" />
        </mxCell>
        <mxCell id="9VD8eC8Yz4-AosJ0PUzO-1" value="GameSpriteManager" style="swimlane;fontStyle=1;align=center;verticalAlign=top;childLayout=stackLayout;horizontal=1;startSize=26;horizontalStack=0;resizeParent=1;resizeParentMax=0;resizeLast=0;collapsible=1;marginBottom=0;whiteSpace=wrap;html=1;" parent="1" vertex="1">
          <mxGeometry x="210" y="664" width="210" height="460" as="geometry" />
        </mxCell>
        <mxCell id="9VD8eC8Yz4-AosJ0PUzO-2" value="+ player: Player" style="text;strokeColor=none;fillColor=none;align=left;verticalAlign=top;spacingLeft=4;spacingRight=4;overflow=hidden;rotatable=0;points=[[0,0.5],[1,0.5]];portConstraint=eastwest;whiteSpace=wrap;html=1;" parent="9VD8eC8Yz4-AosJ0PUzO-1" vertex="1">
          <mxGeometry y="26" width="210" height="26" as="geometry" />
        </mxCell>
        <mxCell id="9VD8eC8Yz4-AosJ0PUzO-3" value="+ background: Background" style="text;strokeColor=none;fillColor=none;align=left;verticalAlign=top;spacingLeft=4;spacingRight=4;overflow=hidden;rotatable=0;points=[[0,0.5],[1,0.5]];portConstraint=eastwest;whiteSpace=wrap;html=1;" parent="9VD8eC8Yz4-AosJ0PUzO-1" vertex="1">
          <mxGeometry y="52" width="210" height="26" as="geometry" />
        </mxCell>
        <mxCell id="9VD8eC8Yz4-AosJ0PUzO-4" value="+ obstacles: pygame.sprite.Group[Obstacle]" style="text;strokeColor=none;fillColor=none;align=left;verticalAlign=top;spacingLeft=4;spacingRight=4;overflow=hidden;rotatable=0;points=[[0,0.5],[1,0.5]];portConstraint=eastwest;whiteSpace=wrap;html=1;" parent="9VD8eC8Yz4-AosJ0PUzO-1" vertex="1">
          <mxGeometry y="78" width="210" height="42" as="geometry" />
        </mxCell>
        <mxCell id="9VD8eC8Yz4-AosJ0PUzO-5" value="+ coins: pygame.sprite.Group[Coin]" style="text;strokeColor=none;fillColor=none;align=left;verticalAlign=top;spacingLeft=4;spacingRight=4;overflow=hidden;rotatable=0;points=[[0,0.5],[1,0.5]];portConstraint=eastwest;whiteSpace=wrap;html=1;" parent="9VD8eC8Yz4-AosJ0PUzO-1" vertex="1">
          <mxGeometry y="120" width="210" height="26" as="geometry" />
        </mxCell>
        <mxCell id="9VD8eC8Yz4-AosJ0PUzO-6" value="+ explosion: Explosion" style="text;strokeColor=none;fillColor=none;align=left;verticalAlign=top;spacingLeft=4;spacingRight=4;overflow=hidden;rotatable=0;points=[[0,0.5],[1,0.5]];portConstraint=eastwest;whiteSpace=wrap;html=1;" parent="9VD8eC8Yz4-AosJ0PUzO-1" vertex="1">
          <mxGeometry y="146" width="210" height="26" as="geometry" />
        </mxCell>
        <mxCell id="9VD8eC8Yz4-AosJ0PUzO-7" value="" style="line;strokeWidth=1;fillColor=none;align=left;verticalAlign=middle;spacingTop=-1;spacingLeft=3;spacingRight=3;rotatable=0;labelPosition=right;points=[];portConstraint=eastwest;strokeColor=inherit;" parent="9VD8eC8Yz4-AosJ0PUzO-1" vertex="1">
          <mxGeometry y="172" width="210" height="8" as="geometry" />
        </mxCell>
        <mxCell id="9VD8eC8Yz4-AosJ0PUzO-8" value="+ GameSpriteManager(state: dict)" style="text;strokeColor=none;fillColor=none;align=left;verticalAlign=top;spacingLeft=4;spacingRight=4;overflow=hidden;rotatable=0;points=[[0,0.5],[1,0.5]];portConstraint=eastwest;whiteSpace=wrap;html=1;" parent="9VD8eC8Yz4-AosJ0PUzO-1" vertex="1">
          <mxGeometry y="180" width="210" height="26" as="geometry" />
        </mxCell>
        <mxCell id="9VD8eC8Yz4-AosJ0PUzO-9" value="+ update(speed: int): void" style="text;strokeColor=none;fillColor=none;align=left;verticalAlign=top;spacingLeft=4;spacingRight=4;overflow=hidden;rotatable=0;points=[[0,0.5],[1,0.5]];portConstraint=eastwest;whiteSpace=wrap;html=1;" parent="9VD8eC8Yz4-AosJ0PUzO-1" vertex="1">
          <mxGeometry y="206" width="210" height="26" as="geometry" />
        </mxCell>
        <mxCell id="9VD8eC8Yz4-AosJ0PUzO-10" value="+ spawn_road_objects(speed: int): void" style="text;strokeColor=none;fillColor=none;align=left;verticalAlign=top;spacingLeft=4;spacingRight=4;overflow=hidden;rotatable=0;points=[[0,0.5],[1,0.5]];portConstraint=eastwest;whiteSpace=wrap;html=1;" parent="9VD8eC8Yz4-AosJ0PUzO-1" vertex="1">
          <mxGeometry y="232" width="210" height="38" as="geometry" />
        </mxCell>
        <mxCell id="9VD8eC8Yz4-AosJ0PUzO-11" value="+ despawn_obsolete(): void" style="text;strokeColor=none;fillColor=none;align=left;verticalAlign=top;spacingLeft=4;spacingRight=4;overflow=hidden;rotatable=0;points=[[0,0.5],[1,0.5]];portConstraint=eastwest;whiteSpace=wrap;html=1;" parent="9VD8eC8Yz4-AosJ0PUzO-1" vertex="1">
          <mxGeometry y="270" width="210" height="26" as="geometry" />
        </mxCell>
        <mxCell id="9VD8eC8Yz4-AosJ0PUzO-12" value="+ spawn_explosion(collided_with: Obstacle): void" style="text;strokeColor=none;fillColor=none;align=left;verticalAlign=top;spacingLeft=4;spacingRight=4;overflow=hidden;rotatable=0;points=[[0,0.5],[1,0.5]];portConstraint=eastwest;whiteSpace=wrap;html=1;" parent="9VD8eC8Yz4-AosJ0PUzO-1" vertex="1">
          <mxGeometry y="296" width="210" height="44" as="geometry" />
        </mxCell>
        <mxCell id="9VD8eC8Yz4-AosJ0PUzO-13" value="+ road_position_free(lane: int, new_rect: pygame.Rect): bool" style="text;strokeColor=none;fillColor=none;align=left;verticalAlign=top;spacingLeft=4;spacingRight=4;overflow=hidden;rotatable=0;points=[[0,0.5],[1,0.5]];portConstraint=eastwest;whiteSpace=wrap;html=1;" parent="9VD8eC8Yz4-AosJ0PUzO-1" vertex="1">
          <mxGeometry y="340" width="210" height="40" as="geometry" />
        </mxCell>
        <mxCell id="9VD8eC8Yz4-AosJ0PUzO-14" value="- _add_road_objects(obj: str, amount: int, speed: int): void" style="text;strokeColor=none;fillColor=none;align=left;verticalAlign=top;spacingLeft=4;spacingRight=4;overflow=hidden;rotatable=0;points=[[0,0.5],[1,0.5]];portConstraint=eastwest;whiteSpace=wrap;html=1;" parent="9VD8eC8Yz4-AosJ0PUzO-1" vertex="1">
          <mxGeometry y="380" width="210" height="40" as="geometry" />
        </mxCell>
        <mxCell id="9VD8eC8Yz4-AosJ0PUzO-15" value="+ draw(dest_surface: pygame.Surface): void" style="text;strokeColor=none;fillColor=none;align=left;verticalAlign=top;spacingLeft=4;spacingRight=4;overflow=hidden;rotatable=0;points=[[0,0.5],[1,0.5]];portConstraint=eastwest;whiteSpace=wrap;html=1;" parent="9VD8eC8Yz4-AosJ0PUzO-1" vertex="1">
          <mxGeometry y="420" width="210" height="40" as="geometry" />
        </mxCell>
        <mxCell id="0wmjZ4spmWebPCIN1N32-2" value="" style="endArrow=diamondThin;endFill=1;endSize=24;html=1;rounded=0;exitX=1.001;exitY=0.797;exitDx=0;exitDy=0;exitPerimeter=0;" parent="1" source="9VD8eC8Yz4-AosJ0PUzO-9" edge="1">
          <mxGeometry width="160" relative="1" as="geometry">
            <mxPoint x="352" y="890" as="sourcePoint" />
            <mxPoint x="512" y="890" as="targetPoint" />
          </mxGeometry>
        </mxCell>
        <mxCell id="0wmjZ4spmWebPCIN1N32-5" value="1..1" style="edgeLabel;html=1;align=center;verticalAlign=middle;resizable=0;points=[];" parent="0wmjZ4spmWebPCIN1N32-2" vertex="1" connectable="0">
          <mxGeometry x="0.76" y="3" relative="1" as="geometry">
            <mxPoint x="-3" y="-14" as="offset" />
          </mxGeometry>
        </mxCell>
        <mxCell id="0wmjZ4spmWebPCIN1N32-15" value="" style="endArrow=open;endSize=12;dashed=1;html=1;rounded=0;exitX=0.497;exitY=0.276;exitDx=0;exitDy=0;exitPerimeter=0;entryX=0.5;entryY=1;entryDx=0;entryDy=0;entryPerimeter=0;" parent="1" source="9bdZHOLoAdMoJSg-Ho75-1" target="xYMLWAQgVMqvDXvuhwCk-1" edge="1">
          <mxGeometry width="160" relative="1" as="geometry">
            <mxPoint x="620" y="270" as="sourcePoint" />
            <mxPoint x="780" y="270" as="targetPoint" />
            <Array as="points">
              <mxPoint x="825" y="210" />
              <mxPoint x="725" y="210" />
            </Array>
          </mxGeometry>
        </mxCell>
        <mxCell id="0wmjZ4spmWebPCIN1N32-16" value="" style="endArrow=open;endSize=12;dashed=1;html=1;rounded=0;exitX=0.497;exitY=0.278;exitDx=0;exitDy=0;exitPerimeter=0;entryX=0.5;entryY=1;entryDx=0;entryDy=0;entryPerimeter=0;" parent="1" source="9bdZHOLoAdMoJSg-Ho75-1" target="xYMLWAQgVMqvDXvuhwCk-2" edge="1">
          <mxGeometry width="160" relative="1" as="geometry">
            <mxPoint x="827" y="224.2" as="sourcePoint" />
            <mxPoint x="932.21" y="170" as="targetPoint" />
            <Array as="points">
              <mxPoint x="825" y="210" />
              <mxPoint x="925" y="210" />
            </Array>
          </mxGeometry>
        </mxCell>
        <mxCell id="4GmFVfJ8-xR8ZkUOHyhA-1" value="" style="endArrow=open;endSize=12;dashed=1;html=1;rounded=0;exitX=0.504;exitY=0.279;exitDx=0;exitDy=0;exitPerimeter=0;" parent="1" source="xYMLWAQgVMqvDXvuhwCk-2" edge="1">
          <mxGeometry width="160" relative="1" as="geometry">
            <mxPoint x="490" y="270" as="sourcePoint" />
            <mxPoint x="925" y="80" as="targetPoint" />
          </mxGeometry>
        </mxCell>
        <mxCell id="4GmFVfJ8-xR8ZkUOHyhA-2" value="storage" style="shape=folder;fontStyle=1;spacingTop=10;tabWidth=40;tabHeight=14;tabPosition=left;html=1;whiteSpace=wrap;" parent="1" vertex="1">
          <mxGeometry x="890" y="30" width="70" height="50" as="geometry" />
        </mxCell>
        <mxCell id="5Oj2paIxFrAI0peO2d6M-1" value="" style="endArrow=open;endSize=12;dashed=1;html=1;rounded=0;entryX=-0.004;entryY=0.597;entryDx=0;entryDy=0;entryPerimeter=0;" parent="1" target="4GmFVfJ8-xR8ZkUOHyhA-2" edge="1">
          <mxGeometry x="0.4483" y="58" width="160" relative="1" as="geometry">
            <mxPoint x="825" y="210" as="sourcePoint" />
            <mxPoint x="885" y="60" as="targetPoint" />
            <Array as="points">
              <mxPoint x="825" y="60" />
            </Array>
            <mxPoint as="offset" />
          </mxGeometry>
        </mxCell>
      </root>
    </mxGraphModel>
  </diagram>
  <diagram id="KYD-iUyNNkslCjJMeYoj" name="packages">
    <mxGraphModel dx="2074" dy="1118" grid="1" gridSize="10" guides="1" tooltips="1" connect="1" arrows="1" fold="1" page="1" pageScale="1" pageWidth="1169" pageHeight="827" math="0" shadow="0">
      <root>
        <mxCell id="0" />
        <mxCell id="1" parent="0" />
        <mxCell id="UUT67SczDllsaIukUOiK-4" value="ui" style="shape=folder;fontStyle=1;spacingTop=10;tabWidth=40;tabHeight=14;tabPosition=left;html=1;whiteSpace=wrap;" parent="1" vertex="1">
          <mxGeometry x="655" y="322" width="70" height="50" as="geometry" />
        </mxCell>
        <mxCell id="UUT67SczDllsaIukUOiK-5" value="storage" style="shape=folder;fontStyle=1;spacingTop=10;tabWidth=40;tabHeight=14;tabPosition=left;html=1;whiteSpace=wrap;" parent="1" vertex="1">
          <mxGeometry x="655" y="207" width="70" height="50" as="geometry" />
        </mxCell>
        <mxCell id="UUT67SczDllsaIukUOiK-6" value="" style="endArrow=open;endSize=12;dashed=1;html=1;rounded=0;entryX=0.5;entryY=1;entryDx=0;entryDy=0;entryPerimeter=0;exitX=0.499;exitY=0.282;exitDx=0;exitDy=0;exitPerimeter=0;" parent="1" source="UUT67SczDllsaIukUOiK-4" target="UUT67SczDllsaIukUOiK-5" edge="1">
          <mxGeometry width="160" relative="1" as="geometry">
            <mxPoint x="700" y="287" as="sourcePoint" />
            <mxPoint x="420" y="407" as="targetPoint" />
          </mxGeometry>
        </mxCell>
        <mxCell id="rnsuEPbXYLlLQieUA59c-1" value="views" style="shape=folder;fontStyle=1;spacingTop=10;tabWidth=40;tabHeight=14;tabPosition=left;html=1;whiteSpace=wrap;" parent="1" vertex="1">
          <mxGeometry x="545" y="422" width="70" height="50" as="geometry" />
        </mxCell>
        <mxCell id="rnsuEPbXYLlLQieUA59c-2" value="sprites" style="shape=folder;fontStyle=1;spacingTop=10;tabWidth=40;tabHeight=14;tabPosition=left;html=1;whiteSpace=wrap;" parent="1" vertex="1">
          <mxGeometry x="445" y="322" width="70" height="50" as="geometry" />
        </mxCell>
        <mxCell id="rnsuEPbXYLlLQieUA59c-4" value="" style="endArrow=open;endSize=12;dashed=1;html=1;rounded=0;exitX=0.497;exitY=0.276;exitDx=0;exitDy=0;exitPerimeter=0;entryX=0.5;entryY=1;entryDx=0;entryDy=0;entryPerimeter=0;" parent="1" source="rnsuEPbXYLlLQieUA59c-1" target="rnsuEPbXYLlLQieUA59c-2" edge="1">
          <mxGeometry width="160" relative="1" as="geometry">
            <mxPoint x="375" y="472" as="sourcePoint" />
            <mxPoint x="535" y="472" as="targetPoint" />
            <Array as="points">
              <mxPoint x="580" y="412" />
              <mxPoint x="480" y="412" />
            </Array>
          </mxGeometry>
        </mxCell>
        <mxCell id="rnsuEPbXYLlLQieUA59c-5" value="" style="endArrow=open;endSize=12;dashed=1;html=1;rounded=0;exitX=0.497;exitY=0.278;exitDx=0;exitDy=0;exitPerimeter=0;entryX=0.5;entryY=1;entryDx=0;entryDy=0;entryPerimeter=0;" parent="1" source="rnsuEPbXYLlLQieUA59c-1" target="UUT67SczDllsaIukUOiK-4" edge="1">
          <mxGeometry width="160" relative="1" as="geometry">
            <mxPoint x="582" y="426.20000000000005" as="sourcePoint" />
            <mxPoint x="687.21" y="372" as="targetPoint" />
            <Array as="points">
              <mxPoint x="580" y="412" />
              <mxPoint x="690" y="412" />
            </Array>
          </mxGeometry>
        </mxCell>
        <mxCell id="rnsuEPbXYLlLQieUA59c-6" value="viewmanager" style="shape=folder;fontStyle=1;spacingTop=10;tabWidth=40;tabHeight=14;tabPosition=left;html=1;whiteSpace=wrap;" parent="1" vertex="1">
          <mxGeometry x="535" y="562" width="90" height="58" as="geometry" />
        </mxCell>
        <mxCell id="rnsuEPbXYLlLQieUA59c-7" value="" style="endArrow=open;endSize=12;dashed=1;html=1;rounded=0;exitX=0.503;exitY=0.197;exitDx=0;exitDy=0;exitPerimeter=0;entryX=0.5;entryY=1;entryDx=0;entryDy=0;entryPerimeter=0;" parent="1" source="rnsuEPbXYLlLQieUA59c-6" target="rnsuEPbXYLlLQieUA59c-1" edge="1">
          <mxGeometry width="160" relative="1" as="geometry">
            <mxPoint x="205" y="492" as="sourcePoint" />
            <mxPoint x="365" y="492" as="targetPoint" />
          </mxGeometry>
        </mxCell>
        <mxCell id="AsN-l0RPqm6ZNePrsCIk-1" value="" style="endArrow=open;endSize=12;dashed=1;html=1;rounded=0;entryX=-0.004;entryY=0.597;entryDx=0;entryDy=0;entryPerimeter=0;" parent="1" edge="1">
          <mxGeometry x="0.4483" y="58" width="160" relative="1" as="geometry">
            <mxPoint x="580" y="410" as="sourcePoint" />
            <mxPoint x="655" y="240" as="targetPoint" />
            <Array as="points">
              <mxPoint x="580" y="240" />
            </Array>
            <mxPoint as="offset" />
          </mxGeometry>
        </mxCell>
      </root>
    </mxGraphModel>
  </diagram>
</mxfile>
